<?xml version="1.0" standalone="no"?>
<!DOCTYPE svg PUBLIC "-//W3C//DTD SVG 1.1//EN" "http://www.w3.org/Graphics/SVG/1.1/DTD/svg11.dtd" >
<svg xmlns="http://www.w3.org/2000/svg" xmlns:xlink="http://www.w3.org/1999/xlink" version="1.1">
<metadata>
Created by FontForge 20170731 at Fri May 20 11:39:41 2016
 By Aleksey,,,
Copyright (c) 2004-2013, Phil's Fonts Inc &#38; Joshua Darden. All rights reserved. Published by Garagefonts USA 301-879-9222 www.garagefonts.com
</metadata>
<defs>
<font id="FreightNeoPro-Book" horiz-adv-x="500" >
  <font-face 
    font-family="Freight Neo Pro"
    font-weight="400"
    font-stretch="normal"
    units-per-em="1000"
    panose-1="2 0 6 6 0 0 0 2 0 4"
    ascent="711"
    descent="-289"
    x-height="458"
    cap-height="625"
    bbox="-187 -292 1238 1006"
    underline-thickness="20"
    underline-position="-173"
    unicode-range="U+0020-FB04"
  />
<missing-glyph 
d="M428 0h-356v625h356v-625zM108 88l121 224l-121 226v-450zM250 350l130 240h-261zM380 36l-130 239l-131 -239h261zM392 88v450l-122 -226z" />
    <glyph glyph-name="ff" unicode="ff" horiz-adv-x="671" 
d="M459 0h-72v416h-220v-416h-72v416h-75v42h75v16q0 111 51.5 167t141.5 56q83 0 142 -47q41 47 117 47q60 0 114 -35l-26 -55q-14 20 -37.5 35t-49.5 15q-41 0 -65 -32t-24 -96v-71h139v-42h-139v-416zM387 458v40q0 60 15 100q-45 59 -110 59q-125 0 -125 -163v-36h220z
" />
    <glyph glyph-name="fi" unicode="fi" horiz-adv-x="536" 
d="M464 0h-72v416h-225v-416h-72v416h-75v42h75v16q0 110 52.5 166.5t140.5 56.5q77 0 134 -36l-27 -56q-14 22 -42.5 37t-62.5 15q-57 0 -90 -41t-33 -122v-36h260l37 12v-470z" />
    <glyph glyph-name="fl" unicode="fl" horiz-adv-x="539" 
d="M467 0h-72v610q-15 20 -43.5 33.5t-60.5 13.5q-57 0 -90.5 -41t-33.5 -122v-36h139v-42h-139v-416h-72v416h-75v42h75v16q0 110 52.5 166.5t140.5 56.5q63 0 111 -23l68 23v-697z" />
    <glyph glyph-name="ffi" unicode="ffi" horiz-adv-x="828" 
d="M756 0h-72v416h-225v-416h-72v416h-220v-416h-72v416h-75v42h75v16q0 111 50.5 167t140.5 56q95 0 153 -55q51 55 139 55q79 0 136 -36l-27 -56q-14 22 -42.5 37t-62.5 15q-57 0 -90 -41t-33 -122v-36h261l36 12v-470zM387 458v16q0 71 22 119q-19 27 -50 45.5t-66 18.5
q-126 0 -126 -163v-36h220z" />
    <glyph glyph-name="ffl" unicode="ffl" horiz-adv-x="831" 
d="M759 0h-72v610q-15 20 -43.5 33.5t-60.5 13.5q-57 0 -90.5 -41t-33.5 -122v-36h145v-42h-145v-416h-72v416h-220v-416h-72v416h-75v42h75v16q0 111 50.5 167t140.5 56q97 0 154 -55q49 55 140 55q63 0 111 -23l68 23v-697zM387 458v16q0 71 22 119q-19 27 -50 45.5
t-66 18.5q-126 0 -126 -163v-36h220z" />
    <glyph glyph-name=".notdef" 
d="M428 0h-356v625h356v-625zM108 88l121 224l-121 226v-450zM250 350l130 240h-261zM380 36l-130 239l-131 -239h261zM392 88v450l-122 -226z" />
    <glyph glyph-name=".null" horiz-adv-x="0" 
 />
    <glyph glyph-name="nonmarkingreturn" horiz-adv-x="333" 
 />
    <glyph glyph-name="space" unicode=" " horiz-adv-x="242" 
 />
    <glyph glyph-name="exclam" unicode="!" horiz-adv-x="282" 
d="M138 103q24 0 41.5 -17t17.5 -42q0 -24 -17.5 -41.5t-41.5 -17.5q-25 0 -42 17.5t-17 41.5q0 25 17 42t42 17zM188 601l-34 -407h-33l-34 407q-2 19 10 29t40 10q29 0 41 -9.5t10 -29.5z" />
    <glyph glyph-name="quotedbl" unicode="&#x22;" horiz-adv-x="407" 
d="M68 403h-34l110 243l73 -25q-69 -103 -149 -218zM247 403h-34l110 243l73 -25q-12 -18 -66 -97t-83 -121z" />
    <glyph glyph-name="numbersign" unicode="#" horiz-adv-x="587" 
d="M322 -6h-45l53 197h-144l-53 -197h-46l54 197h-119v43h130l47 172h-124v43h136l48 182h46l-49 -182h144l49 182h45l-48 -182h119v-43h-131l-47 -172h119v-43h-130zM341 234l47 172h-143l-47 -172h143z" />
    <glyph glyph-name="dollar" unicode="$" horiz-adv-x="484" 
d="M152 -96h-39l27 118q-59 10 -90 27q4 10 10 30l9 30l14 -10q30 -21 68 -33l52 224q-79 29 -116 66t-37 93q0 65 51.5 110.5t142.5 45.5q19 0 33 -2l21 94h40q-18 -73 -23 -98q61 -10 95 -26q-14 -47 -19 -61l-16 11q-32 23 -71 33l-47 -206q93 -32 132.5 -69.5
t39.5 -98.5q0 -71 -57.5 -118.5t-154.5 -47.5q-25 0 -38 1zM221 364l46 199q-7 1 -26 1q-55 0 -89 -26.5t-34 -65.5q0 -38 23.5 -62.5t79.5 -45.5zM239 277l-51 -219q18 -3 37 -3q62 0 98 31t36 74q0 40 -24.5 65t-95.5 52z" />
    <glyph glyph-name="percent" unicode="%" horiz-adv-x="678" 
d="M119 0h-47l485 625h46zM172 344q-64 0 -100.5 44t-36.5 109q0 64 36.5 108.5t100.5 44.5q63 0 99.5 -44.5t36.5 -108.5q0 -65 -36.5 -109t-99.5 -44zM172 378q29 0 48.5 29.5t19.5 89.5t-19.5 88.5t-48.5 28.5t-48.5 -28.5t-19.5 -88.5t19.5 -89.5t48.5 -29.5zM507 -24
q-63 0 -100 44t-37 109q0 64 37 108.5t100 44.5t100 -44.5t37 -108.5q0 -65 -37 -109t-100 -44zM507 10q29 0 48.5 29.5t19.5 89.5t-19.5 88.5t-48.5 28.5t-48.5 -28.5t-19.5 -88.5t19.5 -89.5t48.5 -29.5z" />
    <glyph glyph-name="ampersand" unicode="&#x26;" horiz-adv-x="602" 
d="M587 0h-96l-79 96q-38 -57 -81 -84t-109 -27q-84 0 -133 48t-49 119q0 54 37.5 105t101.5 88q3 2 8.5 5t8.5 5q-1 2 -3 4.5t-5 5.5t-4 5q-73 90 -73 144q0 59 40 92.5t119 33.5q70 0 107 -35.5t37 -86.5q0 -87 -99 -150l-22 -14l132 -158l88 147h51l-111 -181
q44 -54 134 -162zM270 381l23 21q46 42 46 105q0 42 -20 67.5t-57 25.5q-32 0 -53 -20.5t-21 -54.5q0 -44 48 -102q6 -7 17 -21t17 -21zM384 130l-164 197q-103 -65 -103 -160q0 -54 35 -92t85 -38q91 0 147 93z" />
    <glyph glyph-name="quotesingle" unicode="'" horiz-adv-x="228" 
d="M68 403h-34l110 243l73 -25q-69 -103 -149 -218z" />
    <glyph glyph-name="parenleft" unicode="(" horiz-adv-x="360" 
d="M330 -180l-22 -36q-121 72 -192 196.5t-71 271.5q0 146 71 270.5t192 196.5l22 -36q-109 -67 -172 -182t-63 -249t62.5 -249t172.5 -183z" />
    <glyph glyph-name="parenright" unicode=")" horiz-adv-x="360" 
d="M52 -216l-22 36q109 68 171.5 183t62.5 249t-62.5 249t-171.5 182l22 36q121 -72 192 -196.5t71 -270.5q0 -147 -71 -271.5t-192 -196.5z" />
    <glyph glyph-name="asterisk" unicode="*" horiz-adv-x="349" 
d="M239 319l-21 -6l-42 47l2 91l-15 4l-52 -71l-61 -14l-14 18l34 56l84 24v17l-84 26l-35 54l13 18l63 -13l52 -75l15 5l2 91l39 46l22 -7l7 -62l-57 -73l10 -13l88 29l55 -26v-22l-55 -26l-88 30l-10 -13l55 -73z" />
    <glyph glyph-name="plus" unicode="+" 
d="M272 24h-44v190h-178v44h178v189h44v-189h178v-44h-178v-190z" />
    <glyph glyph-name="comma" unicode="," horiz-adv-x="226" 
d="M60 -188l-19 25q78 61 78 125q0 60 -74 86q0 25 17.5 41.5t48.5 16.5q33 0 59 -28.5t26 -68.5q0 -102 -136 -197z" />
    <glyph glyph-name="hyphen" unicode="-" horiz-adv-x="328" 
d="M273 243h-218v48h218v-48z" />
    <glyph glyph-name="period" unicode="." horiz-adv-x="226" 
d="M113 -14q-24 0 -41.5 17.5t-17.5 41.5t17.5 41.5t41.5 17.5t41.5 -17.5t17.5 -41.5t-17.5 -41.5t-41.5 -17.5z" />
    <glyph glyph-name="slash" unicode="/" horiz-adv-x="285" 
d="M55 -177h-42l217 877h42z" />
    <glyph glyph-name="zero" unicode="0" horiz-adv-x="532" 
d="M262 -15q-98 0 -157.5 69t-59.5 181q0 115 62 188.5t163 73.5q98 0 157.5 -69t59.5 -181q0 -115 -62 -188.5t-163 -73.5zM269 25q60 0 99.5 56t39.5 152q0 108 -42.5 166t-103.5 58t-99.5 -55t-38.5 -152q0 -109 42 -167t103 -58z" />
    <glyph glyph-name="one" unicode="1" horiz-adv-x="297" 
d="M212 0h-72v406h-111v29l183 62v-497z" />
    <glyph glyph-name="two" unicode="2" horiz-adv-x="449" 
d="M408 0h-360l-6 60q140 95 205 157t65 122q0 46 -29.5 72t-79.5 26q-76 0 -138 -69l-24 27q81 102 195 102q68 0 111.5 -39.5t43.5 -97.5q0 -39 -14 -71.5t-56 -70.5t-72 -60t-108 -75q-9 -6 -13 -9h280v-74z" />
    <glyph glyph-name="three" unicode="3" horiz-adv-x="447" 
d="M32 -156l33 56q45 -60 122 -60q65 0 105 43.5t40 110.5q0 64 -36 100t-102 36q-38 0 -86 -19l-13 34q98 44 147.5 99t49.5 105q0 39 -27 63.5t-70 24.5q-79 0 -141 -69l-24 27q84 102 199 102q65 0 103.5 -36.5t38.5 -89.5q0 -100 -145 -188q87 0 136 -51t49 -121
q0 -86 -64.5 -148.5t-160.5 -62.5q-84 0 -154 44z" />
    <glyph glyph-name="four" unicode="4" horiz-adv-x="519" 
d="M390 -185h-72v205h-285l-3 40l315 428h45v-399h104v-69h-104v-205zM318 89v287h-4l-211 -287h215z" />
    <glyph glyph-name="five" unicode="5" horiz-adv-x="439" 
d="M19 -156l32 55q47 -59 124 -59q63 0 99.5 38t36.5 101q0 148 -268 212l71 291h280v-74h-256l-37 -151q143 -38 215 -104.5t72 -151.5q0 -86 -60 -143.5t-154 -57.5q-88 0 -155 44z" />
    <glyph glyph-name="six" unicode="6" horiz-adv-x="529" 
d="M137 355l3 -3q70 65 156 65q88 0 137.5 -59t49.5 -145q0 -103 -61.5 -165.5t-160.5 -62.5q-96 0 -156 76.5t-60 182.5q0 168 121 295t302 153l7 -36q-131 -25 -216 -105t-122 -196zM132 301q-8 -18 -8 -68q0 -83 42 -145.5t111 -62.5q58 0 93 47.5t35 113.5q0 77 -40 124
t-104 47q-67 0 -129 -56z" />
    <glyph glyph-name="seven" unicode="7" horiz-adv-x="473" 
d="M123 -185h-57l310 593h-340v74h402l5 -39z" />
    <glyph glyph-name="eight" unicode="8" horiz-adv-x="505" 
d="M324 333v-4q63 -31 99.5 -70t36.5 -98q0 -78 -56.5 -127t-160.5 -49q-86 0 -142 45.5t-56 115.5q0 102 133 163v4q-118 64 -118 158q0 69 53 119t144 50q79 0 130.5 -43t51.5 -110q0 -97 -115 -154zM217 293q-94 -63 -94 -141q0 -56 36.5 -92t99.5 -36q59 0 94 31.5
t35 77.5q0 52 -37 85t-134 75zM286 349q76 50 76 129q0 51 -31.5 87t-86.5 36q-50 0 -81 -31t-31 -75q0 -46 33 -76t121 -70z" />
    <glyph glyph-name="nine" unicode="9" horiz-adv-x="529" 
d="M391 127l-3 3q-70 -65 -154 -65q-88 0 -138.5 59t-50.5 145q0 103 61.5 165.5t160.5 62.5q96 0 156 -76.5t60 -182.5q0 -167 -120.5 -289.5t-302.5 -148.5l-7 36q132 25 216.5 101t121.5 190zM396 181q8 18 8 68q0 83 -42 145.5t-111 62.5q-58 0 -92.5 -47.5
t-34.5 -113.5q0 -77 40 -124.5t103 -47.5q65 0 129 57z" />
    <glyph glyph-name="colon" unicode=":" horiz-adv-x="226" 
d="M113 -14q-24 0 -41.5 17.5t-17.5 41.5t17.5 41.5t41.5 17.5t41.5 -17.5t17.5 -41.5t-17.5 -41.5t-41.5 -17.5zM113 328q-24 0 -41.5 17.5t-17.5 41.5q0 25 17.5 42t41.5 17t41.5 -17t17.5 -42q0 -24 -17.5 -41.5t-41.5 -17.5z" />
    <glyph glyph-name="semicolon" unicode=";" horiz-adv-x="226" 
d="M113 328q-24 0 -41.5 17.5t-17.5 41.5q0 25 17.5 42t41.5 17t41.5 -17t17.5 -42q0 -24 -17.5 -41.5t-41.5 -17.5zM60 -188l-19 25q78 61 78 125q0 60 -74 86q0 25 17.5 41.5t48.5 16.5q33 0 59 -28.5t26 -68.5q0 -102 -136 -197z" />
    <glyph glyph-name="less" unicode="&#x3c;" 
d="M440 33l-400 187v30l400 187v-50l-324 -149v-6l324 -149v-50z" />
    <glyph glyph-name="equal" unicode="=" 
d="M448 296h-396v45h396v-45zM448 128h-396v45h396v-45z" />
    <glyph glyph-name="greater" unicode="&#x3e;" 
d="M460 220l-400 -187v50l324 149v6l-324 149v50l400 -187v-30z" />
    <glyph glyph-name="question" unicode="?" horiz-adv-x="362" 
d="M163 -15q-25 0 -42 17.5t-17 41.5q0 25 17 42t42 17q24 0 41 -17t17 -42q0 -24 -17 -41.5t-41 -17.5zM181 192h-38q-53 47 -53 105q0 47 28 72t84 48q43 18 62.5 34t19.5 38q0 34 -37.5 52.5t-105.5 18.5q-40 0 -67 -8q-9 14 -9 36q0 23 20 37.5t54 14.5q87 0 138 -46
t51 -113q0 -53 -25.5 -85t-79.5 -53q-45 -18 -62 -33.5t-17 -40.5q0 -37 37 -77z" />
    <glyph glyph-name="at" unicode="@" horiz-adv-x="934" 
d="M598 -98l12 -39q-78 -26 -150 -26q-173 0 -291.5 116t-118.5 286q0 181 125 308.5t310 127.5q174 0 286.5 -95.5t112.5 -259.5q0 -117 -72 -204.5t-179 -87.5q-123 0 -123 99q0 33 19 85h-7q-48 -87 -85.5 -122.5t-87.5 -35.5q-46 0 -75 34.5t-29 96.5q0 117 75 212
t169 95q73 0 97 -79h6l22 61h72l-99 -279q-12 -35 -12 -60q0 -31 17 -47.5t47 -16.5q85 0 144.5 75.5t59.5 173.5q0 144 -97 229t-261 85q-167 0 -280.5 -114t-113.5 -281q0 -153 106.5 -257t262.5 -104q65 0 138 24zM569 358q-15 75 -77 75t-114 -76t-52 -159q0 -75 55 -75
q75 0 188 235z" />
    <glyph glyph-name="A" unicode="A" horiz-adv-x="545" 
d="M525 0h-87l-69 213h-232l-70 -213h-47l194 581v28l96 33zM355 254l-98 299h-7l-99 -299h204z" />
    <glyph glyph-name="B" unicode="B" horiz-adv-x="548" 
d="M254 -3l-174 4v623l178 4q115 3 168 -38.5t53 -104.5q0 -56 -38.5 -99.5t-100.5 -59.5v-4q77 -12 118 -53t41 -98q0 -84 -65 -130.5t-180 -43.5zM162 341h85q69 0 108 36.5t39 84.5q0 124 -162 124h-70v-245zM162 39h97q72 0 113.5 36t41.5 97q0 56 -49 92.5t-127 36.5
h-76v-262z" />
    <glyph glyph-name="C" unicode="C" horiz-adv-x="621" 
d="M540 74l22 -39q-81 -50 -182 -50q-147 0 -241.5 91.5t-94.5 233.5q0 138 94 234t239 96q116 0 204 -59l-33 -56q-72 74 -176 74t-172.5 -75.5t-68.5 -203.5q0 -131 74.5 -212t182.5 -81q88 0 152 47z" />
    <glyph glyph-name="D" unicode="D" horiz-adv-x="632" 
d="M241 -3l-161 4v623l164 4q151 4 247.5 -84t96.5 -223q0 -139 -94.5 -233.5t-252.5 -90.5zM162 40h92q112 0 179.5 72.5t67.5 190.5q0 128 -74.5 205t-200.5 77h-64v-545z" />
    <glyph glyph-name="E" unicode="E" horiz-adv-x="508" 
d="M458 0h-378v625h378v-58q-66 17 -170 17h-127v-246h216v-41h-216v-256h127q104 0 170 17v-58z" />
    <glyph glyph-name="F" unicode="F" horiz-adv-x="494" 
d="M161 0h-81v625h376v-58q-66 17 -170 17h-125v-251h219v-41h-219v-292z" />
    <glyph glyph-name="G" unicode="G" horiz-adv-x="631" 
d="M485 44v227h81v-234q-82 -52 -187 -52q-147 0 -241 91t-94 233q0 138 94 234.5t239 96.5q116 0 204 -59l-33 -56q-72 74 -176 74t-172.5 -75.5t-68.5 -203.5q0 -133 74 -213t182 -80q49 0 98 17z" />
    <glyph glyph-name="H" unicode="H" horiz-adv-x="634" 
d="M554 0h-82v301h-310v-301h-82v625h82v-283h310v283h82v-625z" />
    <glyph glyph-name="I" unicode="I" horiz-adv-x="242" 
d="M162 0h-82v625h82v-625z" />
    <glyph glyph-name="J" unicode="J" horiz-adv-x="457" 
d="M299 179v446h80v-421q0 -111 -51 -165t-136 -54q-118 0 -180 102l46 51l9 -19q40 -93 120 -93q53 0 82.5 39t29.5 114z" />
    <glyph glyph-name="K" unicode="K" horiz-adv-x="571" 
d="M546 0h-99l-213 310l-72 -73v-237h-82v625h82v-326l318 326h65l-256 -259z" />
    <glyph glyph-name="L" unicode="L" horiz-adv-x="486" 
d="M456 0h-376v625h81v-584h125q101 0 170 16v-57z" />
    <glyph glyph-name="M" unicode="M" horiz-adv-x="778" 
d="M706 0h-82l-20 551h-10l-200 -528h-44l-199 528h-10l-21 -551h-48l23 625h112l178 -478h8l178 478h112z" />
    <glyph glyph-name="N" unicode="N" horiz-adv-x="638" 
d="M558 3l-88 -8l-338 536h-4v-531h-48v621l89 8l336 -535h5v531h48v-622z" />
    <glyph glyph-name="O" unicode="O" horiz-adv-x="729" 
d="M364 -15q-138 0 -229 90.5t-91 232.5q0 137 93 234.5t228 97.5q138 0 229 -90.5t91 -232.5q0 -137 -93 -234.5t-228 -97.5zM366 25q99 0 165 76t66 205q0 132 -68.5 213t-167.5 81t-164.5 -75.5t-65.5 -204.5q0 -132 68.5 -213.5t166.5 -81.5z" />
    <glyph glyph-name="P" unicode="P" horiz-adv-x="524" 
d="M162 0h-82v625l170 3q114 2 176 -48.5t62 -123.5q0 -98 -69 -152t-174 -54q-31 0 -83 4v-254zM249 585h-87v-288q32 -7 81 -7q68 0 113 40.5t45 107.5q0 65 -42 106t-110 41z" />
    <glyph glyph-name="Q" unicode="Q" horiz-adv-x="729" 
d="M649 -197l-233 186q-21 -4 -53 -4q-137 0 -228 90.5t-91 232.5q0 137 93.5 234.5t227.5 97.5q138 0 229 -90.5t91 -232.5q0 -106 -59 -191.5t-154 -121.5l207 -161zM366 25q99 0 165 76t66 205q0 132 -68.5 213t-167.5 81t-164.5 -75.5t-65.5 -204.5q0 -132 68.5 -213.5
t166.5 -81.5z" />
    <glyph glyph-name="R" unicode="R" horiz-adv-x="548" 
d="M521 0h-95l-167 268l-97 4v-272h-82v624l179 4q112 3 169 -42.5t57 -117.5q0 -66 -39.5 -112t-108.5 -67zM247 585h-85v-268q24 -5 74 -5q73 0 118 36t45 101t-39.5 100.5t-112.5 35.5z" />
    <glyph glyph-name="S" unicode="S" horiz-adv-x="514" 
d="M52 27l20 62q86 -65 170 -65q73 0 112 34.5t39 85.5q0 48 -34.5 79.5t-129.5 64.5q-92 31 -135.5 74.5t-43.5 109.5q0 72 55 120t158 48q104 0 182 -37l-19 -62q-31 26 -76.5 42.5t-93.5 16.5q-64 0 -101 -31t-37 -76q0 -48 37 -79t124 -61q100 -34 142.5 -77t42.5 -111
q0 -77 -60.5 -128.5t-166.5 -51.5t-185 42z" />
    <glyph glyph-name="T" unicode="T" horiz-adv-x="560" 
d="M321 0h-82v584h-52q-93 0 -159 -17v58h504v-58q-66 17 -159 17h-52v-584z" />
    <glyph glyph-name="U" unicode="U" horiz-adv-x="618" 
d="M493 212v413h49v-419q0 -101 -64.5 -161t-169.5 -60q-106 0 -169 59.5t-63 167.5v413h82v-402q0 -91 47 -136.5t124 -45.5q74 0 119 46.5t45 124.5z" />
    <glyph glyph-name="V" unicode="V" horiz-adv-x="563" 
d="M322 -3h-81l-219 628h87l187 -550h8l189 550h48z" />
    <glyph glyph-name="W" unicode="W" horiz-adv-x="856" 
d="M635 -3h-60l-146 415h-5l-143 -415h-60l-199 628h87l161 -526h4l132 384l-50 142h85l177 -526h4l164 526h48z" />
    <glyph glyph-name="X" unicode="X" horiz-adv-x="581" 
d="M558 0h-97l-184 273l-195 -273h-59l225 306l-218 319h97l176 -262l190 262h58l-219 -295z" />
    <glyph glyph-name="Y" unicode="Y" horiz-adv-x="562" 
d="M323 0h-82v264l-219 361h93l182 -308h8l184 308h51l-217 -361v-264z" />
    <glyph glyph-name="Z" unicode="Z" horiz-adv-x="547" 
d="M499 0h-467v33l381 551h-188q-109 0 -170 -17v58h460v-34l-381 -550h195q101 0 170 16v-57z" />
    <glyph glyph-name="bracketleft" unicode="[" horiz-adv-x="341" 
d="M311 -185h-231v911h231v-42h-181v-827h181v-42z" />
    <glyph glyph-name="backslash" unicode="\" horiz-adv-x="285" 
d="M272 -177h-42l-217 877h42z" />
    <glyph glyph-name="bracketright" unicode="]" horiz-adv-x="341" 
d="M261 -185h-231v42h181v827h-181v42h231v-911z" />
    <glyph glyph-name="asciicircum" unicode="^" horiz-adv-x="419" 
d="M369 520h-39l-116 130h-8l-117 -130h-38l125 197h68z" />
    <glyph glyph-name="underscore" unicode="_" horiz-adv-x="450" 
d="M460 -159h-470v44h470v-44z" />
    <glyph glyph-name="grave" unicode="`" horiz-adv-x="400" 
d="M248 534h-33l-149 177h92z" />
    <glyph glyph-name="a" unicode="a" horiz-adv-x="455" 
d="M389 0h-72v68h-4q-61 -83 -152 -83q-51 0 -88 35t-37 86q0 66 64 108.5t201 76.5l16 4q0 72 -22 104.5t-71 32.5q-77 0 -128 -80l-35 50q81 71 173 71q83 0 119 -46t36 -138v-289zM317 123v135l-22 -6q-182 -49 -182 -133q0 -35 22 -58t54 -23q67 0 128 85z" />
    <glyph glyph-name="b" unicode="b" horiz-adv-x="514" 
d="M138 17l-66 -27v685l72 22v-296h4q59 72 146 72q84 0 132 -64.5t48 -165.5q0 -108 -60 -179.5t-164 -71.5q-57 0 -112 25zM144 340v-272q47 -36 101 -36q67 0 109 55t42 141q0 88 -35.5 139t-99.5 51q-70 0 -117 -78z" />
    <glyph glyph-name="c" unicode="c" horiz-adv-x="466" 
d="M391 72l22 -35q-62 -52 -153 -52q-95 0 -157.5 66.5t-62.5 172.5q0 109 62.5 179t166.5 70q96 0 159 -53l-31 -51q-58 64 -128 64q-69 0 -110 -55.5t-41 -146.5q0 -87 45 -144t120 -57q60 0 108 42z" />
    <glyph glyph-name="d" unicode="d" horiz-adv-x="514" 
d="M442 0h-72v58h-4q-58 -73 -146 -73q-84 0 -132 64.5t-48 165.5q0 108 60 179.5t164 71.5q58 0 106 -24v233l72 22v-697zM370 118v272q-45 36 -101 36q-67 0 -109 -55t-42 -141q0 -87 35.5 -138.5t99.5 -51.5q70 0 117 78z" />
    <glyph glyph-name="e" unicode="e" horiz-adv-x="478" 
d="M391 72l21 -35q-62 -52 -153 -52q-95 0 -157 66.5t-62 172.5q0 107 63 178t159 71q81 0 128.5 -50t47.5 -123q0 -26 -3 -47h-316q-1 -8 -1 -24q0 -87 44.5 -143t119.5 -56q59 0 109 42zM123 291h239q0 68 -28.5 105t-77.5 37q-44 0 -81.5 -38t-51.5 -104z" />
    <glyph glyph-name="f" unicode="f" horiz-adv-x="379" 
d="M167 0h-72v416h-75v42h75v40q0 102 42.5 150.5t117.5 48.5q60 0 114 -35l-26 -55q-14 20 -37.5 35t-49.5 15q-41 0 -65 -32t-24 -96v-71h139v-42h-139v-416z" />
    <glyph glyph-name="g" unicode="g" 
d="M111 -23v4q-26 6 -43.5 27t-17.5 47q0 68 80 100v4q-39 19 -62.5 55.5t-23.5 85.5q0 73 53.5 123t132.5 50q51 0 87 -15h178v-42l-124 3v-7q38 -52 38 -103q0 -72 -52.5 -121t-131.5 -49q-30 0 -53 5q-54 -23 -54 -57q0 -20 17.5 -33.5t45.5 -13.5q23 0 64 2t62 2
q73 0 113.5 -35.5t40.5 -97.5q0 -80 -71 -127t-177 -47q-93 0 -145 32.5t-52 88.5q0 81 95 119zM164 -29q-32 -12 -53.5 -36t-21.5 -58q0 -48 37.5 -74.5t105.5 -26.5q67 0 114 31.5t47 80.5q0 87 -112 87q-18 0 -55 -2t-62 -2zM226 177q49 0 78.5 34.5t29.5 87.5
q0 61 -29.5 98.5t-75.5 37.5q-49 0 -78.5 -34.5t-29.5 -87.5q0 -61 29.5 -98.5t75.5 -37.5z" />
    <glyph glyph-name="h" unicode="h" horiz-adv-x="505" 
d="M439 0h-72v297q0 63 -23.5 90.5t-70.5 27.5q-31 0 -66 -21.5t-63 -53.5v-340h-72v675l72 22v-302h5q78 78 159 78q64 0 97.5 -40t33.5 -108v-325z" />
    <glyph glyph-name="i" unicode="i" horiz-adv-x="216" 
d="M144 0h-72v448l72 22v-470zM108 561q-22 0 -37 16t-15 39t15 39.5t37 16.5t37 -16.5t15 -39.5t-15 -39t-37 -16z" />
    <glyph glyph-name="j" unicode="j" horiz-adv-x="216" 
d="M72 -110v558l72 22v-521q0 -111 -38 -160.5t-117 -49.5q-41 0 -83 19l16 62q32 -40 75 -40q36 0 55.5 28.5t19.5 81.5zM108 561q-22 0 -37 16t-15 39t15 39.5t37 16.5t37 -16.5t15 -39.5t-15 -39t-37 -16z" />
    <glyph glyph-name="k" unicode="k" horiz-adv-x="467" 
d="M442 0h-83l-153 243l-62 -56v-187h-72v676l72 21v-459l237 220h61l-185 -169z" />
    <glyph glyph-name="l" unicode="l" horiz-adv-x="216" 
d="M144 0h-72v675l72 22v-697z" />
    <glyph glyph-name="m" unicode="m" horiz-adv-x="781" 
d="M715 0h-72v296q0 64 -22 91.5t-68 27.5q-58 0 -124 -76v-339h-72v296q0 64 -22 91.5t-67 27.5q-62 0 -124 -75v-340h-72v447l72 23v-75h5q75 78 154 78q46 0 77 -24t42 -67q83 91 166 91q61 0 94 -40t33 -108v-325z" />
    <glyph glyph-name="n" unicode="n" horiz-adv-x="505" 
d="M439 0h-72v297q0 64 -23 91t-71 27q-31 0 -66 -21.5t-63 -53.5v-340h-72v448l72 22v-75h5q78 78 159 78q64 0 97.5 -39.5t33.5 -108.5v-325z" />
    <glyph glyph-name="o" unicode="o" horiz-adv-x="530" 
d="M261 -15q-101 0 -161 66t-60 173q0 109 62.5 179t166.5 70q101 0 161 -66t60 -173q0 -109 -62.5 -179t-166.5 -70zM268 25q63 0 103.5 52.5t40.5 144.5q0 102 -43.5 156.5t-107.5 54.5q-63 0 -103 -52.5t-40 -144.5q0 -102 43 -156.5t107 -54.5z" />
    <glyph glyph-name="p" unicode="p" horiz-adv-x="514" 
d="M144 -246h-72v694l72 22v-69h4q59 72 146 72q84 0 132 -64.5t48 -165.5q0 -108 -60 -179.5t-164 -71.5q-58 0 -106 24v-262zM144 340v-272q45 -36 101 -36q67 0 109 55t42 141q0 88 -35.5 139t-99.5 51q-70 0 -117 -78z" />
    <glyph glyph-name="q" unicode="q" horiz-adv-x="514" 
d="M442 -246h-72v303h-4q-59 -72 -146 -72q-84 0 -132 64.5t-48 165.5q0 108 60 179.5t164 71.5q59 0 111 -25l67 28v-715zM370 118v272q-45 36 -101 36q-67 0 -109 -55t-42 -141q0 -87 35.5 -138.5t99.5 -51.5q70 0 117 78z" />
    <glyph glyph-name="r" unicode="r" horiz-adv-x="358" 
d="M144 0h-72v448l72 22v-89h5q43 92 123 92q35 0 66 -17l-16 -72q-32 32 -66 32q-39 0 -69 -39t-43 -113v-264z" />
    <glyph glyph-name="s" unicode="s" horiz-adv-x="408" 
d="M44 19l26 56q52 -50 118 -50q51 0 82 21.5t31 58.5q0 32 -28.5 54.5t-96.5 44.5q-70 22 -102 54.5t-32 84.5q0 54 44.5 92t122.5 38q83 0 144 -36l-24 -56q-56 52 -126 52q-44 0 -70 -18.5t-26 -50.5t25.5 -53t90.5 -43q79 -27 111 -58.5t32 -81.5q0 -61 -46.5 -102
t-131.5 -41q-78 0 -144 34z" />
    <glyph glyph-name="t" unicode="t" horiz-adv-x="346" 
d="M304 75l20 -37q-48 -53 -117 -53q-112 0 -112 140v291h-75v42h75v135l72 22v-157h144v-42h-144v-301q0 -81 58 -81q41 0 79 41z" />
    <glyph glyph-name="u" unicode="u" horiz-adv-x="505" 
d="M433 0h-72v63h-5q-76 -78 -159 -78q-64 0 -97.5 39.5t-33.5 108.5v325h72v-297q0 -63 23.5 -90.5t70.5 -27.5q32 0 66.5 21t62.5 54v340h72v-458z" />
    <glyph glyph-name="v" unicode="v" horiz-adv-x="459" 
d="M255 -2h-52l-183 460h79l146 -380l147 380h47z" />
    <glyph glyph-name="w" unicode="w" horiz-adv-x="688" 
d="M507 -2h-48l-113 301l-117 -301h-47l-162 460h78l127 -371l101 265l-40 106h77l132 -372l126 372h47z" />
    <glyph glyph-name="x" unicode="x" horiz-adv-x="465" 
d="M445 0h-87l-136 192l-147 -192h-55l173 222l-166 236h87l128 -184l142 184h54l-167 -214z" />
    <glyph glyph-name="y" unicode="y" horiz-adv-x="457" 
d="M175 -132l46 126l-201 464h80l156 -372l134 372h47l-224 -606q-22 -60 -52 -86.5t-73 -26.5q-37 0 -65 14l17 74q31 -37 60 -37q26 0 43 18t32 60z" />
    <glyph glyph-name="z" unicode="z" horiz-adv-x="447" 
d="M410 0h-376v31l284 387h-105q-105 0 -161 -15v55h359v-31l-284 -387h121q105 0 162 15v-55z" />
    <glyph glyph-name="braceleft" unicode="{" horiz-adv-x="323" 
d="M283 -147v-39q-90 5 -138 44.5t-48 106.5q0 45 28 105t28 93q0 38 -37 57t-91 22v54q128 8 128 79q0 32 -28 93t-28 106q0 67 48 106.5t138 44.5v-39q-57 -6 -87.5 -31.5t-30.5 -62.5q0 -32 27.5 -91t27.5 -104q0 -48 -41 -85t-87 -39v-9q45 -3 86.5 -39.5t41.5 -83.5
q0 -44 -27.5 -102t-27.5 -90q0 -37 30.5 -64t87.5 -32z" />
    <glyph glyph-name="bar" unicode="|" horiz-adv-x="246" 
d="M142 -157h-39v877h39v-877z" />
    <glyph glyph-name="braceright" unicode="}" horiz-adv-x="323" 
d="M40 -186v39q56 5 87 32.5t31 63.5q0 32 -27.5 90t-27.5 102q0 48 41 84t87 39v9q-46 2 -87 39t-41 85q0 45 27.5 104t27.5 91q0 37 -30.5 62.5t-87.5 31.5v39q90 -5 138 -44.5t48 -106.5q0 -45 -28 -106t-28 -93q0 -71 128 -79v-54q-128 -8 -128 -79q0 -33 28 -93
t28 -105q0 -67 -48 -106.5t-138 -44.5z" />
    <glyph glyph-name="asciitilde" unicode="~" horiz-adv-x="408" 
d="M341 310h35q-22 -118 -108 -118q-27 0 -54 17.5t-49 35t-38 17.5q-44 0 -61 -62h-35q22 118 107 118q28 0 55.5 -18t49.5 -35.5t38 -17.5q43 0 60 63z" />
    <glyph glyph-name="nbspace" unicode="&#xa0;" horiz-adv-x="242" 
 />
    <glyph glyph-name="exclamdown" unicode="&#xa1;" horiz-adv-x="281" 
d="M197 580q0 -24 -17 -41.5t-42 -17.5q-24 0 -41 17.5t-17 41.5q0 25 17 42.5t41 17.5q25 0 42 -17.5t17 -42.5zM123 431h32q6 -68 17 -204t17 -204v-5q0 -33 -50 -33q-51 0 -51 32q0 1 0.5 3t0.5 3q22 272 34 408z" />
    <glyph glyph-name="cent" unicode="&#xa2;" horiz-adv-x="478" 
d="M193 -119h-38l40 165q-64 23 -102 79.5t-38 134.5q0 103 63 170t167 67q15 0 22 -1l38 153h38l-39 -158q57 -11 99 -46l-33 -52q-41 43 -77 55l-89 -361q24 -9 54 -9q59 0 107 39l22 -36q-62 -49 -152 -49q-25 0 -44 4zM210 103l86 352q-3 1 -12 1q-69 0 -110 -52
t-41 -138q0 -114 77 -163z" />
    <glyph glyph-name="sterling" unicode="&#xa3;" horiz-adv-x="472" 
d="M407 0h-340v82q81 53 81 162q0 28 -5 55h-93v39h83q-2 5 -8 22.5t-8.5 26t-6.5 23.5t-5.5 28.5t-1.5 28.5q0 81 47 127t121 46q84 0 143 -48l-36 -54q-31 62 -101 62q-47 0 -73 -30.5t-26 -85.5q0 -28 5.5 -52.5t15.5 -53t13 -40.5h130v-39h-121q0 -5 0.5 -15t0.5 -16
q0 -60 -22.5 -105t-79.5 -89h287v-74z" />
    <glyph glyph-name="currency" unicode="&#xa4;" horiz-adv-x="496" 
d="M436 114l-84 85q-46 -35 -104 -35q-57 0 -103 35l-85 -85l-30 31l84 85q-35 45 -35 103t35 103l-84 85l30 31l85 -85q46 35 103 35q58 0 104 -35l84 85l31 -31l-85 -85q35 -45 35 -103t-35 -103l85 -85zM367 333q0 50 -35 85t-84 35t-83.5 -35t-34.5 -85t34.5 -84.5
t83.5 -34.5q50 0 84.5 35t34.5 84z" />
    <glyph glyph-name="yen" unicode="&#xa5;" horiz-adv-x="505" 
d="M444 132h-154v-132h-75v132h-154v39h154v91h-154v39h139l-164 324h83l152 -300l148 300h49l-163 -324h139v-39h-154v-91h154v-39z" />
    <glyph glyph-name="brokenbar" unicode="&#xa6;" horiz-adv-x="246" 
d="M142 305h-39v335h39v-335zM142 -137h-39v335h39v-335z" />
    <glyph glyph-name="section" unicode="&#xa7;" horiz-adv-x="467" 
d="M70 -76l28 57q52 -60 124 -60q45 0 71 22t26 58t-27.5 63.5t-96.5 61.5q-82 41 -114 76.5t-32 84.5q0 79 75 120q-36 41 -36 96q0 61 44 99t119 38q85 0 146 -43l-27 -57q-52 60 -125 60q-44 0 -70 -22.5t-26 -58.5q0 -37 27 -64.5t95 -60.5q83 -42 115 -77t32 -84
q0 -76 -76 -119q38 -39 38 -96q0 -62 -44.5 -99.5t-119.5 -37.5q-86 0 -146 43zM322 134q37 27 37 70q0 41 -27.5 69t-100.5 62q-53 24 -86 52q-37 -26 -37 -69q0 -42 28 -70t101 -62q54 -26 85 -52z" />
    <glyph glyph-name="dieresis" unicode="&#xa8;" horiz-adv-x="400" 
d="M105 560q-22 0 -37.5 16t-15.5 38q0 23 15.5 39t37.5 16t37.5 -16t15.5 -39t-15.5 -38.5t-37.5 -15.5zM295 560q-23 0 -38.5 16t-15.5 38q0 23 15.5 39t38.5 16q22 0 37.5 -16t15.5 -39q0 -22 -15.5 -38t-37.5 -16z" />
    <glyph glyph-name="copyright" unicode="&#xa9;" horiz-adv-x="800" 
d="M400 -41q-147 0 -250 103t-103 250t103 250.5t250 103.5t250 -103.5t103 -250.5t-103 -250t-250 -103zM400 -4q129 0 220.5 93t91.5 223t-91.5 223.5t-220.5 93.5t-220.5 -93.5t-91.5 -223.5t91.5 -223t220.5 -93zM513 177l16 -31q-52 -33 -114 -33q-91 0 -148 55.5
t-57 141.5q0 83 58.5 142t144.5 59q76 0 131 -38l-27 -47q-41 49 -105 49q-57 0 -96.5 -43t-39.5 -116q0 -76 42 -120t107 -44q46 0 88 25z" />
    <glyph glyph-name="ordfeminine" unicode="&#xaa;" horiz-adv-x="363" 
d="M301 294h-60v52h-5q-44 -63 -103 -63q-39 0 -67 26.5t-28 64.5q0 46 41 75.5t133 55.5l29 8q0 91 -68 91q-53 0 -95 -60l-27 44q59 52 136 52q114 0 114 -132v-214zM241 394v88q-72 -14 -105.5 -41.5t-33.5 -56.5q0 -24 15 -39.5t37 -15.5q43 0 87 65z" />
    <glyph glyph-name="guillemotleft" unicode="&#xab;" horiz-adv-x="587" 
d="M284 59l-249 175v47l249 175l18 -25l-183 -174l183 -173zM524 59l-249 175v47l249 175l18 -25l-183 -174l183 -173z" />
    <glyph glyph-name="logicalnot" unicode="&#xac;" 
d="M436 123h-47v163h-347v46h394v-209z" />
    <glyph glyph-name="uni00AD" unicode="&#xad;" horiz-adv-x="328" 
d="M273 243h-218v48h218v-48z" />
    <glyph glyph-name="registered" unicode="&#xae;" horiz-adv-x="593" 
d="M296 126q-107 0 -181.5 75t-74.5 182t75 182t181 75t181 -75t75 -182t-74.5 -182t-181.5 -75zM296 156q94 0 159.5 66.5t65.5 160.5q0 93 -66 160t-159 67t-159.5 -67t-66.5 -160q0 -94 66 -160.5t160 -66.5zM405 250h-54l-61 108l-36 2v-110h-46v267l84 1q99 1 99 -71
q0 -55 -57 -75zM274 491h-20v-104q18 -2 30 -2q27 0 42 14t15 38q0 54 -67 54z" />
    <glyph glyph-name="macron" unicode="&#xaf;" horiz-adv-x="400" 
d="M326 593h-252v43h252v-43z" />
    <glyph glyph-name="degree" unicode="&#xb0;" horiz-adv-x="400" 
d="M200 338q-68 0 -109 43.5t-41 106.5q0 64 41 108t109 44t109 -44t41 -108q0 -63 -41 -106.5t-109 -43.5zM200 383q44 0 71 30.5t27 74.5q0 46 -26.5 76.5t-71.5 30.5t-71.5 -30.5t-26.5 -76.5q0 -44 26.5 -74.5t71.5 -30.5z" />
    <glyph glyph-name="plusminus" unicode="&#xb1;" 
d="M450 249h-178v-153h-44v153h-178v44h178v165h44v-165h178v-44zM450 0h-400v46h400v-46z" />
    <glyph glyph-name="twosuperior" unicode="&#xb2;" horiz-adv-x="342" 
d="M304 273h-264v33q23 23 69 64t67 61.5t40 53.5t19 64q0 29 -20 46.5t-57 17.5q-52 0 -104 -46l-20 25q67 70 147 70q57 0 90.5 -30t33.5 -82q0 -45 -45.5 -96.5t-141.5 -117.5v-5h186v-58z" />
    <glyph glyph-name="threesuperior" unicode="&#xb3;" horiz-adv-x="342" 
d="M40 298l27 45q34 -46 90 -46q35 0 58.5 21.5t23.5 54.5t-20.5 51t-55.5 18q-27 0 -52 -11l-11 28q61 30 88.5 54t27.5 54q0 22 -15.5 35t-45.5 13q-49 0 -97 -41l-21 25q68 63 147 63q43 0 72.5 -22t29.5 -56q0 -56 -90 -103v-4q46 5 79.5 -21t33.5 -71
q0 -50 -45.5 -86.5t-106.5 -36.5q-70 0 -117 36z" />
    <glyph glyph-name="acute" unicode="&#xb4;" horiz-adv-x="400" 
d="M185 534h-33l90 177h92z" />
    <glyph glyph-name="mu" unicode="&#xb5;" horiz-adv-x="503" 
d="M435 0h-72v63h-5q-37 -41 -67.5 -59.5t-69.5 -18.5q-70 0 -103 53v-284h-50v704h72v-297q0 -63 23.5 -90.5t70.5 -27.5q32 0 66.5 21t62.5 54v340h72v-458z" />
    <glyph glyph-name="paragraph" unicode="&#xb6;" horiz-adv-x="480" 
d="M400 -32h-51v314q-46 -13 -86 -13q-108 0 -165 50t-57 128q0 86 56 132t154 46h149v-657z" />
    <glyph glyph-name="periodcentered" unicode="&#xb7;" horiz-adv-x="226" 
d="M113 206q-24 0 -41.5 17.5t-17.5 42.5q0 24 17.5 41.5t41.5 17.5t41.5 -17.5t17.5 -41.5q0 -25 -17.5 -42.5t-41.5 -17.5z" />
    <glyph glyph-name="cedilla" unicode="&#xb8;" horiz-adv-x="400" 
d="M91 -275v33q156 0 156 69q0 25 -24 38.5t-68 13.5q-38 0 -67 -5v23l112 116h41l-81 -84q67 3 109 -21t42 -67q0 -53 -53.5 -84.5t-166.5 -31.5z" />
    <glyph glyph-name="onesuperior" unicode="&#xb9;" horiz-adv-x="342" 
d="M227 273h-66v314h-86v28l152 46v-388z" />
    <glyph glyph-name="ordmasculine" unicode="&#xba;" horiz-adv-x="390" 
d="M188 283q-69 0 -108.5 50.5t-39.5 124.5q0 76 46.5 129t116.5 53q68 0 107.5 -51t39.5 -125q0 -76 -46 -128.5t-116 -52.5zM197 318q39 0 64.5 36t25.5 95q0 80 -22 118t-72 38q-40 0 -64.5 -36t-24.5 -95q0 -80 21.5 -118t71.5 -38z" />
    <glyph glyph-name="guillemotright" unicode="&#xbb;" horiz-adv-x="587" 
d="M552 234l-249 -175l-18 25l183 173l-183 174l18 25l249 -175v-47zM312 234l-249 -175l-18 25l183 173l-183 174l18 25l249 -175v-47z" />
    <glyph glyph-name="onequarter" unicode="&#xbc;" horiz-adv-x="725" 
d="M205 273h-66v314h-86v28l152 46v-388zM131 -116h-47l535 741h47zM647 -143h-66v92h-173l-6 37l194 252h51v-243h54v-46h-54v-92zM581 -5v167h-3l-128 -167h131z" />
    <glyph glyph-name="onehalf" unicode="&#xbd;" horiz-adv-x="725" 
d="M105 -116h-48l535 741h48zM685 -143h-265v33q23 23 69 64t67.5 62t40.5 53.5t19 64.5q0 28 -20.5 45t-57.5 17q-54 0 -103 -45l-21 25q68 70 147 70q58 0 91 -30t33 -82q0 -46 -45.5 -97t-141.5 -117v-5h187v-58zM202 273h-66v314h-86v28l152 46v-388z" />
    <glyph glyph-name="threequarters" unicode="&#xbe;" horiz-adv-x="725" 
d="M154 -116h-47l535 741h47zM50 298l27 45q34 -46 90 -46q35 0 58.5 21.5t23.5 54.5t-20.5 51t-55.5 18q-27 0 -52 -11l-11 28q61 30 88.5 54t27.5 54q0 22 -15.5 35t-45.5 13q-49 0 -97 -41l-21 25q68 63 147 63q43 0 72.5 -22t29.5 -56q0 -56 -90 -103v-4q46 5 79.5 -21
t33.5 -71q0 -50 -45.5 -86.5t-106.5 -36.5q-70 0 -117 36zM651 -143h-66v92h-173l-6 37l194 252h51v-243h54v-46h-54v-92zM585 -5v167h-3l-128 -167h131z" />
    <glyph glyph-name="questiondown" unicode="&#xbf;" horiz-adv-x="362" 
d="M181 433h35q55 -51 55 -105q0 -34 -20 -59t-48.5 -40t-57.5 -28t-49 -29t-20 -36q0 -35 38.5 -55t105.5 -20q40 0 67 8q9 -12 9 -33q0 -23 -20 -37t-53 -14q-85 0 -137.5 46t-52.5 113q0 52 26 81.5t79 50.5q45 18 62.5 35t17.5 41q0 41 -37 81zM199 521
q-24 0 -41.5 17.5t-17.5 41.5q0 25 17.5 42.5t41.5 17.5t41.5 -17.5t17.5 -42.5q0 -24 -17.5 -41.5t-41.5 -17.5z" />
    <glyph glyph-name="Agrave" unicode="&#xc0;" horiz-adv-x="545" 
d="M525 0h-87l-69 213h-232l-70 -213h-47l194 581v28l96 33zM355 254l-98 299h-7l-99 -299h204zM290 699h-33l-149 177h92z" />
    <glyph glyph-name="Aacute" unicode="&#xc1;" horiz-adv-x="545" 
d="M525 0h-87l-69 213h-232l-70 -213h-47l194 581v28l96 33zM355 254l-98 299h-7l-99 -299h204zM290 699h-33l90 177h92z" />
    <glyph glyph-name="Acircumflex" unicode="&#xc2;" horiz-adv-x="545" 
d="M525 0h-87l-69 213h-232l-70 -213h-47l194 581v28l96 33zM355 254l-98 299h-7l-99 -299h204zM431 699h-38l-117 130h-8l-117 -130h-38l125 197h68z" />
    <glyph glyph-name="Atilde" unicode="&#xc3;" horiz-adv-x="545" 
d="M525 0h-87l-69 213h-232l-70 -213h-47l194 581v28l96 33zM355 254l-98 299h-7l-99 -299h204zM410 846h35q-21 -118 -108 -118q-27 0 -54 17.5t-49 35t-38 17.5q-44 0 -61 -63h-35q21 118 107 118q28 0 55.5 -17.5t49.5 -35t38 -17.5q43 0 60 63z" />
    <glyph glyph-name="Adieresis" unicode="&#xc4;" horiz-adv-x="545" 
d="M525 0h-87l-69 213h-232l-70 -213h-47l194 581v28l96 33zM355 254l-98 299h-7l-99 -299h204zM177 725q-22 0 -37.5 16t-15.5 38q0 23 15.5 39t37.5 16t37.5 -16t15.5 -39t-15.5 -38.5t-37.5 -15.5zM367 725q-23 0 -38.5 15.5t-15.5 38.5t15.5 39t38.5 16q22 0 37.5 -16
t15.5 -39q0 -22 -15.5 -38t-37.5 -16z" />
    <glyph glyph-name="Aring" unicode="&#xc5;" horiz-adv-x="545" 
d="M525 0h-87l-69 213h-232l-70 -213h-47l196 587q-54 29 -54 98q0 47 30 79t80 32t80 -32t30 -79q0 -68 -54 -98zM355 254l-98 299h-7l-99 -299h204zM272 610q31 0 50.5 22.5t19.5 52.5t-19.5 52.5t-50.5 22.5q-32 0 -51.5 -23t-19.5 -52t19.5 -52t51.5 -23z" />
    <glyph glyph-name="AE" unicode="&#xc6;" horiz-adv-x="823" 
d="M773 0h-379v206h-217l-116 -206h-53l349 625h416v-58q-66 17 -170 17h-127v-246h216v-41h-216v-256h127q104 0 170 17v-58zM394 247v337h-7l-188 -337h195z" />
    <glyph glyph-name="Ccedilla" unicode="&#xc7;" horiz-adv-x="621" 
d="M261 -275v33q156 0 156 69q0 25 -24 38.5t-68 13.5q-38 0 -67 -5v23l86 90q-133 11 -216.5 100.5t-83.5 222.5q0 138 94 234t239 96q116 0 204 -59l-33 -56q-72 74 -176 74t-172.5 -75.5t-68.5 -203.5q0 -131 74.5 -212t182.5 -81q88 0 152 47l22 -39q-76 -48 -178 -50
l-54 -56q67 3 109 -21t42 -67q0 -53 -53.5 -84.5t-166.5 -31.5z" />
    <glyph glyph-name="Egrave" unicode="&#xc8;" horiz-adv-x="508" 
d="M458 0h-378v625h378v-58q-66 17 -170 17h-127v-246h216v-41h-216v-256h127q104 0 170 17v-58zM328 699h-33l-149 177h92z" />
    <glyph glyph-name="Eacute" unicode="&#xc9;" horiz-adv-x="508" 
d="M458 0h-378v625h378v-58q-66 17 -170 17h-127v-246h216v-41h-216v-256h127q104 0 170 17v-58zM280 699h-33l90 177h92z" />
    <glyph glyph-name="Ecircumflex" unicode="&#xca;" horiz-adv-x="508" 
d="M458 0h-378v625h378v-58q-66 17 -170 17h-127v-246h216v-41h-216v-256h127q104 0 170 17v-58zM441 699h-38l-117 130h-8l-117 -130h-38l125 197h68z" />
    <glyph glyph-name="Edieresis" unicode="&#xcb;" horiz-adv-x="508" 
d="M458 0h-378v625h378v-58q-66 17 -170 17h-127v-246h216v-41h-216v-256h127q104 0 170 17v-58zM189 725q-22 0 -37.5 16t-15.5 38q0 23 15.5 39t37.5 16t37.5 -16t15.5 -39t-15.5 -38.5t-37.5 -15.5zM379 725q-23 0 -38.5 15.5t-15.5 38.5t15.5 39t38.5 16q22 0 37.5 -16
t15.5 -39q0 -22 -15.5 -38t-37.5 -16z" />
    <glyph glyph-name="Igrave" unicode="&#xcc;" horiz-adv-x="242" 
d="M162 0h-82v625h82v-625zM144 699h-33l-149 177h92z" />
    <glyph glyph-name="Iacute" unicode="&#xcd;" horiz-adv-x="242" 
d="M162 0h-82v625h82v-625zM131 699h-33l90 177h92z" />
    <glyph glyph-name="Icircumflex" unicode="&#xce;" horiz-adv-x="242" 
d="M162 0h-82v625h82v-625zM280 699h-38l-117 130h-8l-117 -130h-38l125 197h68z" />
    <glyph glyph-name="Idieresis" unicode="&#xcf;" horiz-adv-x="242" 
d="M162 0h-82v625h82v-625zM26 725q-22 0 -37.5 16t-15.5 38q0 23 15.5 39t37.5 16t37.5 -16t15.5 -39t-15.5 -38.5t-37.5 -15.5zM216 725q-22 0 -38 15.5t-16 38.5t15.5 39t38.5 16q22 0 37.5 -16t15.5 -39q0 -22 -15.5 -38t-37.5 -16z" />
    <glyph glyph-name="Eth" unicode="&#xd0;" horiz-adv-x="636" 
d="M245 -3l-161 4v293h-70v39h70v291l164 4q151 4 247.5 -84t96.5 -223q0 -139 -94.5 -233.5t-252.5 -90.5zM166 40h92q112 0 179.5 72.5t67.5 190.5q0 128 -74.5 205t-200.5 77h-64v-252h128v-39h-128v-254z" />
    <glyph glyph-name="Ntilde" unicode="&#xd1;" horiz-adv-x="638" 
d="M558 3l-88 -8l-338 536h-4v-531h-48v621l89 8l336 -535h5v531h48v-622zM465 846h35q-21 -118 -108 -118q-27 0 -54 17.5t-49 35t-38 17.5q-44 0 -61 -63h-35q21 118 107 118q28 0 55.5 -17.5t49.5 -35t38 -17.5q43 0 60 63z" />
    <glyph glyph-name="Ograve" unicode="&#xd2;" horiz-adv-x="729" 
d="M364 -15q-138 0 -229 90.5t-91 232.5q0 137 93 234.5t228 97.5q138 0 229 -90.5t91 -232.5q0 -137 -93 -234.5t-228 -97.5zM366 25q99 0 165 76t66 205q0 132 -68.5 213t-167.5 81t-164.5 -75.5t-65.5 -204.5q0 -132 68.5 -213.5t166.5 -81.5zM385 699h-33l-149 177h92z
" />
    <glyph glyph-name="Oacute" unicode="&#xd3;" horiz-adv-x="729" 
d="M364 -15q-138 0 -229 90.5t-91 232.5q0 137 93 234.5t228 97.5q138 0 229 -90.5t91 -232.5q0 -137 -93 -234.5t-228 -97.5zM366 25q99 0 165 76t66 205q0 132 -68.5 213t-167.5 81t-164.5 -75.5t-65.5 -204.5q0 -132 68.5 -213.5t166.5 -81.5zM372 699h-33l90 177h92z
" />
    <glyph glyph-name="Ocircumflex" unicode="&#xd4;" horiz-adv-x="729" 
d="M364 -15q-138 0 -229 90.5t-91 232.5q0 137 93 234.5t228 97.5q138 0 229 -90.5t91 -232.5q0 -137 -93 -234.5t-228 -97.5zM366 25q99 0 165 76t66 205q0 132 -68.5 213t-167.5 81t-164.5 -75.5t-65.5 -204.5q0 -132 68.5 -213.5t166.5 -81.5zM523 699h-38l-117 130h-8
l-117 -130h-38l125 197h68z" />
    <glyph glyph-name="Otilde" unicode="&#xd5;" horiz-adv-x="729" 
d="M364 -15q-138 0 -229 90.5t-91 232.5q0 137 93 234.5t228 97.5q138 0 229 -90.5t91 -232.5q0 -137 -93 -234.5t-228 -97.5zM366 25q99 0 165 76t66 205q0 132 -68.5 213t-167.5 81t-164.5 -75.5t-65.5 -204.5q0 -132 68.5 -213.5t166.5 -81.5zM502 846h35
q-21 -118 -108 -118q-27 0 -54 17.5t-49 35t-38 17.5q-44 0 -61 -63h-35q21 118 107 118q28 0 55.5 -17.5t49.5 -35t38 -17.5q43 0 60 63z" />
    <glyph glyph-name="Odieresis" unicode="&#xd6;" horiz-adv-x="729" 
d="M364 -15q-138 0 -229 90.5t-91 232.5q0 137 93 234.5t228 97.5q138 0 229 -90.5t91 -232.5q0 -137 -93 -234.5t-228 -97.5zM366 25q99 0 165 76t66 205q0 132 -68.5 213t-167.5 81t-164.5 -75.5t-65.5 -204.5q0 -132 68.5 -213.5t166.5 -81.5zM269 725q-22 0 -37.5 16
t-15.5 38q0 23 15.5 39t37.5 16t37.5 -16t15.5 -39t-15.5 -38.5t-37.5 -15.5zM459 725q-23 0 -38.5 15.5t-15.5 38.5t15.5 39t38.5 16q22 0 37.5 -16t15.5 -39q0 -22 -15.5 -38t-37.5 -16z" />
    <glyph glyph-name="multiply" unicode="&#xd7;" 
d="M451 71l-33 -32l-168 169l-168 -169l-32 32l169 168l-169 168l32 33l168 -169l168 169l33 -33l-170 -168z" />
    <glyph glyph-name="Oslash" unicode="&#xd8;" horiz-adv-x="729" 
d="M166 -72h-45l62 108q-65 43 -102 113.5t-37 158.5q0 137 93 234.5t228 97.5q81 0 149 -34l50 85h44l-60 -104q64 -42 100.5 -112t36.5 -158q0 -137 -93 -234.5t-228 -97.5q-82 0 -147 33zM215 90l272 469q-58 41 -126 41q-99 0 -164.5 -75.5t-65.5 -204.5q0 -146 84 -230
zM516 533l-272 -469q56 -39 122 -39q99 0 165 76t66 205q0 143 -81 227z" />
    <glyph glyph-name="Ugrave" unicode="&#xd9;" horiz-adv-x="618" 
d="M493 212v413h49v-419q0 -101 -64.5 -161t-169.5 -60q-106 0 -169 59.5t-63 167.5v413h82v-402q0 -91 47 -136.5t124 -45.5q74 0 119 46.5t45 124.5zM359 699h-33l-149 177h92z" />
    <glyph glyph-name="Uacute" unicode="&#xda;" horiz-adv-x="618" 
d="M493 212v413h49v-419q0 -101 -64.5 -161t-169.5 -60q-106 0 -169 59.5t-63 167.5v413h82v-402q0 -91 47 -136.5t124 -45.5q74 0 119 46.5t45 124.5zM321 699h-33l90 177h92z" />
    <glyph glyph-name="Ucircumflex" unicode="&#xdb;" horiz-adv-x="618" 
d="M493 212v413h49v-419q0 -101 -64.5 -161t-169.5 -60q-106 0 -169 59.5t-63 167.5v413h82v-402q0 -91 47 -136.5t124 -45.5q74 0 119 46.5t45 124.5zM483 699h-38l-117 130h-8l-117 -130h-38l125 197h68z" />
    <glyph glyph-name="Udieresis" unicode="&#xdc;" horiz-adv-x="618" 
d="M493 212v413h49v-419q0 -101 -64.5 -161t-169.5 -60q-106 0 -169 59.5t-63 167.5v413h82v-402q0 -91 47 -136.5t124 -45.5q74 0 119 46.5t45 124.5zM231 725q-22 0 -37.5 16t-15.5 38q0 23 15.5 39t37.5 16t37.5 -16t15.5 -39t-15.5 -38.5t-37.5 -15.5zM421 725
q-23 0 -38.5 15.5t-15.5 38.5t15.5 39t38.5 16q22 0 37.5 -16t15.5 -39q0 -22 -15.5 -38t-37.5 -16z" />
    <glyph glyph-name="Yacute" unicode="&#xdd;" horiz-adv-x="562" 
d="M323 0h-82v264l-219 361h93l182 -308h8l184 308h51l-217 -361v-264zM293 699h-33l90 177h92z" />
    <glyph glyph-name="Thorn" unicode="&#xde;" horiz-adv-x="522" 
d="M162 0h-82v625h82v-127l88 1q114 2 175.5 -48t61.5 -123q0 -97 -69 -151.5t-173 -54.5q-41 0 -83 5v-127zM248 457h-86v-287q31 -7 80 -7q69 0 113.5 40t44.5 107q0 66 -42 106.5t-110 40.5z" />
    <glyph glyph-name="germandbls" unicode="&#xdf;" horiz-adv-x="541" 
d="M209 16l25 59q34 -50 98 -50q47 0 75.5 30t28.5 81q0 145 -202 246v33q62 6 97.5 45t35.5 91q0 47 -26.5 76.5t-68.5 29.5q-49 0 -77 -34.5t-28 -102.5v-520h-72v416h-75v42h75v31q0 102 49.5 155t132.5 53q72 0 118 -41t46 -100q0 -47 -30.5 -86.5t-82.5 -57.5v-5
q82 -48 128.5 -113t46.5 -131q0 -78 -46.5 -128t-127.5 -50q-70 0 -120 31z" />
    <glyph glyph-name="agrave" unicode="&#xe0;" horiz-adv-x="455" 
d="M265 534h-34l-149 177h93zM389 0h-72v68h-4q-61 -83 -152 -83q-51 0 -88 35t-37 86q0 66 64 108.5t201 76.5l16 4q0 72 -22 104.5t-71 32.5q-77 0 -128 -80l-35 50q81 71 173 71q83 0 119 -46t36 -138v-289zM317 123v135l-22 -6q-182 -49 -182 -133q0 -35 22 -58t54 -23
q67 0 128 85z" />
    <glyph glyph-name="aacute" unicode="&#xe1;" horiz-adv-x="455" 
d="M211 534h-33l89 177h93zM389 0h-72v68h-4q-61 -83 -152 -83q-51 0 -88 35t-37 86q0 66 64 108.5t201 76.5l16 4q0 72 -22 104.5t-71 32.5q-77 0 -128 -80l-35 50q81 71 173 71q83 0 119 -46t36 -138v-289zM317 123v135l-22 -6q-182 -49 -182 -133q0 -35 22 -58t54 -23
q67 0 128 85z" />
    <glyph glyph-name="acircumflex" unicode="&#xe2;" horiz-adv-x="455" 
d="M386 534h-39l-116 130h-8l-117 -130h-38l125 197h68zM389 0h-72v68h-4q-61 -83 -152 -83q-51 0 -88 35t-37 86q0 66 64 108.5t201 76.5l16 4q0 72 -22 104.5t-71 32.5q-77 0 -128 -80l-35 50q81 71 173 71q83 0 119 -46t36 -138v-289zM317 123v135l-22 -6
q-182 -49 -182 -133q0 -35 22 -58t54 -23q67 0 128 85z" />
    <glyph glyph-name="atilde" unicode="&#xe3;" horiz-adv-x="455" 
d="M357 680h35q-22 -118 -108 -118q-27 0 -54 17.5t-49 35t-38 17.5q-44 0 -61 -62h-35q22 118 107 118q27 0 54.5 -18t50 -35.5t38.5 -17.5q42 0 60 63zM389 0h-72v68h-4q-61 -83 -152 -83q-51 0 -88 35t-37 86q0 66 64 108.5t201 76.5l16 4q0 72 -22 104.5t-71 32.5
q-77 0 -128 -80l-35 50q81 71 173 71q83 0 119 -46t36 -138v-289zM317 123v135l-22 -6q-182 -49 -182 -133q0 -35 22 -58t54 -23q67 0 128 85z" />
    <glyph glyph-name="adieresis" unicode="&#xe4;" horiz-adv-x="455" 
d="M131 560q-22 0 -37.5 16t-15.5 39t15.5 39t37.5 16t37 -16t15 -39t-15 -39t-37 -16zM320 560q-22 0 -37.5 16t-15.5 39t15.5 39t37.5 16t37.5 -16t15.5 -39t-15.5 -39t-37.5 -16zM389 0h-72v68h-4q-61 -83 -152 -83q-51 0 -88 35t-37 86q0 66 64 108.5t201 76.5l16 4
q0 72 -22 104.5t-71 32.5q-77 0 -128 -80l-35 50q81 71 173 71q83 0 119 -46t36 -138v-289zM317 123v135l-22 -6q-182 -49 -182 -133q0 -35 22 -58t54 -23q67 0 128 85z" />
    <glyph glyph-name="aring" unicode="&#xe5;" horiz-adv-x="455" 
d="M223 522q-50 0 -80.5 32.5t-30.5 79.5t30.5 79t80.5 32t80 -32t30 -79t-30 -79.5t-80 -32.5zM223 558q31 0 50 23t19 53t-19 52.5t-50 22.5q-32 0 -51.5 -22.5t-19.5 -52.5t19.5 -53t51.5 -23zM389 0h-72v68h-4q-61 -83 -152 -83q-51 0 -88 35t-37 86q0 66 64 108.5
t201 76.5l16 4q0 72 -22 104.5t-71 32.5q-77 0 -128 -80l-35 50q81 71 173 71q83 0 119 -46t36 -138v-289zM317 123v135l-22 -6q-182 -49 -182 -133q0 -35 22 -58t54 -23q67 0 128 85z" />
    <glyph glyph-name="ae" unicode="&#xe6;" horiz-adv-x="744" 
d="M657 72l21 -35q-62 -52 -154 -52q-61 0 -110 29t-77 81q-64 -110 -173 -110q-53 0 -90.5 34.5t-37.5 86.5q0 66 63 108t200 77l16 4q0 72 -21.5 104.5t-70.5 32.5q-37 0 -72.5 -21t-59.5 -59l-35 50q81 71 176 71q101 0 134 -74q64 74 162 74q81 0 128.5 -50.5
t47.5 -123.5q0 -25 -3 -46h-316q-1 -8 -1 -24q0 -87 44.5 -143t119.5 -56q59 0 109 42zM389 291h239q0 67 -28.5 104t-77.5 37q-45 0 -82.5 -38t-50.5 -103zM307 256l-10 -3q-99 -29 -141.5 -60t-42.5 -73q0 -36 22 -59t54 -23q73 0 133 92q-16 45 -16 94q0 22 1 32z" />
    <glyph glyph-name="ccedilla" unicode="&#xe7;" horiz-adv-x="466" 
d="M168 -275v33q156 0 156 69q0 25 -24 38.5t-68 13.5q-38 0 -67 -5v23l85 88q-92 4 -151 70t-59 169q0 109 62.5 179t166.5 70q96 0 159 -53l-31 -51q-58 64 -128 64q-69 0 -110 -55.5t-41 -146.5q0 -87 45 -144t120 -57q60 0 108 42l22 -35q-49 -41 -120 -50l-56 -58
q67 3 109 -21t42 -67q0 -53 -53.5 -84.5t-166.5 -31.5z" />
    <glyph glyph-name="egrave" unicode="&#xe8;" horiz-adv-x="478" 
d="M295 534h-33l-149 177h92zM391 72l21 -35q-62 -52 -153 -52q-95 0 -157 66.5t-62 172.5q0 107 63 178t159 71q81 0 128.5 -50t47.5 -123q0 -26 -3 -47h-316q-1 -8 -1 -24q0 -87 44.5 -143t119.5 -56q59 0 109 42zM123 291h239q0 68 -28.5 105t-77.5 37q-44 0 -81.5 -38
t-51.5 -104z" />
    <glyph glyph-name="eacute" unicode="&#xe9;" horiz-adv-x="478" 
d="M261 534h-33l89 177h93zM391 72l21 -35q-62 -52 -153 -52q-95 0 -157 66.5t-62 172.5q0 107 63 178t159 71q81 0 128.5 -50t47.5 -123q0 -26 -3 -47h-316q-1 -8 -1 -24q0 -87 44.5 -143t119.5 -56q59 0 109 42zM123 291h239q0 68 -28.5 105t-77.5 37q-44 0 -81.5 -38
t-51.5 -104z" />
    <glyph glyph-name="ecircumflex" unicode="&#xea;" horiz-adv-x="478" 
d="M408 534h-38l-116 130h-9l-117 -130h-37l124 197h69zM391 72l21 -35q-62 -52 -153 -52q-95 0 -157 66.5t-62 172.5q0 107 63 178t159 71q81 0 128.5 -50t47.5 -123q0 -26 -3 -47h-316q-1 -8 -1 -24q0 -87 44.5 -143t119.5 -56q59 0 109 42zM123 291h239q0 68 -28.5 105
t-77.5 37q-44 0 -81.5 -38t-51.5 -104z" />
    <glyph glyph-name="edieresis" unicode="&#xeb;" horiz-adv-x="478" 
d="M158 560q-22 0 -37.5 16t-15.5 38q0 23 15.5 39t37.5 16t37.5 -16t15.5 -39t-15.5 -38.5t-37.5 -15.5zM348 560q-22 0 -38 16t-16 38q0 23 15.5 39t38.5 16q22 0 37.5 -16t15.5 -39q0 -22 -15.5 -38t-37.5 -16zM391 72l21 -35q-62 -52 -153 -52q-95 0 -157 66.5
t-62 172.5q0 107 63 178t159 71q81 0 128.5 -50t47.5 -123q0 -26 -3 -47h-316q-1 -8 -1 -24q0 -87 44.5 -143t119.5 -56q59 0 109 42zM123 291h239q0 68 -28.5 105t-77.5 37q-44 0 -81.5 -38t-51.5 -104z" />
    <glyph glyph-name="igrave" unicode="&#xec;" horiz-adv-x="216" 
d="M134 534h-33l-149 177h92zM144 0h-72v448l72 22v-470z" />
    <glyph glyph-name="iacute" unicode="&#xed;" horiz-adv-x="216" 
d="M113 534h-33l89 177h93zM144 0h-72v448l72 22v-470z" />
    <glyph glyph-name="icircumflex" unicode="&#xee;" horiz-adv-x="216" 
d="M267 534h-39l-116 130h-8l-117 -130h-38l125 197h68zM144 0h-72v448l72 22v-470z" />
    <glyph glyph-name="idieresis" unicode="&#xef;" horiz-adv-x="216" 
d="M13 560q-21 0 -36.5 16t-15.5 38q0 23 15.5 39t36.5 16q22 0 37.5 -16t15.5 -39t-15.5 -38.5t-37.5 -15.5zM203 560q-22 0 -37.5 15.5t-15.5 38.5t15.5 39t37.5 16t37.5 -16t15.5 -39q0 -22 -15.5 -38t-37.5 -16zM144 0h-72v448l72 22v-470z" />
    <glyph glyph-name="eth" unicode="&#xf0;" horiz-adv-x="525" 
d="M409 619l-93 -31q163 -122 163 -341q0 -117 -61 -189.5t-164 -72.5q-96 0 -155 66t-59 173q0 105 59 177t140 72q77 0 125 -54q-33 91 -103 151l-148 -49v37l114 38q-47 31 -124 53l11 34q96 -27 165 -70l130 43v-37zM262 25q60 0 99 52.5t39 144.5q0 101 -42.5 155.5
t-103.5 54.5q-59 0 -97.5 -52.5t-38.5 -143.5q0 -102 42 -156.5t102 -54.5z" />
    <glyph glyph-name="ntilde" unicode="&#xf1;" horiz-adv-x="505" 
d="M399 681h36q-21 -118 -108 -118q-36 0 -80.5 35t-61.5 35q-43 0 -60 -63h-36q21 118 107 118q28 0 55.5 -17.5t49.5 -35t38 -17.5q43 0 60 63zM439 0h-72v297q0 64 -23 91t-71 27q-31 0 -66 -21.5t-63 -53.5v-340h-72v448l72 22v-75h5q78 78 159 78q64 0 97.5 -39.5
t33.5 -108.5v-325z" />
    <glyph glyph-name="ograve" unicode="&#xf2;" horiz-adv-x="530" 
d="M295 534h-34l-149 177h93zM261 -15q-101 0 -161 66t-60 173q0 109 62.5 179t166.5 70q101 0 161 -66t60 -173q0 -109 -62.5 -179t-166.5 -70zM268 25q63 0 103.5 52.5t40.5 144.5q0 102 -43.5 156.5t-107.5 54.5q-63 0 -103 -52.5t-40 -144.5q0 -102 43 -156.5t107 -54.5
z" />
    <glyph glyph-name="oacute" unicode="&#xf3;" horiz-adv-x="530" 
d="M265 534h-34l90 177h93zM261 -15q-101 0 -161 66t-60 173q0 109 62.5 179t166.5 70q101 0 161 -66t60 -173q0 -109 -62.5 -179t-166.5 -70zM268 25q63 0 103.5 52.5t40.5 144.5q0 102 -43.5 156.5t-107.5 54.5q-63 0 -103 -52.5t-40 -144.5q0 -102 43 -156.5t107 -54.5z
" />
    <glyph glyph-name="ocircumflex" unicode="&#xf4;" horiz-adv-x="530" 
d="M424 534h-38l-117 130h-8l-117 -130h-38l125 197h68zM261 -15q-101 0 -161 66t-60 173q0 109 62.5 179t166.5 70q101 0 161 -66t60 -173q0 -109 -62.5 -179t-166.5 -70zM268 25q63 0 103.5 52.5t40.5 144.5q0 102 -43.5 156.5t-107.5 54.5q-63 0 -103 -52.5t-40 -144.5
q0 -102 43 -156.5t107 -54.5z" />
    <glyph glyph-name="otilde" unicode="&#xf5;" horiz-adv-x="530" 
d="M403 681h35q-21 -118 -108 -118q-28 0 -55 17.5t-48.5 35t-37.5 17.5q-44 0 -61 -63h-35q21 118 107 118q35 0 80.5 -35t61.5 -35q44 0 61 63zM261 -15q-101 0 -161 66t-60 173q0 109 62.5 179t166.5 70q101 0 161 -66t60 -173q0 -109 -62.5 -179t-166.5 -70zM268 25
q63 0 103.5 52.5t40.5 144.5q0 102 -43.5 156.5t-107.5 54.5q-63 0 -103 -52.5t-40 -144.5q0 -102 43 -156.5t107 -54.5z" />
    <glyph glyph-name="odieresis" unicode="&#xf6;" horiz-adv-x="530" 
d="M171 560q-22 0 -37.5 16t-15.5 38q0 23 15.5 39t37.5 16t37.5 -16t15.5 -39t-15.5 -38.5t-37.5 -15.5zM361 560q-22 0 -37.5 15.5t-15.5 38.5t15.5 39t37.5 16t37.5 -16t15.5 -39q0 -22 -15.5 -38t-37.5 -16zM261 -15q-101 0 -161 66t-60 173q0 109 62.5 179t166.5 70
q101 0 161 -66t60 -173q0 -109 -62.5 -179t-166.5 -70zM268 25q63 0 103.5 52.5t40.5 144.5q0 102 -43.5 156.5t-107.5 54.5q-63 0 -103 -52.5t-40 -144.5q0 -102 43 -156.5t107 -54.5z" />
    <glyph glyph-name="divide" unicode="&#xf7;" 
d="M448 213h-396v45h396v-45zM250 335q-18 0 -30.5 12.5t-12.5 30.5t12.5 30.5t30.5 12.5q17 0 30 -12.5t13 -30.5t-13 -30.5t-30 -12.5zM250 50q-18 0 -30.5 13t-12.5 30q0 18 12.5 30.5t30.5 12.5q17 0 30 -12.5t13 -30.5q0 -17 -13 -30t-30 -13z" />
    <glyph glyph-name="oslash" unicode="&#xf8;" horiz-adv-x="530" 
d="M77 -131l-30 16l81 141q-88 63 -88 198q0 109 62.5 179t166.5 70q57 0 103 -23l81 138l30 -15l-82 -141q89 -64 89 -198q0 -109 -62.5 -179t-166.5 -70q-58 0 -104 23zM160 82l185 320q-37 31 -84 31q-63 0 -103 -52.5t-40 -144.5q0 -99 42 -154zM369 376l-185 -321
q38 -30 84 -30q63 0 103.5 52.5t40.5 144.5q0 98 -43 154z" />
    <glyph glyph-name="ugrave" unicode="&#xf9;" horiz-adv-x="505" 
d="M282 534h-33l-149 177h93zM433 0h-72v63h-5q-76 -78 -159 -78q-64 0 -97.5 39.5t-33.5 108.5v325h72v-297q0 -63 23.5 -90.5t70.5 -27.5q32 0 66.5 21t62.5 54v340h72v-458z" />
    <glyph glyph-name="uacute" unicode="&#xfa;" horiz-adv-x="505" 
d="M254 534h-34l90 177h93zM433 0h-72v63h-5q-76 -78 -159 -78q-64 0 -97.5 39.5t-33.5 108.5v325h72v-297q0 -63 23.5 -90.5t70.5 -27.5q32 0 66.5 21t62.5 54v340h72v-458z" />
    <glyph glyph-name="ucircumflex" unicode="&#xfb;" horiz-adv-x="505" 
d="M413 534h-39l-116 130h-8l-117 -130h-38l125 197h68zM433 0h-72v63h-5q-76 -78 -159 -78q-64 0 -97.5 39.5t-33.5 108.5v325h72v-297q0 -63 23.5 -90.5t70.5 -27.5q32 0 66.5 21t62.5 54v340h72v-458z" />
    <glyph glyph-name="udieresis" unicode="&#xfc;" horiz-adv-x="505" 
d="M156 560q-22 0 -37.5 16t-15.5 38q0 23 15.5 39t37.5 16t37.5 -16t15.5 -39t-15.5 -38.5t-37.5 -15.5zM346 560q-22 0 -37.5 15.5t-15.5 38.5t15.5 39t37.5 16t37.5 -16t15.5 -39q0 -22 -15.5 -38t-37.5 -16zM433 0h-72v63h-5q-76 -78 -159 -78q-64 0 -97.5 39.5
t-33.5 108.5v325h72v-297q0 -63 23.5 -90.5t70.5 -27.5q32 0 66.5 21t62.5 54v340h72v-458z" />
    <glyph glyph-name="yacute" unicode="&#xfd;" horiz-adv-x="457" 
d="M175 -132l46 126l-201 464h80l156 -372l134 372h47l-224 -606q-22 -60 -52 -86.5t-73 -26.5q-37 0 -65 14l17 74q31 -37 60 -37q26 0 43 18t32 60zM233 534h-33l89 177h93z" />
    <glyph glyph-name="thorn" unicode="&#xfe;" horiz-adv-x="514" 
d="M144 -246h-72v922l72 21v-296h4q59 72 146 72q84 0 132 -64.5t48 -165.5q0 -108 -60 -179.5t-164 -71.5q-58 0 -106 24v-262zM144 340v-272q45 -36 101 -36q67 0 109 55t42 141q0 88 -35.5 139t-99.5 51q-70 0 -117 -78z" />
    <glyph glyph-name="ydieresis" unicode="&#xff;" horiz-adv-x="457" 
d="M175 -132l46 126l-201 464h80l156 -372l134 372h47l-224 -606q-22 -60 -52 -86.5t-73 -26.5q-37 0 -65 14l17 74q31 -37 60 -37q26 0 43 18t32 60zM148 560q-22 0 -37.5 16t-15.5 38q0 23 15.5 39t37.5 16t37 -16t15 -39t-15 -38.5t-37 -15.5zM337 560q-22 0 -37.5 16
t-15.5 38q0 23 15.5 39t37.5 16t37.5 -16t15.5 -39q0 -22 -15.5 -38t-37.5 -16z" />
    <glyph glyph-name="Amacron" unicode="&#x100;" horiz-adv-x="545" 
d="M525 0h-87l-69 213h-232l-70 -213h-47l194 581v28l96 33zM355 254l-98 299h-7l-99 -299h204zM398 758h-252v43h252v-43z" />
    <glyph glyph-name="amacron" unicode="&#x101;" horiz-adv-x="455" 
d="M353 593h-252v42h252v-42zM389 0h-72v68h-4q-61 -83 -152 -83q-51 0 -88 35t-37 86q0 66 64 108.5t201 76.5l16 4q0 72 -22 104.5t-71 32.5q-77 0 -128 -80l-35 50q81 71 173 71q83 0 119 -46t36 -138v-289zM317 123v135l-22 -6q-182 -49 -182 -133q0 -35 22 -58t54 -23
q67 0 128 85z" />
    <glyph glyph-name="Abreve" unicode="&#x102;" horiz-adv-x="545" 
d="M525 0h-87l-69 213h-232l-70 -213h-47l194 581v28l96 33zM355 254l-98 299h-7l-99 -299h204zM378 863h34q-6 -77 -43.5 -115t-96.5 -38q-60 0 -97.5 37.5t-42.5 115.5h34q11 -53 35.5 -76t70.5 -23q45 0 70.5 23t35.5 76z" />
    <glyph glyph-name="abreve" unicode="&#x103;" horiz-adv-x="455" 
d="M334 697h34q-6 -78 -43.5 -116t-96.5 -38t-97 38t-43 116h34q11 -53 35.5 -76t70.5 -23q45 0 70.5 23t35.5 76zM389 0h-72v68h-4q-61 -83 -152 -83q-51 0 -88 35t-37 86q0 66 64 108.5t201 76.5l16 4q0 72 -22 104.5t-71 32.5q-77 0 -128 -80l-35 50q81 71 173 71
q83 0 119 -46t36 -138v-289zM317 123v135l-22 -6q-182 -49 -182 -133q0 -35 22 -58t54 -23q67 0 128 85z" />
    <glyph glyph-name="Aogonek" unicode="&#x104;" horiz-adv-x="545" 
d="M573 -167l17 -25q-38 -54 -109 -54q-47 0 -74 26.5t-27 73.5q0 36 28.5 76t74.5 70h-45l-69 213h-232l-70 -213h-47l194 581v28l96 33l215 -642q-82 -64 -82 -134q0 -66 64 -66q37 0 66 33zM355 254l-98 299h-7l-99 -299h204z" />
    <glyph glyph-name="aogonek" unicode="&#x105;" horiz-adv-x="455" 
d="M439 -167l17 -25q-38 -54 -109 -54q-47 0 -74 26.5t-27 73.5q0 36 27 75.5t74 70.5h-30v68h-4q-61 -83 -152 -83q-51 0 -88 35t-37 86q0 66 64 108.5t201 76.5l16 4q0 72 -22 104.5t-71 32.5q-77 0 -128 -80l-35 50q81 71 173 71q83 0 119 -46t36 -138v-289
q-80 -64 -80 -133q0 -67 64 -67q37 0 66 33zM317 123v135l-22 -6q-182 -49 -182 -133q0 -35 22 -58t54 -23q67 0 128 85z" />
    <glyph glyph-name="Cacute" unicode="&#x106;" horiz-adv-x="621" 
d="M540 74l22 -39q-81 -50 -182 -50q-147 0 -241.5 91.5t-94.5 233.5q0 138 94 234t239 96q116 0 204 -59l-33 -56q-72 74 -176 74t-172.5 -75.5t-68.5 -203.5q0 -131 74.5 -212t182.5 -81q88 0 152 47zM372 699h-33l90 177h92z" />
    <glyph glyph-name="cacute" unicode="&#x107;" horiz-adv-x="466" 
d="M256 534h-33l89 177h93zM391 72l22 -35q-62 -52 -153 -52q-95 0 -157.5 66.5t-62.5 172.5q0 109 62.5 179t166.5 70q96 0 159 -53l-31 -51q-58 64 -128 64q-69 0 -110 -55.5t-41 -146.5q0 -87 45 -144t120 -57q60 0 108 42z" />
    <glyph glyph-name="Ccircumflex" unicode="&#x108;" horiz-adv-x="621" 
d="M540 74l22 -39q-81 -50 -182 -50q-147 0 -241.5 91.5t-94.5 233.5q0 138 94 234t239 96q116 0 204 -59l-33 -56q-72 74 -176 74t-172.5 -75.5t-68.5 -203.5q0 -131 74.5 -212t182.5 -81q88 0 152 47zM526 699h-38l-117 130h-8l-117 -130h-38l125 197h68z" />
    <glyph glyph-name="ccircumflex" unicode="&#x109;" horiz-adv-x="466" 
d="M418 534h-39l-116 130h-8l-117 -130h-38l125 197h68zM391 72l22 -35q-62 -52 -153 -52q-95 0 -157.5 66.5t-62.5 172.5q0 109 62.5 179t166.5 70q96 0 159 -53l-31 -51q-58 64 -128 64q-69 0 -110 -55.5t-41 -146.5q0 -87 45 -144t120 -57q60 0 108 42z" />
    <glyph glyph-name="Cdotaccent" unicode="&#x10a;" horiz-adv-x="621" 
d="M540 74l22 -39q-81 -50 -182 -50q-147 0 -241.5 91.5t-94.5 233.5q0 138 94 234t239 96q116 0 204 -59l-33 -56q-72 74 -176 74t-172.5 -75.5t-68.5 -203.5q0 -131 74.5 -212t182.5 -81q88 0 152 47zM366 726q-22 0 -37.5 16t-15.5 38q0 23 15.5 39t37.5 16t37.5 -16
t15.5 -39t-15.5 -38.5t-37.5 -15.5z" />
    <glyph glyph-name="cdotaccent" unicode="&#x10b;" horiz-adv-x="466" 
d="M269 560q-21 0 -36.5 16t-15.5 38q0 23 15.5 39t36.5 16q23 0 38.5 -16t15.5 -39q0 -22 -15.5 -38t-38.5 -16zM391 72l22 -35q-62 -52 -153 -52q-95 0 -157.5 66.5t-62.5 172.5q0 109 62.5 179t166.5 70q96 0 159 -53l-31 -51q-58 64 -128 64q-69 0 -110 -55.5
t-41 -146.5q0 -87 45 -144t120 -57q60 0 108 42z" />
    <glyph glyph-name="Ccaron" unicode="&#x10c;" horiz-adv-x="621" 
d="M540 74l22 -39q-81 -50 -182 -50q-147 0 -241.5 91.5t-94.5 233.5q0 138 94 234t239 96q116 0 204 -59l-33 -56q-72 74 -176 74t-172.5 -75.5t-68.5 -203.5q0 -131 74.5 -212t182.5 -81q88 0 152 47zM401 699h-68l-125 197h39l116 -130h8l117 130h38z" />
    <glyph glyph-name="ccaron" unicode="&#x10d;" horiz-adv-x="466" 
d="M300 534h-68l-125 197h38l117 -130h8l117 130h38zM391 72l22 -35q-62 -52 -153 -52q-95 0 -157.5 66.5t-62.5 172.5q0 109 62.5 179t166.5 70q96 0 159 -53l-31 -51q-58 64 -128 64q-69 0 -110 -55.5t-41 -146.5q0 -87 45 -144t120 -57q60 0 108 42z" />
    <glyph glyph-name="Dcaron" unicode="&#x10e;" horiz-adv-x="632" 
d="M241 -3l-161 4v623l164 4q151 4 247.5 -84t96.5 -223q0 -139 -94.5 -233.5t-252.5 -90.5zM162 40h92q112 0 179.5 72.5t67.5 190.5q0 128 -74.5 205t-200.5 77h-64v-545zM310 699h-68l-125 197h39l116 -130h8l117 130h38z" />
    <glyph glyph-name="dcaron" unicode="&#x10f;" horiz-adv-x="711" 
d="M551 400l-19 25q78 63 78 127q0 61 -74 86q0 26 17.5 42.5t48.5 16.5q33 0 58.5 -29t25.5 -69q0 -105 -135 -199zM442 0h-72v58h-4q-58 -73 -146 -73q-84 0 -132 64.5t-48 165.5q0 108 60 179.5t164 71.5q58 0 106 -24v233l72 22v-697zM370 118v272q-45 36 -101 36
q-67 0 -109 -55t-42 -141q0 -87 35.5 -138.5t99.5 -51.5q70 0 117 78z" />
    <glyph glyph-name="Dcroat" unicode="&#x110;" horiz-adv-x="636" 
d="M245 -3l-161 4v293h-70v39h70v291l164 4q151 4 247.5 -84t96.5 -223q0 -139 -94.5 -233.5t-252.5 -90.5zM166 40h92q112 0 179.5 72.5t67.5 190.5q0 128 -74.5 205t-200.5 77h-64v-252h128v-39h-128v-254z" />
    <glyph glyph-name="dcroat" unicode="&#x111;" horiz-adv-x="533" 
d="M442 0h-72v58h-4q-58 -73 -146 -73q-84 0 -132 64.5t-48 165.5q0 108 60 179.5t164 71.5q58 0 106 -24v91h-143v39h143v103l72 22v-125h79v-39h-79v-533zM370 118v272q-45 36 -101 36q-67 0 -109 -55t-42 -141q0 -87 35.5 -138.5t99.5 -51.5q70 0 117 78z" />
    <glyph glyph-name="Emacron" unicode="&#x112;" horiz-adv-x="508" 
d="M458 0h-378v625h378v-58q-66 17 -170 17h-127v-246h216v-41h-216v-256h127q104 0 170 17v-58zM406 758h-252v43h252v-43z" />
    <glyph glyph-name="emacron" unicode="&#x113;" horiz-adv-x="478" 
d="M374 593h-252v43h252v-43zM391 72l21 -35q-62 -52 -153 -52q-95 0 -157 66.5t-62 172.5q0 107 63 178t159 71q81 0 128.5 -50t47.5 -123q0 -26 -3 -47h-316q-1 -8 -1 -24q0 -87 44.5 -143t119.5 -56q59 0 109 42zM123 291h239q0 68 -28.5 105t-77.5 37q-44 0 -81.5 -38
t-51.5 -104z" />
    <glyph glyph-name="Ebreve" unicode="&#x114;" horiz-adv-x="508" 
d="M458 0h-378v625h378v-58q-66 17 -170 17h-127v-246h216v-41h-216v-256h127q104 0 170 17v-58zM384 863h34q-6 -77 -43.5 -115t-96.5 -38q-60 0 -97.5 37.5t-42.5 115.5h34q11 -53 35.5 -76t70.5 -23q45 0 70.5 23t35.5 76z" />
    <glyph glyph-name="ebreve" unicode="&#x115;" horiz-adv-x="478" 
d="M361 697h35q-6 -77 -44 -115t-97 -38t-97 37.5t-43 115.5h34q10 -52 35.5 -75.5t70.5 -23.5q46 0 71 23t35 76zM391 72l21 -35q-62 -52 -153 -52q-95 0 -157 66.5t-62 172.5q0 107 63 178t159 71q81 0 128.5 -50t47.5 -123q0 -26 -3 -47h-316q-1 -8 -1 -24
q0 -87 44.5 -143t119.5 -56q59 0 109 42zM123 291h239q0 68 -28.5 105t-77.5 37q-44 0 -81.5 -38t-51.5 -104z" />
    <glyph glyph-name="Edotaccent" unicode="&#x116;" horiz-adv-x="508" 
d="M458 0h-378v625h378v-58q-66 17 -170 17h-127v-246h216v-41h-216v-256h127q104 0 170 17v-58zM283 726q-22 0 -37.5 16t-15.5 38q0 23 15.5 39t37.5 16t37.5 -16t15.5 -39t-15.5 -38.5t-37.5 -15.5z" />
    <glyph glyph-name="edotaccent" unicode="&#x117;" horiz-adv-x="478" 
d="M256 560q-21 0 -36.5 16t-15.5 38q0 23 15.5 39t36.5 16q23 0 38.5 -16t15.5 -39q0 -22 -16 -38t-38 -16zM391 72l21 -35q-62 -52 -153 -52q-95 0 -157 66.5t-62 172.5q0 107 63 178t159 71q81 0 128.5 -50t47.5 -123q0 -26 -3 -47h-316q-1 -8 -1 -24q0 -87 44.5 -143
t119.5 -56q59 0 109 42zM123 291h239q0 68 -28.5 105t-77.5 37q-44 0 -81.5 -38t-51.5 -104z" />
    <glyph glyph-name="Eogonek" unicode="&#x118;" horiz-adv-x="508" 
d="M454 -167l17 -25q-39 -54 -110 -54q-47 0 -73.5 26.5t-26.5 73.5q0 37 26 76t72 70h-279v625h378v-58q-66 17 -170 17h-127v-246h216v-41h-216v-256h127q104 0 170 17v-58h-54q-80 -60 -80 -133q0 -67 63 -67q38 0 67 33z" />
    <glyph glyph-name="eogonek" unicode="&#x119;" horiz-adv-x="478" 
d="M435 253h-316q-1 -8 -1 -24q0 -87 44.5 -143t119.5 -56q59 0 109 42q2 -4 9 -16.5t12 -18.5q-73 -55 -102 -90t-29 -80q0 -30 16.5 -48.5t47.5 -18.5q37 0 66 33q5 -8 17 -24q-38 -55 -110 -55q-46 0 -73 27t-27 73q0 72 83 135q-26 -4 -42 -4q-95 0 -157 66.5t-62 172.5
q0 107 63.5 178t159.5 71q81 0 128 -50.5t47 -123.5q0 -25 -3 -46zM123 291h239q0 68 -28 105t-78 37q-44 0 -82 -38.5t-51 -103.5z" />
    <glyph glyph-name="Ecaron" unicode="&#x11a;" horiz-adv-x="508" 
d="M458 0h-378v625h378v-58q-66 17 -170 17h-127v-246h216v-41h-216v-256h127q104 0 170 17v-58zM312 699h-68l-125 197h39l116 -130h8l117 130h38z" />
    <glyph glyph-name="ecaron" unicode="&#x11b;" horiz-adv-x="478" 
d="M290 534h-68l-125 197h38l117 -130h8l117 130h38zM391 72l21 -35q-62 -52 -153 -52q-95 0 -157 66.5t-62 172.5q0 107 63 178t159 71q81 0 128.5 -50t47.5 -123q0 -26 -3 -47h-316q-1 -8 -1 -24q0 -87 44.5 -143t119.5 -56q59 0 109 42zM123 291h239q0 68 -28.5 105
t-77.5 37q-44 0 -81.5 -38t-51.5 -104z" />
    <glyph glyph-name="Gcircumflex" unicode="&#x11c;" horiz-adv-x="631" 
d="M485 44v227h81v-234q-82 -52 -187 -52q-147 0 -241 91t-94 233q0 138 94 234.5t239 96.5q116 0 204 -59l-33 -56q-72 74 -176 74t-172.5 -75.5t-68.5 -203.5q0 -133 74 -213t182 -80q49 0 98 17zM528 699h-38l-117 130h-8l-117 -130h-38l125 197h68z" />
    <glyph glyph-name="gcircumflex" unicode="&#x11d;" 
d="M408 534h-38l-117 130h-8l-117 -130h-38l125 197h68zM111 -23v4q-26 6 -43.5 27t-17.5 47q0 68 80 100v4q-39 19 -62.5 55.5t-23.5 85.5q0 73 53.5 123t132.5 50q51 0 87 -15h178v-42l-124 3v-7q38 -52 38 -103q0 -72 -52.5 -121t-131.5 -49q-30 0 -53 5q-54 -23 -54 -57
q0 -20 17.5 -33.5t45.5 -13.5q23 0 64 2t62 2q73 0 113.5 -35.5t40.5 -97.5q0 -80 -71 -127t-177 -47q-93 0 -145 32.5t-52 88.5q0 81 95 119zM164 -29q-32 -12 -53.5 -36t-21.5 -58q0 -48 37.5 -74.5t105.5 -26.5q67 0 114 31.5t47 80.5q0 87 -112 87q-18 0 -55 -2t-62 -2z
M226 177q49 0 78.5 34.5t29.5 87.5q0 61 -29.5 98.5t-75.5 37.5q-49 0 -78.5 -34.5t-29.5 -87.5q0 -61 29.5 -98.5t75.5 -37.5z" />
    <glyph glyph-name="Gbreve" unicode="&#x11e;" horiz-adv-x="631" 
d="M485 44v227h81v-234q-82 -52 -187 -52q-147 0 -241 91t-94 233q0 138 94 234.5t239 96.5q116 0 204 -59l-33 -56q-72 74 -176 74t-172.5 -75.5t-68.5 -203.5q0 -133 74 -213t182 -80q49 0 98 17zM471 863h34q-6 -77 -43.5 -115t-96.5 -38t-97 37.5t-43 115.5h34
q11 -53 35.5 -76t70.5 -23q45 0 70.5 23t35.5 76z" />
    <glyph glyph-name="gbreve" unicode="&#x11f;" 
d="M346 697h34q-6 -77 -43.5 -115t-96.5 -38q-60 0 -97.5 37.5t-42.5 115.5h34q11 -53 35.5 -76t70.5 -23q45 0 70.5 23t35.5 76zM111 -23v4q-26 6 -43.5 27t-17.5 47q0 68 80 100v4q-39 19 -62.5 55.5t-23.5 85.5q0 73 53.5 123t132.5 50q51 0 87 -15h178v-42l-124 3v-7
q38 -52 38 -103q0 -72 -52.5 -121t-131.5 -49q-30 0 -53 5q-54 -23 -54 -57q0 -20 17.5 -33.5t45.5 -13.5q23 0 64 2t62 2q73 0 113.5 -35.5t40.5 -97.5q0 -80 -71 -127t-177 -47q-93 0 -145 32.5t-52 88.5q0 81 95 119zM164 -29q-32 -12 -53.5 -36t-21.5 -58
q0 -48 37.5 -74.5t105.5 -26.5q67 0 114 31.5t47 80.5q0 87 -112 87q-18 0 -55 -2t-62 -2zM226 177q49 0 78.5 34.5t29.5 87.5q0 61 -29.5 98.5t-75.5 37.5q-49 0 -78.5 -34.5t-29.5 -87.5q0 -61 29.5 -98.5t75.5 -37.5z" />
    <glyph glyph-name="Gdotaccent" unicode="&#x120;" horiz-adv-x="631" 
d="M485 44v227h81v-234q-82 -52 -187 -52q-147 0 -241 91t-94 233q0 138 94 234.5t239 96.5q116 0 204 -59l-33 -56q-72 74 -176 74t-172.5 -75.5t-68.5 -203.5q0 -133 74 -213t182 -80q49 0 98 17zM366 726q-22 0 -37.5 16t-15.5 38q0 23 15.5 39t37.5 16t37.5 -16
t15.5 -39t-15.5 -38.5t-37.5 -15.5z" />
    <glyph glyph-name="gdotaccent" unicode="&#x121;" 
d="M234 560q-22 0 -37.5 16t-15.5 38q0 23 15.5 39t37.5 16t37.5 -16t15.5 -39t-15.5 -38.5t-37.5 -15.5zM111 -23v4q-26 6 -43.5 27t-17.5 47q0 68 80 100v4q-39 19 -62.5 55.5t-23.5 85.5q0 73 53.5 123t132.5 50q51 0 87 -15h178v-42l-124 3v-7q38 -52 38 -103
q0 -72 -52.5 -121t-131.5 -49q-30 0 -53 5q-54 -23 -54 -57q0 -20 17.5 -33.5t45.5 -13.5q23 0 64 2t62 2q73 0 113.5 -35.5t40.5 -97.5q0 -80 -71 -127t-177 -47q-93 0 -145 32.5t-52 88.5q0 81 95 119zM164 -29q-32 -12 -53.5 -36t-21.5 -58q0 -48 37.5 -74.5t105.5 -26.5
q67 0 114 31.5t47 80.5q0 87 -112 87q-18 0 -55 -2t-62 -2zM226 177q49 0 78.5 34.5t29.5 87.5q0 61 -29.5 98.5t-75.5 37.5q-49 0 -78.5 -34.5t-29.5 -87.5q0 -61 29.5 -98.5t75.5 -37.5z" />
    <glyph glyph-name="Gcommaaccent" unicode="&#x122;" horiz-adv-x="631" 
d="M339 -292l-12 27q69 34 69 87q0 52 -72 73q0 23 15.5 38t42.5 15q32 0 55.5 -27t23.5 -62q0 -50 -34 -89t-88 -62zM485 44v227h81v-234q-82 -52 -187 -52q-147 0 -241 91t-94 233q0 138 94 234.5t239 96.5q116 0 204 -59l-33 -56q-72 74 -176 74t-172.5 -75.5
t-68.5 -203.5q0 -133 74 -213t182 -80q49 0 98 17z" />
    <glyph glyph-name="gcommaaccent" unicode="&#x123;" 
d="M287 770l11 -26q-68 -34 -68 -87t71 -74q0 -23 -15 -37.5t-43 -14.5q-32 0 -55.5 27t-23.5 62q0 50 34.5 88.5t88.5 61.5zM111 -23v4q-26 6 -43.5 27t-17.5 47q0 68 80 100v4q-39 19 -62.5 55.5t-23.5 85.5q0 73 53.5 123t132.5 50q51 0 87 -15h178v-42l-124 3v-7
q38 -52 38 -103q0 -72 -52.5 -121t-131.5 -49q-30 0 -53 5q-54 -23 -54 -57q0 -20 17.5 -33.5t45.5 -13.5q23 0 64 2t62 2q73 0 113.5 -35.5t40.5 -97.5q0 -80 -71 -127t-177 -47q-93 0 -145 32.5t-52 88.5q0 81 95 119zM164 -29q-32 -12 -53.5 -36t-21.5 -58
q0 -48 37.5 -74.5t105.5 -26.5q67 0 114 31.5t47 80.5q0 87 -112 87q-18 0 -55 -2t-62 -2zM226 177q49 0 78.5 34.5t29.5 87.5q0 61 -29.5 98.5t-75.5 37.5q-49 0 -78.5 -34.5t-29.5 -87.5q0 -61 29.5 -98.5t75.5 -37.5z" />
    <glyph glyph-name="Hcircumflex" unicode="&#x124;" horiz-adv-x="634" 
d="M554 0h-82v301h-310v-301h-82v625h82v-283h310v283h82v-625zM476 699h-38l-117 130h-8l-117 -130h-38l125 197h68z" />
    <glyph glyph-name="hcircumflex" unicode="&#x125;" horiz-adv-x="505" 
d="M277 739h-38l-117 130h-8l-117 -130h-38l125 197h68zM439 0h-72v297q0 63 -23.5 90.5t-70.5 27.5q-31 0 -66 -21.5t-63 -53.5v-340h-72v675l72 22v-302h5q78 78 159 78q64 0 97.5 -40t33.5 -108v-325z" />
    <glyph glyph-name="Hbar" unicode="&#x126;" horiz-adv-x="668" 
d="M571 0h-82v301h-310v-301h-82v454h-89v39h89v132h82v-132h310v132h82v-132h89v-39h-89v-454zM489 342v112h-310v-112h310z" />
    <glyph glyph-name="hbar" unicode="&#x127;" horiz-adv-x="522" 
d="M456 0h-72v297q0 63 -23.5 90.5t-71.5 27.5q-31 0 -66 -21.5t-62 -53.5v-340h-72v533h-79v39h79v103l72 22v-125h143v-39h-143v-138h5q76 78 159 78q64 0 97.5 -39.5t33.5 -108.5v-325z" />
    <glyph glyph-name="Imacron" unicode="&#x12a;" horiz-adv-x="242" 
d="M162 0h-82v625h82v-625zM247 758h-252v43h252v-43z" />
    <glyph glyph-name="imacron" unicode="&#x12b;" horiz-adv-x="216" 
d="M234 578h-252v43h252v-43zM144 0h-72v448l72 22v-470z" />
    <glyph glyph-name="Ibreve" unicode="&#x12c;" horiz-adv-x="242" 
d="M162 0h-82v625h82v-625zM227 863h34q-6 -77 -43.5 -115t-96.5 -38t-97 37.5t-43 115.5h34q11 -53 35.5 -76t70.5 -23q45 0 70.5 23t35.5 76z" />
    <glyph glyph-name="ibreve" unicode="&#x12d;" horiz-adv-x="216" 
d="M214 697h35q-6 -77 -44.5 -115t-96.5 -38q-60 0 -97.5 37.5t-42.5 115.5h34q10 -52 35.5 -75.5t70.5 -23.5q46 0 71 23t35 76zM144 0h-72v448l72 22v-470z" />
    <glyph glyph-name="Iogonek" unicode="&#x12e;" horiz-adv-x="242" 
d="M211 -166l17 -24q-39 -55 -110 -55q-46 0 -73 26.5t-27 73.5q0 37 27 75.5t74 69.5h-39v625h82v-625q-81 -62 -81 -132q0 -67 63 -67q38 0 67 33z" />
    <glyph glyph-name="iogonek" unicode="&#x12f;" horiz-adv-x="216" 
d="M193 -166l17 -24q-37 -55 -109 -55q-47 0 -74 27t-27 73q0 37 27.5 75.5t73.5 69.5h-29v448l72 22v-470q-81 -63 -81 -132q0 -67 64 -67q37 0 66 33zM108 561q-22 0 -37 16t-15 39t15 39.5t37 16.5t37 -16.5t15 -39.5t-15 -39t-37 -16z" />
    <glyph glyph-name="Idotaccent" unicode="&#x130;" horiz-adv-x="242" 
d="M162 0h-82v625h82v-625zM121 726q-22 0 -37.5 16t-15.5 38q0 23 15.5 39t37.5 16t37.5 -16t15.5 -39t-15.5 -38.5t-37.5 -15.5z" />
    <glyph glyph-name="dotlessi" unicode="&#x131;" horiz-adv-x="216" 
d="M144 0h-72v448l72 22v-470z" />
    <glyph glyph-name="Jcircumflex" unicode="&#x134;" horiz-adv-x="457" 
d="M299 179v446h80v-421q0 -111 -51 -165t-136 -54q-118 0 -180 102l46 51l9 -19q40 -93 120 -93q53 0 82.5 39t29.5 114zM492 699h-38l-117 130h-8l-117 -130h-38l125 197h68z" />
    <glyph glyph-name="jcircumflex" unicode="&#x135;" horiz-adv-x="216" 
d="M268 534h-39l-116 130h-8l-117 -130h-38l125 197h68zM72 -110v558l72 22v-521q0 -111 -38 -160.5t-117 -49.5q-41 0 -83 19l16 62q32 -40 75 -40q36 0 55.5 28.5t19.5 81.5z" />
    <glyph glyph-name="Kcommaaccent" unicode="&#x136;" horiz-adv-x="571" 
d="M248 -292l-11 27q68 34 68 87q0 52 -71 73q0 23 15.5 38t41.5 15q32 0 55.5 -27t23.5 -62q0 -50 -34 -89t-88 -62zM546 0h-99l-213 310l-72 -73v-237h-82v625h82v-326l318 326h65l-256 -259z" />
    <glyph glyph-name="kcommaaccent" unicode="&#x137;" horiz-adv-x="467" 
d="M195 -292l-11 27q68 34 68 87q0 52 -71 73q0 23 15.5 38t41.5 15q32 0 55.5 -27t23.5 -62q0 -50 -34 -89t-88 -62zM442 0h-83l-153 243l-62 -56v-187h-72v676l72 21v-459l237 220h61l-185 -169z" />
    <glyph glyph-name="Lacute" unicode="&#x139;" horiz-adv-x="486" 
d="M456 0h-376v625h81v-584h125q101 0 170 16v-57zM131 699h-33l90 177h92z" />
    <glyph glyph-name="lacute" unicode="&#x13a;" horiz-adv-x="216" 
d="M117 746h-33l89 177h93zM144 0h-72v675l72 22v-697z" />
    <glyph glyph-name="Lcommaaccent" unicode="&#x13b;" horiz-adv-x="486" 
d="M226 -292l-11 27q68 34 68 87q0 52 -71 73q0 23 15.5 38t41.5 15q32 0 55.5 -27t23.5 -62q0 -50 -34 -89t-88 -62zM456 0h-376v625h81v-584h125q101 0 170 16v-57z" />
    <glyph glyph-name="lcommaaccent" unicode="&#x13c;" horiz-adv-x="216" 
d="M49 -292l-11 27q68 34 68 87q0 52 -71 73q0 23 15.5 38t41.5 15q32 0 55.5 -27t23.5 -62q0 -50 -34 -89t-88 -62zM144 0h-72v675l72 22v-697z" />
    <glyph glyph-name="Lcaron" unicode="&#x13d;" horiz-adv-x="584" 
d="M418 362l-19 25q78 60 78 127q0 60 -74 86q0 26 17.5 42.5t48.5 16.5q33 0 59 -29t26 -69q0 -104 -136 -199zM456 0h-376v625h81v-584h125q101 0 170 16v-57z" />
    <glyph glyph-name="lcaron" unicode="&#x13e;" horiz-adv-x="412" 
d="M252 400l-19 25q78 61 78 127q0 59 -74 86q0 26 17.5 42.5t48.5 16.5q33 0 58.5 -29t25.5 -69q0 -105 -135 -199zM144 0h-72v675l72 22v-697z" />
    <glyph glyph-name="Ldot" unicode="&#x13f;" horiz-adv-x="543" 
d="M461 255q-25 0 -42 17.5t-17 41.5q0 25 17 42.5t42 17.5q24 0 41 -17.5t17 -42.5q0 -24 -17 -41.5t-41 -17.5zM456 0h-376v625h81v-584h125q101 0 170 16v-57z" />
    <glyph glyph-name="ldotaccent" unicode="&#x140;" horiz-adv-x="359" 
d="M286 255q-24 0 -41.5 17.5t-17.5 41.5q0 25 17.5 42.5t41.5 17.5t41.5 -17.5t17.5 -42.5q0 -24 -17.5 -41.5t-41.5 -17.5zM144 0h-72v675l72 22v-697z" />
    <glyph glyph-name="Lslash" unicode="&#x141;" horiz-adv-x="507" 
d="M477 0h-376v218l-81 -22v37l81 23v369h81v-347l110 31v-37l-110 -31v-200h125q101 0 170 16v-57z" />
    <glyph glyph-name="lslash" unicode="&#x142;" horiz-adv-x="262" 
d="M167 0h-72v218l-80 -22v37l80 22v421l72 21v-421l80 22v-37l-80 -23v-238z" />
    <glyph glyph-name="Nacute" unicode="&#x143;" horiz-adv-x="638" 
d="M558 3l-88 -8l-338 536h-4v-531h-48v621l89 8l336 -535h5v531h48v-622zM361 699h-33l90 177h92z" />
    <glyph glyph-name="nacute" unicode="&#x144;" horiz-adv-x="505" 
d="M267 534h-33l90 177h92zM439 0h-72v297q0 64 -23 91t-71 27q-31 0 -66 -21.5t-63 -53.5v-340h-72v448l72 22v-75h5q78 78 159 78q64 0 97.5 -39.5t33.5 -108.5v-325z" />
    <glyph glyph-name="Ncommaaccent" unicode="&#x145;" horiz-adv-x="638" 
d="M263 -292l-12 27q68 34 68 87q0 52 -71 73q0 23 15.5 38t42.5 15q32 0 55 -27t23 -62q0 -50 -34 -89t-87 -62zM558 3l-88 -8l-338 536h-4v-531h-48v621l89 8l336 -535h5v531h48v-622z" />
    <glyph glyph-name="ncommaaccent" unicode="&#x146;" horiz-adv-x="505" 
d="M214 -292l-11 27q68 34 68 87q0 52 -71 73q0 23 15.5 38t41.5 15q32 0 55.5 -27t23.5 -62q0 -50 -34 -89t-88 -62zM439 0h-72v297q0 64 -23 91t-71 27q-31 0 -66 -21.5t-63 -53.5v-340h-72v448l72 22v-75h5q78 78 159 78q64 0 97.5 -39.5t33.5 -108.5v-325z" />
    <glyph glyph-name="Ncaron" unicode="&#x147;" horiz-adv-x="638" 
d="M558 3l-88 -8l-338 536h-4v-531h-48v621l89 8l336 -535h5v531h48v-622zM381 699h-68l-125 197h39l116 -130h8l117 130h38z" />
    <glyph glyph-name="ncaron" unicode="&#x148;" horiz-adv-x="505" 
d="M295 534h-68l-125 197h39l116 -130h8l117 130h38zM439 0h-72v297q0 64 -23 91t-71 27q-31 0 -66 -21.5t-63 -53.5v-340h-72v448l72 22v-75h5q78 78 159 78q64 0 97.5 -39.5t33.5 -108.5v-325z" />
    <glyph glyph-name="Omacron" unicode="&#x14c;" horiz-adv-x="729" 
d="M364 -15q-138 0 -229 90.5t-91 232.5q0 137 93 234.5t228 97.5q138 0 229 -90.5t91 -232.5q0 -137 -93 -234.5t-228 -97.5zM366 25q99 0 165 76t66 205q0 132 -68.5 213t-167.5 81t-164.5 -75.5t-65.5 -204.5q0 -132 68.5 -213.5t166.5 -81.5zM490 758h-252v43h252v-43z
" />
    <glyph glyph-name="omacron" unicode="&#x14d;" horiz-adv-x="530" 
d="M390 593h-252v43h252v-43zM261 -15q-101 0 -161 66t-60 173q0 109 62.5 179t166.5 70q101 0 161 -66t60 -173q0 -109 -62.5 -179t-166.5 -70zM268 25q63 0 103.5 52.5t40.5 144.5q0 102 -43.5 156.5t-107.5 54.5q-63 0 -103 -52.5t-40 -144.5q0 -102 43 -156.5t107 -54.5
z" />
    <glyph glyph-name="Obreve" unicode="&#x14e;" horiz-adv-x="729" 
d="M364 -15q-138 0 -229 90.5t-91 232.5q0 137 93 234.5t228 97.5q138 0 229 -90.5t91 -232.5q0 -137 -93 -234.5t-228 -97.5zM366 25q99 0 165 76t66 205q0 132 -68.5 213t-167.5 81t-164.5 -75.5t-65.5 -204.5q0 -132 68.5 -213.5t166.5 -81.5zM470 863h34
q-6 -77 -43.5 -115t-96.5 -38q-60 0 -97.5 37.5t-42.5 115.5h34q11 -53 35.5 -76t70.5 -23q45 0 70.5 23t35.5 76z" />
    <glyph glyph-name="obreve" unicode="&#x14f;" horiz-adv-x="530" 
d="M371 697h34q-6 -77 -43.5 -115t-96.5 -38t-97 37.5t-43 115.5h34q11 -53 35.5 -76t70.5 -23q45 0 70.5 23t35.5 76zM261 -15q-101 0 -161 66t-60 173q0 109 62.5 179t166.5 70q101 0 161 -66t60 -173q0 -109 -62.5 -179t-166.5 -70zM268 25q63 0 103.5 52.5t40.5 144.5
q0 102 -43.5 156.5t-107.5 54.5q-63 0 -103 -52.5t-40 -144.5q0 -102 43 -156.5t107 -54.5z" />
    <glyph glyph-name="Ohungarumlaut" unicode="&#x150;" horiz-adv-x="729" 
d="M364 -15q-138 0 -229 90.5t-91 232.5q0 137 93 234.5t228 97.5q138 0 229 -90.5t91 -232.5q0 -137 -93 -234.5t-228 -97.5zM366 25q99 0 165 76t66 205q0 132 -68.5 213t-167.5 81t-164.5 -75.5t-65.5 -204.5q0 -132 68.5 -213.5t166.5 -81.5zM307 699h-33l88 177h94z
M461 699h-34l89 177h94z" />
    <glyph glyph-name="ohungarumlaut" unicode="&#x151;" horiz-adv-x="530" 
d="M210 534h-33l88 177h94zM364 534h-34l89 177h94zM261 -15q-101 0 -161 66t-60 173q0 109 62.5 179t166.5 70q101 0 161 -66t60 -173q0 -109 -62.5 -179t-166.5 -70zM268 25q63 0 103.5 52.5t40.5 144.5q0 102 -43.5 156.5t-107.5 54.5q-63 0 -103 -52.5t-40 -144.5
q0 -102 43 -156.5t107 -54.5z" />
    <glyph glyph-name="OE" unicode="&#x152;" horiz-adv-x="888" 
d="M838 0h-450q-154 0 -249 86.5t-95 218.5q0 140 91.5 230t254.5 90h448v-58q-66 17 -170 17h-127v-246h216v-41h-216v-256h127q104 0 170 17v-58zM460 41v543h-85q-109 0 -176 -76t-67 -195q0 -127 70.5 -199.5t193.5 -72.5h64z" />
    <glyph glyph-name="oe" unicode="&#x153;" horiz-adv-x="848" 
d="M761 72l21 -35q-62 -52 -153 -52q-59 0 -106 27t-75 75q-60 -102 -187 -102q-101 0 -161 66t-60 173q0 109 62.5 179t166.5 70q126 0 184 -101q29 47 75.5 74t103.5 27q81 0 128.5 -50t47.5 -123q0 -26 -3 -47h-316q-1 -8 -1 -24q0 -87 44.5 -143t119.5 -56q61 0 109 42z
M494 291h238q0 68 -28.5 105t-77.5 37q-44 0 -81.5 -38.5t-50.5 -103.5zM268 25q63 0 103.5 52.5t40.5 144.5q0 102 -44 156.5t-107 54.5t-103 -52.5t-40 -144.5q0 -102 43 -156.5t107 -54.5z" />
    <glyph glyph-name="Racute" unicode="&#x154;" horiz-adv-x="548" 
d="M521 0h-95l-167 268l-97 4v-272h-82v624l179 4q112 3 169 -42.5t57 -117.5q0 -66 -39.5 -112t-108.5 -67zM247 585h-85v-268q24 -5 74 -5q73 0 118 36t45 101t-39.5 100.5t-112.5 35.5zM269 699h-33l90 177h92z" />
    <glyph glyph-name="racute" unicode="&#x155;" horiz-adv-x="358" 
d="M206 534h-33l90 177h92zM144 0h-72v448l72 22v-89h5q43 92 123 92q35 0 66 -17l-16 -72q-32 32 -66 32q-39 0 -69 -39t-43 -113v-264z" />
    <glyph glyph-name="Rcommaaccent" unicode="&#x156;" horiz-adv-x="548" 
d="M229 -292l-11 27q68 34 68 87q0 52 -71 73q0 23 15.5 38t41.5 15q32 0 55.5 -27t23.5 -62q0 -50 -34 -89t-88 -62zM521 0h-95l-167 268l-97 4v-272h-82v624l179 4q112 3 169 -42.5t57 -117.5q0 -66 -39.5 -112t-108.5 -67zM247 585h-85v-268q24 -5 74 -5q73 0 118 36
t45 101t-39.5 100.5t-112.5 35.5z" />
    <glyph glyph-name="rcommaaccent" unicode="&#x157;" horiz-adv-x="358" 
d="M56 -292l-11 27q68 34 68 87q0 52 -71 73q0 23 15.5 38t41.5 15q32 0 55.5 -27t23.5 -62q0 -50 -34 -89t-88 -62zM144 0h-72v448l72 22v-89h5q43 92 123 92q35 0 66 -17l-16 -72q-32 32 -66 32q-39 0 -69 -39t-43 -113v-264z" />
    <glyph glyph-name="Rcaron" unicode="&#x158;" horiz-adv-x="548" 
d="M521 0h-95l-167 268l-97 4v-272h-82v624l179 4q112 3 169 -42.5t57 -117.5q0 -66 -39.5 -112t-108.5 -67zM247 585h-85v-268q24 -5 74 -5q73 0 118 36t45 101t-39.5 100.5t-112.5 35.5zM296 699h-68l-125 197h39l116 -130h8l117 130h38z" />
    <glyph glyph-name="rcaron" unicode="&#x159;" horiz-adv-x="358" 
d="M233 534h-68l-125 197h39l116 -130h8l117 130h38zM144 0h-72v448l72 22v-89h5q43 92 123 92q35 0 66 -17l-16 -72q-32 32 -66 32q-39 0 -69 -39t-43 -113v-264z" />
    <glyph glyph-name="Sacute" unicode="&#x15a;" horiz-adv-x="514" 
d="M52 27l20 62q86 -65 170 -65q73 0 112 34.5t39 85.5q0 48 -34.5 79.5t-129.5 64.5q-92 31 -135.5 74.5t-43.5 109.5q0 72 55 120t158 48q104 0 182 -37l-19 -62q-31 26 -76.5 42.5t-93.5 16.5q-64 0 -101 -31t-37 -76q0 -48 37 -79t124 -61q100 -34 142.5 -77t42.5 -111
q0 -77 -60.5 -128.5t-166.5 -51.5t-185 42zM254 699h-33l90 177h92z" />
    <glyph glyph-name="sacute" unicode="&#x15b;" horiz-adv-x="408" 
d="M207 534h-34l90 177h93zM44 19l26 56q52 -50 118 -50q51 0 82 21.5t31 58.5q0 32 -28.5 54.5t-96.5 44.5q-70 22 -102 54.5t-32 84.5q0 54 44.5 92t122.5 38q83 0 144 -36l-24 -56q-56 52 -126 52q-44 0 -70 -18.5t-26 -50.5t25.5 -53t90.5 -43q79 -27 111 -58.5
t32 -81.5q0 -61 -46.5 -102t-131.5 -41q-78 0 -144 34z" />
    <glyph glyph-name="Scircumflex" unicode="&#x15c;" horiz-adv-x="514" 
d="M52 27l20 62q86 -65 170 -65q73 0 112 34.5t39 85.5q0 48 -34.5 79.5t-129.5 64.5q-92 31 -135.5 74.5t-43.5 109.5q0 72 55 120t158 48q104 0 182 -37l-19 -62q-31 26 -76.5 42.5t-93.5 16.5q-64 0 -101 -31t-37 -76q0 -48 37 -79t124 -61q100 -34 142.5 -77t42.5 -111
q0 -77 -60.5 -128.5t-166.5 -51.5t-185 42zM416 699h-38l-117 130h-8l-117 -130h-38l125 197h68z" />
    <glyph glyph-name="scircumflex" unicode="&#x15d;" horiz-adv-x="408" 
d="M368 534h-38l-117 130h-8l-117 -130h-38l125 197h68zM44 19l26 56q52 -50 118 -50q51 0 82 21.5t31 58.5q0 32 -28.5 54.5t-96.5 44.5q-70 22 -102 54.5t-32 84.5q0 54 44.5 92t122.5 38q83 0 144 -36l-24 -56q-56 52 -126 52q-44 0 -70 -18.5t-26 -50.5t25.5 -53
t90.5 -43q79 -27 111 -58.5t32 -81.5q0 -61 -46.5 -102t-131.5 -41q-78 0 -144 34z" />
    <glyph glyph-name="Scedilla" unicode="&#x15e;" horiz-adv-x="514" 
d="M151 -275v33q156 0 156 69q0 25 -24 38.5t-68 13.5q-38 0 -67 -5v23l85 88q-106 2 -181 42l20 62q86 -65 170 -65q73 0 112 34.5t39 85.5q0 48 -34.5 79.5t-129.5 64.5q-92 31 -135.5 74.5t-43.5 109.5q0 72 55 120t158 48q104 0 182 -37l-19 -62q-31 26 -76.5 42.5
t-93.5 16.5q-64 0 -101 -31t-37 -76q0 -48 37 -79t124 -61q100 -34 142.5 -77t42.5 -111q0 -70 -49.5 -119.5t-138.5 -58.5l-56 -58q67 3 109 -21t42 -67q0 -53 -53.5 -84.5t-166.5 -31.5z" />
    <glyph glyph-name="scedilla" unicode="&#x15f;" horiz-adv-x="408" 
d="M100 -275v33q156 0 156 69q0 25 -24 38.5t-68 13.5q-38 0 -67 -5v23l85 88q-75 2 -138 34l26 56q52 -50 118 -50q51 0 82 21.5t31 58.5q0 32 -28.5 54.5t-96.5 44.5q-70 22 -102 54.5t-32 84.5q0 54 44.5 92t122.5 38q83 0 144 -36l-24 -56q-56 52 -126 52
q-44 0 -70 -18.5t-26 -50.5t25.5 -53t90.5 -43q79 -27 111 -58.5t32 -81.5q0 -54 -36.5 -92.5t-104.5 -47.5l-56 -59q67 3 109 -21t42 -67q0 -53 -53.5 -84.5t-166.5 -31.5z" />
    <glyph glyph-name="Scaron" unicode="&#x160;" horiz-adv-x="514" 
d="M52 27l20 62q86 -65 170 -65q73 0 112 34.5t39 85.5q0 48 -34.5 79.5t-129.5 64.5q-92 31 -135.5 74.5t-43.5 109.5q0 72 55 120t158 48q104 0 182 -37l-19 -62q-31 26 -76.5 42.5t-93.5 16.5q-64 0 -101 -31t-37 -76q0 -48 37 -79t124 -61q100 -34 142.5 -77t42.5 -111
q0 -77 -60.5 -128.5t-166.5 -51.5t-185 42zM294 699h-68l-125 197h39l116 -130h8l117 130h38z" />
    <glyph glyph-name="scaron" unicode="&#x161;" horiz-adv-x="408" 
d="M243 534h-68l-125 197h39l116 -130h8l117 130h38zM44 19l26 56q52 -50 118 -50q51 0 82 21.5t31 58.5q0 32 -28.5 54.5t-96.5 44.5q-70 22 -102 54.5t-32 84.5q0 54 44.5 92t122.5 38q83 0 144 -36l-24 -56q-56 52 -126 52q-44 0 -70 -18.5t-26 -50.5t25.5 -53t90.5 -43
q79 -27 111 -58.5t32 -81.5q0 -61 -46.5 -102t-131.5 -41q-78 0 -144 34z" />
    <glyph glyph-name="Tcommaaccent" unicode="&#x162;" horiz-adv-x="560" 
d="M229 -292l-12 27q69 34 69 87q0 52 -72 73q0 23 15.5 38t42.5 15q32 0 55.5 -27t23.5 -62q0 -50 -34 -89t-88 -62zM321 0h-82v584h-52q-93 0 -159 -17v58h504v-58q-66 17 -159 17h-52v-584z" />
    <glyph glyph-name="tcommaaccent" unicode="&#x163;" horiz-adv-x="346" 
d="M156 -292l-12 27q68 34 68 87q0 52 -71 73q0 23 15.5 38t42.5 15q32 0 55 -27t23 -62q0 -50 -34 -89t-87 -62zM304 75l20 -37q-48 -53 -117 -53q-112 0 -112 140v291h-75v42h75v135l72 22v-157h144v-42h-144v-301q0 -81 58 -81q41 0 79 41z" />
    <glyph glyph-name="Tcaron" unicode="&#x164;" horiz-adv-x="560" 
d="M321 0h-82v584h-52q-93 0 -159 -17v58h504v-58q-66 17 -159 17h-52v-584zM314 699h-68l-125 197h39l116 -130h8l117 130h38z" />
    <glyph glyph-name="tcaron" unicode="&#x165;" horiz-adv-x="402" 
d="M289 506l-12 27q68 34 68 87q0 52 -71 73q0 23 15.5 38t42.5 15q32 0 55 -27t23 -62q0 -50 -34 -89t-87 -62zM304 75l20 -37q-48 -53 -117 -53q-112 0 -112 140v291h-75v42h75v135l72 22v-157h144v-42h-144v-301q0 -81 58 -81q41 0 79 41z" />
    <glyph glyph-name="Umacron" unicode="&#x16a;" horiz-adv-x="618" 
d="M493 212v413h49v-419q0 -101 -64.5 -161t-169.5 -60q-106 0 -169 59.5t-63 167.5v413h82v-402q0 -91 47 -136.5t124 -45.5q74 0 119 46.5t45 124.5zM447 758h-252v43h252v-43z" />
    <glyph glyph-name="umacron" unicode="&#x16b;" horiz-adv-x="505" 
d="M376 593h-252v43h252v-43zM433 0h-72v63h-5q-76 -78 -159 -78q-64 0 -97.5 39.5t-33.5 108.5v325h72v-297q0 -63 23.5 -90.5t70.5 -27.5q32 0 66.5 21t62.5 54v340h72v-458z" />
    <glyph glyph-name="Ubreve" unicode="&#x16c;" horiz-adv-x="618" 
d="M493 212v413h49v-419q0 -101 -64.5 -161t-169.5 -60q-106 0 -169 59.5t-63 167.5v413h82v-402q0 -91 47 -136.5t124 -45.5q74 0 119 46.5t45 124.5zM428 863h34q-6 -77 -43.5 -115t-96.5 -38q-60 0 -97.5 37.5t-42.5 115.5h34q11 -53 35.5 -76t70.5 -23q45 0 70.5 23
t35.5 76z" />
    <glyph glyph-name="ubreve" unicode="&#x16d;" horiz-adv-x="505" 
d="M357 697h34q-6 -77 -43.5 -115t-96.5 -38t-97 37.5t-43 115.5h34q10 -52 35.5 -75.5t70.5 -23.5q46 0 71 23t35 76zM433 0h-72v63h-5q-76 -78 -159 -78q-64 0 -97.5 39.5t-33.5 108.5v325h72v-297q0 -63 23.5 -90.5t70.5 -27.5q32 0 66.5 21t62.5 54v340h72v-458z" />
    <glyph glyph-name="Uring" unicode="&#x16e;" horiz-adv-x="618" 
d="M493 212v413h49v-419q0 -101 -64.5 -161t-169.5 -60q-106 0 -169 59.5t-63 167.5v413h82v-402q0 -91 47 -136.5t124 -45.5q74 0 119 46.5t45 124.5zM324 687q-50 0 -80 32t-30 79t30 79t80 32t80 -32t30 -79t-30 -79t-80 -32zM324 723q31 0 50.5 22.5t19.5 52.5
t-19.5 52.5t-50.5 22.5q-32 0 -51.5 -23t-19.5 -52t19.5 -52t51.5 -23z" />
    <glyph glyph-name="uring" unicode="&#x16f;" horiz-adv-x="505" 
d="M254 522q-50 0 -80 32t-30 79t30 79t80 32t80 -32t30 -79t-30 -79t-80 -32zM254 558q31 0 50.5 22.5t19.5 52.5t-19.5 52.5t-50.5 22.5q-32 0 -51.5 -23t-19.5 -52t19.5 -52t51.5 -23zM433 0h-72v63h-5q-76 -78 -159 -78q-64 0 -97.5 39.5t-33.5 108.5v325h72v-297
q0 -63 23.5 -90.5t70.5 -27.5q32 0 66.5 21t62.5 54v340h72v-458z" />
    <glyph glyph-name="Uhungarumlaut" unicode="&#x170;" horiz-adv-x="618" 
d="M493 212v413h49v-419q0 -101 -64.5 -161t-169.5 -60q-106 0 -169 59.5t-63 167.5v413h82v-402q0 -91 47 -136.5t124 -45.5q74 0 119 46.5t45 124.5zM261 699h-33l88 177h94zM415 699h-34l89 177h94z" />
    <glyph glyph-name="uhungarumlaut" unicode="&#x171;" horiz-adv-x="505" 
d="M187 534h-33l88 177h94zM341 534h-34l88 177h94zM433 0h-72v63h-5q-76 -78 -159 -78q-64 0 -97.5 39.5t-33.5 108.5v325h72v-297q0 -63 23.5 -90.5t70.5 -27.5q32 0 66.5 21t62.5 54v340h72v-458z" />
    <glyph glyph-name="Uogonek" unicode="&#x172;" horiz-adv-x="618" 
d="M465 -167l17 -25q-38 -54 -109 -54q-47 0 -74 26.5t-27 73.5q0 32 23.5 68.5t63.5 66.5q-21 -4 -51 -4q-106 0 -169 59.5t-63 167.5v413h82v-402q0 -91 47 -136.5t124 -45.5q74 0 119 46.5t45 124.5v413h49v-419q0 -65 -28.5 -115t-79.5 -77q-44 -28 -71.5 -69.5
t-27.5 -77.5q0 -67 64 -67q37 0 66 33z" />
    <glyph glyph-name="uogonek" unicode="&#x173;" horiz-adv-x="505" 
d="M483 -167l17 -25q-38 -54 -109 -54q-47 0 -74 26.5t-27 73.5q0 36 27 75.5t74 70.5h-30v63h-5q-76 -78 -159 -78q-64 0 -97.5 39.5t-33.5 108.5v325h72v-297q0 -63 23.5 -90.5t70.5 -27.5q32 0 66.5 21t62.5 54v340h72v-458q-80 -64 -80 -133q0 -67 64 -67q37 0 66 33z
" />
    <glyph glyph-name="Wcircumflex" unicode="&#x174;" horiz-adv-x="856" 
d="M635 -3h-60l-146 415h-5l-143 -415h-60l-199 628h87l161 -526h4l132 384l-50 142h85l177 -526h4l164 526h48zM587 699h-38l-117 130h-8l-117 -130h-38l125 197h68z" />
    <glyph glyph-name="wcircumflex" unicode="&#x175;" horiz-adv-x="688" 
d="M507 -2h-48l-113 301l-117 -301h-47l-162 460h78l127 -371l101 265l-40 106h77l132 -372l126 372h47zM509 534h-38l-116 130h-9l-117 -130h-37l124 197h69z" />
    <glyph glyph-name="Ycircumflex" unicode="&#x176;" horiz-adv-x="562" 
d="M323 0h-82v264l-219 361h93l182 -308h8l184 308h51l-217 -361v-264zM455 699h-38l-117 130h-8l-117 -130h-38l125 197h68z" />
    <glyph glyph-name="ycircumflex" unicode="&#x177;" horiz-adv-x="457" 
d="M175 -132l46 126l-201 464h80l156 -372l134 372h47l-224 -606q-22 -60 -52 -86.5t-73 -26.5q-37 0 -65 14l17 74q31 -37 60 -37q26 0 43 18t32 60zM404 534h-39l-116 130h-8l-117 -130h-38l125 197h68z" />
    <glyph glyph-name="Ydieresis" unicode="&#x178;" horiz-adv-x="562" 
d="M323 0h-82v264l-219 361h93l182 -308h8l184 308h51l-217 -361v-264zM201 725q-22 0 -37.5 16t-15.5 38q0 23 15.5 39t37.5 16t37.5 -16t15.5 -39t-15.5 -38.5t-37.5 -15.5zM391 725q-23 0 -38.5 15.5t-15.5 38.5t15.5 39t38.5 16q22 0 37.5 -16t15.5 -39q0 -22 -15.5 -38
t-37.5 -16z" />
    <glyph glyph-name="Zacute" unicode="&#x179;" horiz-adv-x="547" 
d="M499 0h-467v33l381 551h-188q-109 0 -170 -17v58h460v-34l-381 -550h195q101 0 170 16v-57zM266 699h-33l90 177h92z" />
    <glyph glyph-name="zacute" unicode="&#x17a;" horiz-adv-x="447" 
d="M410 0h-376v31l284 387h-105q-105 0 -161 -15v55h359v-31l-284 -387h121q105 0 162 15v-55zM220 534h-34l90 177h93z" />
    <glyph glyph-name="Zdotaccent" unicode="&#x17b;" horiz-adv-x="547" 
d="M499 0h-467v33l381 551h-188q-109 0 -170 -17v58h460v-34l-381 -550h195q101 0 170 16v-57zM269 726q-22 0 -37.5 16t-15.5 38q0 23 15.5 39t37.5 16t37.5 -16t15.5 -39t-15.5 -38.5t-37.5 -15.5z" />
    <glyph glyph-name="zdotaccent" unicode="&#x17c;" horiz-adv-x="447" 
d="M410 0h-376v31l284 387h-105q-105 0 -161 -15v55h359v-31l-284 -387h121q105 0 162 15v-55zM224 560q-22 0 -37.5 16t-15.5 38q0 23 15.5 39t37.5 16t37.5 -16t15.5 -39t-15.5 -38.5t-37.5 -15.5z" />
    <glyph glyph-name="Zcaron" unicode="&#x17d;" horiz-adv-x="547" 
d="M499 0h-467v33l381 551h-188q-109 0 -170 -17v58h460v-34l-381 -550h195q101 0 170 16v-57zM308 699h-68l-125 197h39l116 -130h8l117 130h38z" />
    <glyph glyph-name="zcaron" unicode="&#x17e;" horiz-adv-x="447" 
d="M410 0h-376v31l284 387h-105q-105 0 -161 -15v55h359v-31l-284 -387h121q105 0 162 15v-55zM258 534h-69l-124 197h38l116 -130h9l117 130h37z" />
    <glyph glyph-name="florin" unicode="&#x192;" horiz-adv-x="550" 
d="M447 338h-135l-33 -195q-12 -74 -55 -116t-99 -42q-57 0 -107 31l28 58q35 -49 77 -49q34 0 52.5 30t28.5 87l34 196h-78v38h84l16 94q15 84 56.5 127t102.5 43q58 0 111 -33l-27 -58q-38 51 -79 51q-68 0 -87 -117l-18 -107h128v-38z" />
    <glyph glyph-name="Aringacute" unicode="&#x1fa;" horiz-adv-x="545" 
d="M278 829h-33l89 177h93zM525 0h-87l-69 213h-232l-70 -213h-47l196 587q-54 29 -54 98q0 47 30 79t80 32t80 -32t30 -79q0 -68 -54 -98zM355 254l-98 299h-7l-99 -299h204zM272 610q31 0 50.5 22.5t19.5 52.5t-19.5 52.5t-50.5 22.5q-32 0 -51.5 -23t-19.5 -52t19.5 -52
t51.5 -23z" />
    <glyph glyph-name="aringacute" unicode="&#x1fb;" horiz-adv-x="455" 
d="M227 522q-50 0 -80 32.5t-30 79.5t30 79t80 32t80 -32t30 -79t-30 -79.5t-80 -32.5zM227 558q31 0 50 23t19 53t-19 52.5t-50 22.5q-32 0 -51.5 -23t-19.5 -52q0 -30 19.5 -53t51.5 -23zM235 779h-33l89 177h93zM389 0h-72v68h-4q-61 -83 -152 -83q-51 0 -88 35t-37 86
q0 66 64 108.5t201 76.5l16 4q0 72 -22 104.5t-71 32.5q-77 0 -128 -80l-35 50q81 71 173 71q83 0 119 -46t36 -138v-289zM317 123v135l-22 -6q-182 -49 -182 -133q0 -35 22 -58t54 -23q67 0 128 85z" />
    <glyph glyph-name="AEacute" unicode="&#x1fc;" horiz-adv-x="823" 
d="M773 0h-379v206h-217l-116 -206h-53l349 625h416v-58q-66 17 -170 17h-127v-246h216v-41h-216v-256h127q104 0 170 17v-58zM394 247v337h-7l-188 -337h195zM535 699h-33l90 177h92z" />
    <glyph glyph-name="aeacute" unicode="&#x1fd;" horiz-adv-x="744" 
d="M393 534h-33l89 177h93zM657 72l21 -35q-62 -52 -154 -52q-61 0 -110 29t-77 81q-64 -110 -173 -110q-53 0 -90.5 34.5t-37.5 86.5q0 66 62.5 108t199.5 77l17 4q0 72 -21.5 104.5t-70.5 32.5q-37 0 -72.5 -21t-59.5 -59l-35 50q81 71 176 71q101 0 134 -74q64 74 162 74
q81 0 128.5 -50.5t47.5 -123.5q0 -25 -3 -46h-316q-1 -8 -1 -24q0 -87 44.5 -143t119.5 -56q59 0 109 42zM389 291h239q0 67 -28.5 104t-77.5 37q-45 0 -82.5 -38t-50.5 -103zM307 256l-11 -3q-99 -29 -141 -60t-42 -73q0 -36 22 -59t54 -23q73 0 133 92q-16 45 -16 94
q0 22 1 32z" />
    <glyph glyph-name="Oslashacute" unicode="&#x1fe;" horiz-adv-x="729" 
d="M166 -72h-45l62 108q-65 43 -102 113.5t-37 158.5q0 137 93 234.5t228 97.5q81 0 149 -34l50 85h44l-60 -104q64 -42 100.5 -112t36.5 -158q0 -137 -93 -234.5t-228 -97.5q-82 0 -147 33zM215 90l272 469q-58 41 -126 41q-99 0 -164.5 -75.5t-65.5 -204.5q0 -146 84 -230
zM516 533l-272 -469q56 -39 122 -39q99 0 165 76t66 205q0 143 -81 227zM372 699h-33l90 177h92z" />
    <glyph glyph-name="oslashacute" unicode="&#x1ff;" horiz-adv-x="530" 
d="M286 534h-33l89 177h93zM77 -131l-30 16l81 141q-88 63 -88 198q0 109 62.5 179t166.5 70q57 0 103 -23l81 138l30 -15l-82 -141q89 -64 89 -198q0 -109 -62.5 -179t-166.5 -70q-58 0 -104 23zM160 82l185 320q-37 31 -84 31q-63 0 -103 -52.5t-40 -144.5q0 -99 42 -154z
M369 376l-185 -321q38 -30 84 -30q63 0 103.5 52.5t40.5 144.5q0 98 -43 154z" />
    <glyph glyph-name="Scommaaccent" unicode="&#x218;" horiz-adv-x="514" 
d="M204 -291l-12 26q69 34 69 87t-72 74q0 23 15.5 37.5t42.5 14.5q32 0 55.5 -27t23.5 -62q0 -50 -34 -88.5t-88 -61.5zM52 27l20 62q86 -65 170 -65q73 0 112 34.5t39 85.5q0 48 -34.5 79.5t-129.5 64.5q-92 31 -135.5 74.5t-43.5 109.5q0 72 55 120t158 48q104 0 182 -37
l-19 -62q-31 26 -76.5 42.5t-93.5 16.5q-64 0 -101 -31t-37 -76q0 -48 37 -79t124 -61q100 -34 142.5 -77t42.5 -111q0 -77 -60.5 -128.5t-166.5 -51.5t-185 42z" />
    <glyph glyph-name="scommaaccent" unicode="&#x219;" horiz-adv-x="408" 
d="M156 -292l-11 27q68 34 68 87q0 52 -71 73q0 23 15.5 38t41.5 15q32 0 55.5 -27t23.5 -62q0 -50 -34 -89t-88 -62zM44 19l26 56q52 -50 118 -50q51 0 82 21.5t31 58.5q0 32 -28.5 54.5t-96.5 44.5q-70 22 -102 54.5t-32 84.5q0 54 44.5 92t122.5 38q83 0 144 -36l-24 -56
q-56 52 -126 52q-44 0 -70 -18.5t-26 -50.5t25.5 -53t90.5 -43q79 -27 111 -58.5t32 -81.5q0 -61 -46.5 -102t-131.5 -41q-78 0 -144 34z" />
    <glyph glyph-name="uni021A" unicode="&#x21a;" horiz-adv-x="560" 
d="M229 -292l-12 27q69 34 69 87q0 52 -72 73q0 23 15.5 38t42.5 15q32 0 55.5 -27t23.5 -62q0 -50 -34 -89t-88 -62zM321 0h-82v584h-52q-93 0 -159 -17v58h504v-58q-66 17 -159 17h-52v-584z" />
    <glyph glyph-name="uni021B" unicode="&#x21b;" horiz-adv-x="346" 
d="M156 -292l-12 27q68 34 68 87q0 52 -71 73q0 23 15.5 38t42.5 15q32 0 55 -27t23 -62q0 -50 -34 -89t-87 -62zM304 75l20 -37q-48 -53 -117 -53q-112 0 -112 140v291h-75v42h75v135l72 22v-157h144v-42h-144v-301q0 -81 58 -81q41 0 79 41z" />
    <glyph glyph-name="dotlessj" unicode="&#x237;" horiz-adv-x="217" 
d="M72 -110v558l72 22v-521q0 -111 -38 -160.5t-117 -49.5q-41 0 -83 19l16 62q32 -40 75 -40q36 0 55.5 28.5t19.5 81.5z" />
    <glyph glyph-name="circumflex" unicode="&#x2c6;" horiz-adv-x="400" 
d="M359 534h-38l-117 130h-8l-117 -130h-38l125 197h68z" />
    <glyph glyph-name="caron" unicode="&#x2c7;" horiz-adv-x="400" 
d="M234 534h-68l-125 197h39l116 -130h8l117 130h38z" />
    <glyph glyph-name="breve" unicode="&#x2d8;" horiz-adv-x="400" 
d="M306 698h34q-6 -77 -43.5 -115t-96.5 -38q-60 0 -97.5 37.5t-42.5 115.5h34q11 -53 35.5 -76t70.5 -23q45 0 70.5 23t35.5 76z" />
    <glyph glyph-name="dotaccent" unicode="&#x2d9;" horiz-adv-x="400" 
d="M200 561q-22 0 -37.5 16t-15.5 38q0 23 15.5 39t37.5 16t37.5 -16t15.5 -39t-15.5 -38.5t-37.5 -15.5z" />
    <glyph glyph-name="ring" unicode="&#x2da;" horiz-adv-x="400" 
d="M200 522q-50 0 -80 32t-30 79t30 79t80 32t80 -32t30 -79t-30 -79t-80 -32zM200 558q31 0 50.5 22.5t19.5 52.5t-19.5 52.5t-50.5 22.5q-32 0 -51.5 -23t-19.5 -52t19.5 -52t51.5 -23z" />
    <glyph glyph-name="ogonek" unicode="&#x2db;" horiz-adv-x="400" 
d="M319 -167l17 -25q-38 -54 -109 -54q-47 0 -74 26.5t-27 73.5q0 40 33.5 84.5t91.5 75.5h38q-48 -31 -74 -71t-26 -76q0 -67 64 -67q37 0 66 33z" />
    <glyph glyph-name="tilde" unicode="&#x2dc;" horiz-adv-x="400" 
d="M337 681h35q-21 -118 -108 -118q-27 0 -54 17.5t-49 35t-38 17.5q-44 0 -61 -63h-35q21 118 107 118q28 0 55.5 -17.5t49.5 -35t38 -17.5q43 0 60 63z" />
    <glyph glyph-name="hungarumlaut" unicode="&#x2dd;" horiz-adv-x="400" 
d="M129 534h-33l88 177h94zM283 534h-34l89 177h94z" />
    <glyph glyph-name="Wgrave" unicode="&#x1e80;" horiz-adv-x="856" 
d="M635 -3h-60l-146 415h-5l-143 -415h-60l-199 628h87l161 -526h4l132 384l-50 142h85l177 -526h4l164 526h48zM427 699h-33l-149 177h92z" />
    <glyph glyph-name="wgrave" unicode="&#x1e81;" horiz-adv-x="688" 
d="M507 -2h-48l-113 301l-117 -301h-47l-162 460h78l127 -371l101 265l-40 106h77l132 -372l126 372h47zM361 534h-33l-149 177h93z" />
    <glyph glyph-name="Wacute" unicode="&#x1e82;" horiz-adv-x="856" 
d="M635 -3h-60l-146 415h-5l-143 -415h-60l-199 628h87l161 -526h4l132 384l-50 142h85l177 -526h4l164 526h48zM407 699h-33l90 177h92z" />
    <glyph glyph-name="wacute" unicode="&#x1e83;" horiz-adv-x="688" 
d="M507 -2h-48l-113 301l-117 -301h-47l-162 460h78l127 -371l101 265l-40 106h77l132 -372l126 372h47zM331 534h-34l90 177h93z" />
    <glyph glyph-name="Wdieresis" unicode="&#x1e84;" horiz-adv-x="856" 
d="M635 -3h-60l-146 415h-5l-143 -415h-60l-199 628h87l161 -526h4l132 384l-50 142h85l177 -526h4l164 526h48zM333 725q-22 0 -37.5 16t-15.5 38q0 23 15.5 39t37.5 16t37.5 -16t15.5 -39t-15.5 -38.5t-37.5 -15.5zM523 725q-23 0 -38.5 15.5t-15.5 38.5t15.5 39t38.5 16
q22 0 37.5 -16t15.5 -39q0 -22 -15.5 -38t-37.5 -16z" />
    <glyph glyph-name="wdieresis" unicode="&#x1e85;" horiz-adv-x="688" 
d="M507 -2h-48l-113 301l-117 -301h-47l-162 460h78l127 -371l101 265l-40 106h77l132 -372l126 372h47zM249 560q-22 0 -37.5 16t-15.5 38q0 23 15.5 39t37.5 16t37.5 -16t15.5 -39t-15.5 -38.5t-37.5 -15.5zM439 560q-22 0 -37.5 15.5t-15.5 38.5t15.5 39t37.5 16
t37.5 -16t15.5 -39q0 -22 -15.5 -38t-37.5 -16z" />
    <glyph glyph-name="thinspace" unicode="&#x2009;" horiz-adv-x="121" 
 />
    <glyph glyph-name="endash" unicode="&#x2013;" horiz-adv-x="492" 
d="M437 243h-382v48h382v-48z" />
    <glyph glyph-name="emdash" unicode="&#x2014;" horiz-adv-x="940" 
d="M885 243h-830v48h830v-48z" />
    <glyph glyph-name="quoteleft" unicode="&#x2018;" horiz-adv-x="236" 
d="M174 666l19 -25q-78 -63 -78 -127q0 -61 74 -86q0 -26 -17.5 -42.5t-48.5 -16.5q-33 0 -59 29t-26 69q0 104 136 199z" />
    <glyph glyph-name="quoteright" unicode="&#x2019;" horiz-adv-x="236" 
d="M62 362l-19 25q78 60 78 127q0 60 -74 86q0 26 17.5 42.5t48.5 16.5q33 0 59 -29t26 -69q0 -104 -136 -199z" />
    <glyph glyph-name="quotesinglbase" unicode="&#x201a;" horiz-adv-x="226" 
d="M60 -188l-19 25q78 61 78 125q0 60 -74 86q0 25 17.5 41.5t48.5 16.5q33 0 59 -28.5t26 -68.5q0 -102 -136 -197z" />
    <glyph glyph-name="quotedblleft" unicode="&#x201c;" horiz-adv-x="444" 
d="M382 666l19 -25q-78 -63 -78 -127q0 -61 74 -86q0 -26 -17.5 -42.5t-48.5 -16.5q-33 0 -59 29t-26 69q0 104 136 199zM174 666l19 -25q-78 -63 -78 -127q0 -61 74 -86q0 -26 -17.5 -42.5t-48.5 -16.5q-33 0 -59 29t-26 69q0 104 136 199z" />
    <glyph glyph-name="quotedblright" unicode="&#x201d;" horiz-adv-x="444" 
d="M62 362l-19 25q78 60 78 127q0 60 -74 86q0 26 17.5 42.5t48.5 16.5q33 0 59 -29t26 -69q0 -104 -136 -199zM270 362l-19 25q78 60 78 127q0 60 -74 86q0 26 17.5 42.5t48.5 16.5q33 0 59 -29t26 -69q0 -104 -136 -199z" />
    <glyph glyph-name="quotedblbase" unicode="&#x201e;" horiz-adv-x="441" 
d="M63 -188l-19 25q78 61 78 125q0 60 -74 86q0 25 17.5 41.5t48.5 16.5q33 0 59 -28.5t26 -68.5q0 -102 -136 -197zM271 -188l-19 25q78 61 78 125q0 60 -74 86q0 25 17.5 41.5t48.5 16.5q33 0 59 -28.5t26 -68.5q0 -102 -136 -197z" />
    <glyph glyph-name="dagger" unicode="&#x2020;" horiz-adv-x="470" 
d="M259 -156h-49v569h-165v42h165v170h49v-170h166v-42h-166v-569z" />
    <glyph glyph-name="daggerdbl" unicode="&#x2021;" horiz-adv-x="470" 
d="M259 -156h-49v179h-165v42h165v348h-165v42h165v170h49v-170h166v-42h-166v-348h166v-42h-166v-179z" />
    <glyph glyph-name="bullet" unicode="&#x2022;" horiz-adv-x="455" 
d="M228 46q-76 0 -130.5 54t-54.5 131t54.5 131t130.5 54t130.5 -54t54.5 -131t-54.5 -131t-130.5 -54z" />
    <glyph glyph-name="ellipsis" unicode="&#x2026;" horiz-adv-x="673" 
d="M113 -14q-24 0 -41.5 17.5t-17.5 41.5t17.5 41.5t41.5 17.5t41.5 -17.5t17.5 -41.5t-17.5 -41.5t-41.5 -17.5zM337 -14q-25 0 -42 17.5t-17 41.5t17 41.5t42 17.5q24 0 41 -17.5t17 -41.5t-17 -41.5t-41 -17.5zM560 -14q-25 0 -42 17.5t-17 41.5t17 41.5t42 17.5
q24 0 41.5 -17.5t17.5 -41.5t-17.5 -41.5t-41.5 -17.5z" />
    <glyph glyph-name="perthousand" unicode="&#x2030;" horiz-adv-x="1004" 
d="M119 0h-47l485 625h46zM172 344q-64 0 -100.5 44t-36.5 109q0 64 36.5 108.5t100.5 44.5q63 0 99.5 -44.5t36.5 -108.5q0 -65 -36.5 -109t-99.5 -44zM172 378q29 0 48.5 29.5t19.5 89.5t-19.5 88.5t-48.5 28.5t-48.5 -28.5t-19.5 -88.5t19.5 -89.5t48.5 -29.5zM507 -24
q-63 0 -100 44t-37 109q0 64 37 108.5t100 44.5t100 -44.5t37 -108.5q0 -65 -37 -109t-100 -44zM507 10q29 0 48.5 29.5t19.5 89.5t-19.5 88.5t-48.5 28.5t-48.5 -28.5t-19.5 -88.5t19.5 -89.5t48.5 -29.5zM834 -24q-64 0 -101 44t-37 109q0 64 37 108.5t101 44.5
q62 0 99 -44.5t37 -108.5q0 -65 -37 -109t-99 -44zM834 10q29 0 48.5 29.5t19.5 89.5t-19.5 88.5t-48.5 28.5t-48.5 -28.5t-19.5 -88.5t19.5 -89.5t48.5 -29.5z" />
    <glyph glyph-name="guilsinglleft" unicode="&#x2039;" horiz-adv-x="347" 
d="M284 59l-249 175v47l249 175l18 -25l-183 -174l183 -173z" />
    <glyph glyph-name="guilsinglright" unicode="&#x203a;" horiz-adv-x="347" 
d="M312 234l-249 -175l-18 25l183 173l-183 174l18 25l249 -175v-47z" />
    <glyph glyph-name="fraction" unicode="&#x2044;" 
d="M38 -15h-50l475 655h50z" />
    <glyph glyph-name="zerosuperior" unicode="&#x2070;" horiz-adv-x="342" 
d="M170 262q-65 0 -105.5 50t-40.5 146q0 94 41.5 149t106.5 55t105.5 -50t40.5 -146q0 -94 -41.5 -149t-106.5 -55zM173 296q75 0 75 156q0 94 -19.5 135t-60.5 41q-75 0 -75 -156q0 -94 19.5 -135t60.5 -41z" />
    <glyph glyph-name="foursuperior" unicode="&#x2074;" horiz-adv-x="342" 
d="M266 273h-66v92h-173l-6 37l194 252h51v-243h54v-46h-54v-92zM200 411v167h-3l-128 -167h131z" />
    <glyph glyph-name="fivesuperior" unicode="&#x2075;" horiz-adv-x="342" 
d="M40 298l27 45q33 -46 87 -46q38 0 59 20.5t21 54.5q0 79 -173 97l34 182h195v-58h-173l-13 -67q96 -11 142 -49t46 -91q0 -52 -38 -88t-102 -36q-67 0 -112 36z" />
    <glyph glyph-name="sixsuperior" unicode="&#x2076;" horiz-adv-x="342" 
d="M103 479l2 -3q42 31 93 31q50 0 81.5 -33t31.5 -83q0 -57 -41 -93t-98 -36q-63 0 -101.5 42.5t-38.5 106.5q0 99 71 168t184 88l8 -30q-154 -35 -192 -158zM102 440q-4 -14 -4 -38q0 -42 21.5 -74.5t57.5 -32.5q31 0 49 22.5t18 57.5q0 40 -22.5 64t-55.5 24
q-37 0 -64 -23z" />
    <glyph glyph-name="sevensuperior" unicode="&#x2077;" horiz-adv-x="342" 
d="M128 268h-50l175 325h-214v58h270l4 -28z" />
    <glyph glyph-name="eightsuperior" unicode="&#x2078;" horiz-adv-x="342" 
d="M110 456v3q-71 35 -71 97q0 41 35.5 73.5t98.5 32.5q54 0 89.5 -27t35.5 -70q0 -57 -69 -88v-1q81 -44 81 -107q0 -45 -38 -76t-104 -31q-58 0 -97.5 27t-39.5 72q0 64 79 95zM194 490q35 24 38 58q0 36 -17.5 58t-51.5 22q-29 0 -46 -16t-17 -39q0 -28 19.5 -44.5
t74.5 -38.5zM142 443q-45 -29 -45 -76q0 -33 21.5 -52.5t58.5 -19.5q33 0 52 16.5t19 41.5q0 27 -23 47t-83 43z" />
    <glyph glyph-name="ninesuperior" unicode="&#x2079;" horiz-adv-x="342" 
d="M240 484q4 14 4 38q0 42 -21.5 74.5t-57.5 32.5q-31 0 -49 -22.5t-18 -58.5q0 -39 22 -63.5t56 -24.5q36 0 64 24zM55 257l-9 30q153 35 193 158l-3 3q-40 -31 -92 -31q-50 0 -81.5 32.5t-31.5 82.5q0 57 41 93.5t98 36.5q63 0 101 -42.5t38 -107.5q0 -99 -70.5 -168
t-183.5 -87z" />
    <glyph glyph-name="plussuperior" unicode="&#x207a;" horiz-adv-x="342" 
d="M189 338h-34v107h-107v35h107v106h34v-106h106v-35h-106v-107z" />
    <glyph glyph-name="minussuperior" unicode="&#x207b;" horiz-adv-x="342" 
d="M295 445h-247v35h247v-35z" />
    <glyph glyph-name="zeroinferior" unicode="&#x2080;" horiz-adv-x="342" 
d="M170 -154q-65 0 -105.5 50t-40.5 146q0 94 41.5 149t106.5 55t105.5 -50t40.5 -146q0 -94 -41.5 -149t-106.5 -55zM173 -120q75 0 75 156q0 94 -19.5 135t-60.5 41q-75 0 -75 -156q0 -94 19.5 -135t60.5 -41z" />
    <glyph glyph-name="oneinferior" unicode="&#x2081;" horiz-adv-x="342" 
d="M227 -143h-66v314h-86v28l152 46v-388z" />
    <glyph glyph-name="twoinferior" unicode="&#x2082;" horiz-adv-x="342" 
d="M304 -143h-264v33q23 23 69 64t67 61.5t40 53.5t19 64q0 29 -20 46.5t-57 17.5q-52 0 -104 -46l-20 25q67 70 147 70q57 0 90.5 -30t33.5 -82q0 -45 -45.5 -96.5t-141.5 -117.5v-5h186v-58z" />
    <glyph glyph-name="threeinferior" unicode="&#x2083;" horiz-adv-x="342" 
d="M40 -118l27 45q34 -46 90 -46q35 0 58.5 21.5t23.5 54.5t-20.5 51t-55.5 18q-27 0 -52 -11l-11 28q61 30 88.5 54t27.5 54q0 22 -15.5 35t-45.5 13q-49 0 -97 -41l-21 25q68 63 147 63q43 0 72.5 -22t29.5 -56q0 -56 -90 -103v-4q46 5 79.5 -21t33.5 -71
q0 -50 -45.5 -86.5t-106.5 -36.5q-70 0 -117 36z" />
    <glyph glyph-name="fourinferior" unicode="&#x2084;" horiz-adv-x="342" 
d="M266 -143h-66v92h-173l-6 37l194 252h51v-243h54v-46h-54v-92zM200 -5v167h-3l-128 -167h131z" />
    <glyph glyph-name="fiveinferior" unicode="&#x2085;" horiz-adv-x="342" 
d="M40 -118l27 45q33 -46 87 -46q38 0 59 20.5t21 54.5q0 79 -173 97l34 182h195v-58h-173l-13 -67q96 -11 142 -49t46 -91q0 -52 -38 -88t-102 -36q-67 0 -112 36z" />
    <glyph glyph-name="sixinferior" unicode="&#x2086;" horiz-adv-x="342" 
d="M103 63l2 -3q42 31 93 31q50 0 81.5 -33t31.5 -83q0 -57 -41 -93t-98 -36q-63 0 -101.5 42.5t-38.5 106.5q0 99 71 168t184 88l8 -30q-154 -35 -192 -158zM102 24q-4 -14 -4 -38q0 -42 21.5 -74.5t57.5 -32.5q31 0 49 22.5t18 57.5q0 40 -22.5 64t-55.5 24q-37 0 -64 -23
z" />
    <glyph glyph-name="seveninferior" unicode="&#x2087;" horiz-adv-x="342" 
d="M128 -148h-50l175 325h-214v58h270l4 -28z" />
    <glyph glyph-name="eightinferior" unicode="&#x2088;" horiz-adv-x="342" 
d="M110 40v3q-70 36 -70 97q0 42 35 74t98 32q55 0 90.5 -27t35.5 -70q0 -58 -70 -88v-1q81 -43 81 -106q0 -46 -38 -77t-103 -31q-58 0 -98 27.5t-40 71.5q0 63 79 95zM195 74q37 27 37 64q0 33 -18 53.5t-50 20.5q-30 0 -47 -16t-17 -39q0 -28 20 -44.5t75 -38.5zM143 27
q-46 -30 -46 -75q0 -33 21.5 -52.5t59.5 -19.5q33 0 52 16.5t19 41.5q0 27 -23.5 47t-82.5 42z" />
    <glyph glyph-name="nineinferior" unicode="&#x2089;" horiz-adv-x="342" 
d="M240 68q4 14 4 38q0 42 -21.5 74.5t-57.5 32.5q-31 0 -49 -22.5t-18 -58.5q0 -39 22 -63.5t56 -24.5q36 0 64 24zM55 -159l-9 30q153 35 193 158l-3 3q-40 -31 -92 -31q-50 0 -81.5 32.5t-31.5 82.5q0 57 41 93.5t98 36.5q63 0 101 -42.5t38 -107.5q0 -99 -70.5 -168
t-183.5 -87z" />
    <glyph glyph-name="Euro" unicode="&#x20ac;" horiz-adv-x="520" 
d="M448 80l25 -31q-64 -64 -153 -64q-92 0 -151.5 68.5t-77.5 180.5h-70v38h65q-1 14 -1 40q0 33 2 48h-66v39h71q20 107 80.5 174t144.5 67q100 0 169 -66l-38 -51q-50 77 -123 77q-60 0 -100 -55t-55 -146h226v-39h-230q-3 -22 -3 -48q0 -14 2 -40h231v-38h-227
q12 -96 54.5 -152t109.5 -56q63 0 115 54z" />
    <glyph glyph-name="trademark" unicode="&#x2122;" horiz-adv-x="858" 
d="M230 252h-62v343h-16q-63 0 -112 -13v43h317v-43q-45 13 -112 13h-15v-343zM813 252h-62l-13 317h-6l-106 -302h-40l-107 302h-6l-12 -317h-35l16 373h81l95 -273h5l93 273h81z" />
    <glyph glyph-name="minus" unicode="&#x2212;" 
d="M450 213h-400v45h400v-45z" />
    <glyph glyph-name="uni2215" unicode="&#x2215;" 
d="M38 -15h-50l475 655h50z" />
    <glyph glyph-name="approxequal" unicode="&#x2248;" 
d="M390 366h47q-21 -105 -102 -105q-30 0 -87.5 33t-81.5 33q-42 0 -56 -58h-46q8 46 34 75t68 29q33 0 91 -33t78 -33q40 0 55 59zM390 202h47q-21 -105 -102 -105q-30 0 -87.5 33t-81.5 33q-42 0 -56 -58h-46q8 46 34 75t68 29q33 0 91 -33t78 -33q40 0 55 59z" />
    <glyph glyph-name="notequal" unicode="&#x2260;" 
d="M448 128h-197l-42 -151h-45l42 151h-154v45h167l35 123h-202v45h215l40 141h45l-40 -141h136v-45h-149l-34 -123h183v-45z" />
    <glyph glyph-name="lessequal" unicode="&#x2264;" 
d="M439 89l-384 169v34l384 169v-50l-314 -136l314 -136v-50zM439 0h-384v46h384v-46z" />
    <glyph glyph-name="greaterequal" unicode="&#x2265;" 
d="M445 258l-384 -169v50l314 136l-314 136v50l384 -169v-34zM445 0h-384v46h384v-46z" />
    <glyph glyph-name="pcircle" unicode="&#x24df;" horiz-adv-x="800" 
d="M753 312q0 -147 -103 -250t-250 -103t-250 103t-103 250t103 250.5t250 103.5t250 -103.5t103 -250.5zM400 -4q129 0 220.5 93t91.5 223q0 129 -91.5 223t-220.5 94t-221 -93.5t-92 -223.5t92 -223t221 -93zM360 123h-60v380l112 1q70 1 106.5 -30t36.5 -78
q0 -61 -41.5 -95.5t-105.5 -34.5q-20 0 -48 4v-147zM404 468h-44v-162q20 -5 40 -5q41 0 66.5 22.5t25.5 61.5q0 38 -23.5 60.5t-64.5 22.5z" />
    <glyph glyph-name="commaaccent" unicode="&#xf6c3;" horiz-adv-x="400" 
d="M137 -292l-11 27q68 34 68 87q0 52 -71 73q0 23 15.5 38t41.5 15q32 0 55.5 -26t23.5 -61q0 -50 -34.5 -90t-87.5 -63z" />
    <glyph glyph-name="apple" unicode="&#xf8ff;" horiz-adv-x="758" 
d="M652 47l-189 69l-85 -181l-84 180l-187 -68l68 187l-181 86l181 83l-68 189l187 -69l86 181l83 -181l189 69l-69 -189l180 -82l-180 -85zM581 118l-50 140l132 62l-132 62l50 139l-139 -50l-63 133l-63 -133l-139 50l51 -139l-134 -63l134 -63l-51 -138l139 51l62 -135
l64 135z" />
    <glyph glyph-name="J.alt" horiz-adv-x="242" 
d="M-21 -186h-81l10 77q36 -38 81 -38q42 0 66.5 29t24.5 84v659h82v-596q0 -215 -183 -215z" />
    <glyph glyph-name="a.alt" horiz-adv-x="514" 
d="M442 0h-72v58h-4q-58 -73 -146 -73q-84 0 -132 64.5t-48 165.5q0 108 60 179.5t164 71.5q59 0 111 -25l67 29v-470zM370 118v272q-45 36 -101 36q-67 0 -109 -55t-42 -141q0 -87 35.5 -138.5t99.5 -51.5q70 0 117 78z" />
    <glyph glyph-name="g.alt" horiz-adv-x="514" 
d="M370 -70v128h-4q-58 -73 -146 -73q-84 0 -132 64.5t-48 165.5q0 108 60 179.5t164 71.5q59 0 111 -25l67 29v-511q0 -111 -57.5 -165.5t-150.5 -54.5q-86 0 -158 54l28 56q33 -36 62 -52.5t72 -16.5q63 0 97.5 37.5t34.5 112.5zM370 118v272q-45 36 -101 36
q-67 0 -109 -55t-42 -141q0 -87 35.5 -138.5t99.5 -51.5q70 0 117 78z" />
    <glyph glyph-name="agrave.alt" horiz-adv-x="514" 
d="M302 534h-33l-149 177h92zM442 0h-72v58h-4q-58 -73 -146 -73q-84 0 -132 64.5t-48 165.5q0 108 60 179.5t164 71.5q59 0 111 -25l67 29v-470zM370 118v272q-45 36 -101 36q-67 0 -109 -55t-42 -141q0 -87 35.5 -138.5t99.5 -51.5q70 0 117 78z" />
    <glyph glyph-name="aacute.alt" horiz-adv-x="514" 
d="M259 534h-33l90 177h92zM442 0h-72v58h-4q-58 -73 -146 -73q-84 0 -132 64.5t-48 165.5q0 108 60 179.5t164 71.5q59 0 111 -25l67 29v-470zM370 118v272q-45 36 -101 36q-67 0 -109 -55t-42 -141q0 -87 35.5 -138.5t99.5 -51.5q70 0 117 78z" />
    <glyph glyph-name="acircumflex.alt" horiz-adv-x="514" 
d="M420 534h-38l-116 130h-9l-117 -130h-37l124 197h69zM442 0h-72v58h-4q-58 -73 -146 -73q-84 0 -132 64.5t-48 165.5q0 108 60 179.5t164 71.5q59 0 111 -25l67 29v-470zM370 118v272q-45 36 -101 36q-67 0 -109 -55t-42 -141q0 -87 35.5 -138.5t99.5 -51.5q70 0 117 78z
" />
    <glyph glyph-name="atilde.alt" horiz-adv-x="514" 
d="M400 681h36q-21 -118 -108 -118q-36 0 -80.5 35t-61.5 35q-43 0 -60 -63h-36q21 118 107 118q28 0 55.5 -17.5t49.5 -35t38 -17.5q43 0 60 63zM442 0h-72v58h-4q-58 -73 -146 -73q-84 0 -132 64.5t-48 165.5q0 108 60 179.5t164 71.5q59 0 111 -25l67 29v-470zM370 118
v272q-45 36 -101 36q-67 0 -109 -55t-42 -141q0 -87 35.5 -138.5t99.5 -51.5q70 0 117 78z" />
    <glyph glyph-name="adieresis.alt" horiz-adv-x="514" 
d="M162 561q-22 0 -37.5 16t-15.5 38q0 23 15.5 39t37.5 16t37.5 -16t15.5 -39t-15.5 -38.5t-37.5 -15.5zM352 561q-22 0 -38 15.5t-16 38.5t15.5 39t38.5 16q22 0 37.5 -16t15.5 -39q0 -22 -15.5 -38t-37.5 -16zM442 0h-72v58h-4q-58 -73 -146 -73q-84 0 -132 64.5
t-48 165.5q0 108 60 179.5t164 71.5q59 0 111 -25l67 29v-470zM370 118v272q-45 36 -101 36q-67 0 -109 -55t-42 -141q0 -87 35.5 -138.5t99.5 -51.5q70 0 117 78z" />
    <glyph glyph-name="aring.alt" horiz-adv-x="514" 
d="M256 522q-50 0 -80 32t-30 79t30 79t80 32t80 -32t30 -79t-30 -79t-80 -32zM256 558q31 0 50 22.5t19 52.5t-19 52.5t-50 22.5q-32 0 -51.5 -23t-19.5 -52t19.5 -52t51.5 -23zM442 0h-72v58h-4q-58 -73 -146 -73q-84 0 -132 64.5t-48 165.5q0 108 60 179.5t164 71.5
q59 0 111 -25l67 29v-470zM370 118v272q-45 36 -101 36q-67 0 -109 -55t-42 -141q0 -87 35.5 -138.5t99.5 -51.5q70 0 117 78z" />
    <glyph glyph-name="aringacute.alt" horiz-adv-x="514" 
d="M266 778h-34l90 177h93zM256 522q-50 0 -80 32t-30 79t30 79t80 32t80.5 -32t30.5 -79t-30.5 -79t-80.5 -32zM256 558q32 0 51 22.5t19 52.5t-19 52.5t-51 22.5q-31 0 -50.5 -22.5t-19.5 -52.5t19.5 -52.5t50.5 -22.5zM442 0h-72v58h-4q-58 -73 -146 -73q-84 0 -132 64.5
t-48 165.5q0 108 60 179.5t164 71.5q59 0 111 -25l67 29v-470zM370 118v272q-45 36 -101 36q-67 0 -109 -55t-42 -141q0 -87 35.5 -138.5t99.5 -51.5q70 0 117 78z" />
    <glyph glyph-name="amacron.alt" horiz-adv-x="514" 
d="M383 593h-252v43h252v-43zM442 0h-72v58h-4q-58 -73 -146 -73q-84 0 -132 64.5t-48 165.5q0 108 60 179.5t164 71.5q59 0 111 -25l67 29v-470zM370 118v272q-45 36 -101 36q-67 0 -109 -55t-42 -141q0 -87 35.5 -138.5t99.5 -51.5q70 0 117 78z" />
    <glyph glyph-name="abreve.alt" horiz-adv-x="514" 
d="M363 697h35q-6 -77 -44 -115t-97 -38t-97 37.5t-43 115.5h34q10 -52 35.5 -75.5t70.5 -23.5q46 0 71 23t35 76zM442 0h-72v58h-4q-58 -73 -146 -73q-84 0 -132 64.5t-48 165.5q0 108 60 179.5t164 71.5q59 0 111 -25l67 29v-470zM370 118v272q-45 36 -101 36
q-67 0 -109 -55t-42 -141q0 -87 35.5 -138.5t99.5 -51.5q70 0 117 78z" />
    <glyph glyph-name="aogonek.alt" horiz-adv-x="514" 
d="M492 -167l17 -25q-38 -54 -109 -54q-47 0 -74 26.5t-27 73.5q0 36 27.5 75.5t75.5 70.5h-32v58h-4q-58 -73 -146 -73q-84 0 -132 64.5t-48 165.5q0 108 60 179.5t164 71.5q59 0 111 -25l67 29v-470q-80 -63 -80 -133q0 -67 64 -67q37 0 66 33zM370 118v272
q-45 36 -101 36q-67 0 -109 -55t-42 -141q0 -87 35.5 -138.5t99.5 -51.5q70 0 117 78z" />
    <glyph glyph-name="gcircumflex.alt" horiz-adv-x="514" 
d="M426 534h-38l-117 130h-8l-117 -130h-38l125 197h68zM370 -70v128h-4q-58 -73 -146 -73q-84 0 -132 64.5t-48 165.5q0 108 60 179.5t164 71.5q59 0 111 -25l67 29v-511q0 -111 -57.5 -165.5t-150.5 -54.5q-86 0 -158 54l28 56q33 -36 62 -52.5t72 -16.5q63 0 97.5 37.5
t34.5 112.5zM370 118v272q-45 36 -101 36q-67 0 -109 -55t-42 -141q0 -87 35.5 -138.5t99.5 -51.5q70 0 117 78z" />
    <glyph glyph-name="gbreve.alt" horiz-adv-x="514" 
d="M368 697h34q-6 -77 -44 -115t-96 -38q-60 0 -98 38t-43 115h35q11 -53 35.5 -76t70.5 -23q45 0 70.5 23t35.5 76zM370 -70v128h-4q-58 -73 -146 -73q-84 0 -132 64.5t-48 165.5q0 108 60 179.5t164 71.5q59 0 111 -25l67 29v-511q0 -111 -57.5 -165.5t-150.5 -54.5
q-86 0 -158 54l28 56q33 -36 62 -52.5t72 -16.5q63 0 97.5 37.5t34.5 112.5zM370 118v272q-45 36 -101 36q-67 0 -109 -55t-42 -141q0 -87 35.5 -138.5t99.5 -51.5q70 0 117 78z" />
    <glyph glyph-name="gdotaccent.alt" horiz-adv-x="514" 
d="M265 560q-22 0 -37.5 16t-15.5 38q0 23 15.5 39t37.5 16t37.5 -16t15.5 -39t-15.5 -38.5t-37.5 -15.5zM370 -70v128h-4q-58 -73 -146 -73q-84 0 -132 64.5t-48 165.5q0 108 60 179.5t164 71.5q59 0 111 -25l67 29v-511q0 -111 -57.5 -165.5t-150.5 -54.5q-86 0 -158 54
l28 56q33 -36 62 -52.5t72 -16.5q63 0 97.5 37.5t34.5 112.5zM370 118v272q-45 36 -101 36q-67 0 -109 -55t-42 -141q0 -87 35.5 -138.5t99.5 -51.5q70 0 117 78z" />
    <glyph glyph-name="gcommaaccent.alt" horiz-adv-x="514" 
d="M304 770l12 -26q-68 -34 -68 -87t71 -74q0 -23 -15 -37.5t-43 -14.5q-32 0 -55.5 27t-23.5 62q0 50 34 88.5t88 61.5zM370 -70v128h-4q-58 -73 -146 -73q-84 0 -132 64.5t-48 165.5q0 108 60 179.5t164 71.5q59 0 111 -25l67 29v-511q0 -111 -57.5 -165.5t-150.5 -54.5
q-86 0 -158 54l28 56q33 -36 62 -52.5t72 -16.5q63 0 97.5 37.5t34.5 112.5zM370 118v272q-45 36 -101 36q-67 0 -109 -55t-42 -141q0 -87 35.5 -138.5t99.5 -51.5q70 0 117 78z" />
    <glyph glyph-name="Jcircumflex.alt" horiz-adv-x="242" 
d="M-21 -186h-81l10 77q36 -38 81 -38q42 0 66.5 29t24.5 84v659h82v-596q0 -215 -183 -215zM280 699h-38l-117 130h-8l-117 -130h-38l125 197h68z" />
    <glyph glyph-name="dot" horiz-adv-x="226" 
d="M113 206q-24 0 -41.5 17.5t-17.5 42.5q0 24 17.5 41.5t41.5 17.5t41.5 -17.5t17.5 -41.5q0 -25 -17.5 -42.5t-41.5 -17.5z" />
    <glyph glyph-name="a.smallcap" horiz-adv-x="460" 
d="M438 0h-74l-51 150h-190l-53 -150h-48l156 446v27l92 22zM300 189l-77 227h-8l-78 -227h163z" />
    <glyph glyph-name="b.smallcap" horiz-adv-x="468" 
d="M221 -2l-145 3v480l151 3q90 2 132 -29t42 -84q0 -44 -28 -76t-74 -43v-4q56 -11 87.5 -42t31.5 -75q0 -65 -49 -100t-148 -33zM148 265h69q48 0 76.5 26t28.5 59q0 93 -115 93h-59v-178zM148 39h81q52 0 81.5 22t29.5 65q0 51 -38 76.5t-100 25.5h-54v-189z" />
    <glyph glyph-name="c.smallcap" horiz-adv-x="492" 
d="M420 71l22 -34q-63 -52 -159 -52q-106 0 -174.5 71.5t-68.5 183.5q0 109 71.5 183t176.5 74q102 0 168 -54l-32 -50q-56 64 -137 64q-74 0 -122 -57t-48 -158q0 -98 50 -156.5t129 -58.5q74 0 124 44z" />
    <glyph glyph-name="d.smallcap" horiz-adv-x="521" 
d="M243 -3l-167 4v480l169 4q104 2 170 -64t66 -176q0 -109 -69.5 -179.5t-168.5 -68.5zM148 39h98q67 0 112 50.5t45 146.5q0 98 -46.5 152.5t-112.5 54.5h-96v-404z" />
    <glyph glyph-name="e.smallcap" horiz-adv-x="443" 
d="M398 0h-322v482h322v-55q-63 15 -161 15h-89v-179h169v-39h-169v-184h89q98 0 161 15v-55z" />
    <glyph glyph-name="f.smallcap" horiz-adv-x="425" 
d="M148 0h-72v482h315v-55q-63 15 -162 15h-81v-185h164v-39h-164v-218z" />
    <glyph glyph-name="g.smallcap" horiz-adv-x="501" 
d="M378 42v177h70v-187q-65 -47 -165 -47q-104 0 -173.5 72t-69.5 183q0 109 71.5 183t176.5 74q102 0 168 -54l-32 -50q-56 64 -136 64q-75 0 -122.5 -57t-47.5 -158q0 -98 50 -156.5t129 -58.5q43 0 81 15z" />
    <glyph glyph-name="h.smallcap" horiz-adv-x="525" 
d="M449 0h-72v225h-229v-225h-72v482h72v-217h229v217h72v-482z" />
    <glyph glyph-name="i.smallcap" horiz-adv-x="224" 
d="M148 0h-72v482h72v-482z" />
    <glyph glyph-name="j.smallcap" horiz-adv-x="374" 
d="M226 113v369h72v-316q0 -92 -34.5 -136.5t-115.5 -44.5q-35 0 -70 17t-58 46l38 47q37 -70 95 -70q34 0 53.5 24t19.5 64z" />
    <glyph glyph-name="j.smallcap.alt" horiz-adv-x="224" 
d="M0 -185h-69l7 65q32 -25 66 -25q33 0 52.5 24t19.5 68v535h72v-480q0 -187 -148 -187z" />
    <glyph glyph-name="k.smallcap" horiz-adv-x="473" 
d="M448 0h-86l-162 240l-52 -52v-188h-72v482h72v-236l237 236h61l-195 -192z" />
    <glyph glyph-name="l.smallcap" horiz-adv-x="412" 
d="M387 0h-311v482h72v-442h77q99 0 162 15v-55z" />
    <glyph glyph-name="m.smallcap" horiz-adv-x="637" 
d="M567 0h-72l-14 426h-6l-140 -410h-58l-141 410h-6l-15 -426h-45l18 482h102l125 -368h8l124 368h102z" />
    <glyph glyph-name="n.smallcap" horiz-adv-x="548" 
d="M472 3l-84 -7l-261 407h-6v-403h-45v479l84 7l260 -408h7v404h45v-479z" />
    <glyph glyph-name="o.smallcap" horiz-adv-x="570" 
d="M284 -15q-108 0 -176 70t-68 182q0 110 72 185t174 75q108 0 176 -70t68 -182q0 -110 -72 -185t-174 -75zM287 25q73 0 119 57.5t46 153.5q0 104 -48.5 162.5t-121.5 58.5q-71 0 -117.5 -54.5t-46.5 -156.5q0 -104 48.5 -162.5t120.5 -58.5z" />
    <glyph glyph-name="p.smallcap" horiz-adv-x="437" 
d="M148 0h-72v481l132 3q93 2 145 -40.5t52 -105.5q0 -75 -59 -119t-143 -44q-37 0 -55 3v-178zM211 443h-63v-224q21 -5 58 -5q56 0 88.5 28.5t32.5 80.5q0 53 -30 86.5t-86 33.5z" />
    <glyph glyph-name="q.smallcap" horiz-adv-x="570" 
d="M504 -163l-180 151q-20 -3 -40 -3q-108 0 -176 70t-68 182q0 110 72 185t174 75q108 0 176 -70t68 -182q0 -83 -44 -149t-114 -94l161 -130zM287 25q73 0 119 57.5t46 153.5q0 104 -48.5 162.5t-121.5 58.5q-71 0 -117.5 -54.5t-46.5 -156.5q0 -104 48.5 -162.5
t120.5 -58.5z" />
    <glyph glyph-name="r.smallcap" horiz-adv-x="461" 
d="M436 0h-85l-129 196l-74 3v-199h-72v481l139 3q90 2 140 -37t50 -98q0 -48 -29 -84.5t-81 -54.5zM201 443h-53v-200q27 -5 64 -5q54 0 84 26t30 74q0 105 -125 105z" />
    <glyph glyph-name="s.smallcap" horiz-adv-x="439" 
d="M48 23l26 56q56 -54 130 -54q58 0 89.5 24t31.5 61q0 40 -30.5 63t-98.5 44q-74 23 -111 57t-37 89q0 56 46.5 94.5t128.5 39.5q95 0 157 -39l-25 -56q-55 55 -136 55q-48 0 -76.5 -21.5t-28.5 -54.5q0 -39 28.5 -59t93.5 -42q78 -26 116.5 -59t38.5 -92
q0 -62 -51.5 -103t-139.5 -41q-82 0 -152 38z" />
    <glyph glyph-name="t.smallcap" horiz-adv-x="480" 
d="M276 0h-72v442h-18q-95 0 -158 -15v55h424v-55q-63 15 -159 15h-17v-442z" />
    <glyph glyph-name="u.smallcap" horiz-adv-x="514" 
d="M397 156v326h45v-326q0 -72 -54 -121.5t-131 -49.5t-131 49.5t-54 121.5v326h72v-326q0 -51 37 -86t90 -35q52 0 89 35t37 86z" />
    <glyph glyph-name="v.smallcap" horiz-adv-x="467" 
d="M272 -4h-77l-169 486h74l143 -419h6l144 419h48z" />
    <glyph glyph-name="w.smallcap" horiz-adv-x="716" 
d="M523 -4h-67l-96 301h-5l-96 -301h-66l-167 486h75l135 -401h8l92 294l-34 107h73l124 -401h9l134 401h48z" />
    <glyph glyph-name="x.smallcap" horiz-adv-x="479" 
d="M453 0h-84l-138 203l-150 -203h-55l176 233l-171 249h85l133 -196l145 196h54l-170 -226z" />
    <glyph glyph-name="y.smallcap" horiz-adv-x="458" 
d="M265 0h-72v193l-167 289h80l135 -241h4l135 241h52l-167 -289v-193z" />
    <glyph glyph-name="z.smallcap" horiz-adv-x="454" 
d="M418 0h-382v41l299 401h-132q-105 0 -162 -15v55h377v-39l-299 -403h139q103 0 160 15v-55z" />
    <glyph glyph-name="fi.smallcap" horiz-adv-x="649" 
d="M148 0h-72v482h315v-55q-63 15 -162 15h-81v-185h164v-39h-164v-218zM573 0h-72v482h72v-482z" />
    <glyph glyph-name="fl.smallcap" horiz-adv-x="837" 
d="M148 0h-72v482h315v-55q-63 15 -162 15h-81v-185h164v-39h-164v-218zM812 0h-311v482h72v-442h77q99 0 162 15v-55z" />
    <glyph glyph-name="ff.smallcap" horiz-adv-x="850" 
d="M148 0h-72v482h315v-55q-63 15 -162 15h-81v-185h164v-39h-164v-218zM573 0h-72v482h315v-55q-63 15 -162 15h-81v-185h164v-39h-164v-218z" />
    <glyph glyph-name="ffi.smallcap" horiz-adv-x="1074" 
d="M148 0h-72v482h315v-55q-63 15 -162 15h-81v-185h164v-39h-164v-218zM573 0h-72v482h315v-55q-63 15 -162 15h-81v-185h164v-39h-164v-218zM998 0h-72v482h72v-482z" />
    <glyph glyph-name="ffl.smallcap" horiz-adv-x="1263" 
d="M148 0h-72v482h315v-55q-63 15 -162 15h-81v-185h164v-39h-164v-218zM573 0h-72v482h315v-55q-63 15 -162 15h-81v-185h164v-39h-164v-218zM1238 0h-311v482h72v-442h77q99 0 162 15v-55z" />
    <glyph glyph-name="germandbls.smallcap" horiz-adv-x="876" 
d="M48 23l26 56q56 -54 130 -54q58 0 89.5 24t31.5 61q0 40 -30.5 63t-98.5 44q-74 23 -111 57t-37 89q0 56 46.5 94.5t128.5 39.5q95 0 157 -39l-25 -56q-55 55 -136 55q-48 0 -76.5 -21.5t-28.5 -54.5q0 -39 28.5 -59t93.5 -42q78 -26 116.5 -59t38.5 -92
q0 -62 -51.5 -103t-139.5 -41q-82 0 -152 38zM485 23l26 56q56 -54 130 -54q58 0 89.5 24t31.5 61q0 40 -30.5 63t-98.5 44q-74 23 -111 57t-37 89q0 56 46.5 94.5t128.5 39.5q95 0 157 -39l-25 -56q-55 55 -136 55q-48 0 -76.5 -21.5t-28.5 -54.5q0 -39 28.5 -59t93.5 -42
q78 -26 116.5 -59t38.5 -92q0 -62 -51.5 -103t-139.5 -41q-82 0 -152 38z" />
    <glyph glyph-name="agrave.smallcap" horiz-adv-x="460" 
d="M438 0h-74l-51 150h-190l-53 -150h-48l156 446v27l92 22zM300 189l-77 227h-8l-78 -227h163zM243 554h-33l-149 177h92z" />
    <glyph glyph-name="aacute.smallcap" horiz-adv-x="460" 
d="M438 0h-74l-51 150h-190l-53 -150h-48l156 446v27l92 22zM300 189l-77 227h-8l-78 -227h163zM255 554h-33l90 177h92z" />
    <glyph glyph-name="acircumflex.smallcap" horiz-adv-x="460" 
d="M438 0h-74l-51 150h-190l-53 -150h-48l156 446v27l92 22zM300 189l-77 227h-8l-78 -227h163zM389 554h-38l-117 130h-8l-117 -130h-38l125 197h68z" />
    <glyph glyph-name="atilde.smallcap" horiz-adv-x="460" 
d="M438 0h-74l-51 150h-190l-53 -150h-48l156 446v27l92 22zM300 189l-77 227h-8l-78 -227h163zM368 701h35q-21 -118 -108 -118q-27 0 -54 17.5t-49 35t-38 17.5q-44 0 -61 -63h-35q21 118 107 118q28 0 55.5 -17.5t49.5 -35t38 -17.5q43 0 60 63z" />
    <glyph glyph-name="adieresis.smallcap" horiz-adv-x="460" 
d="M438 0h-74l-51 150h-190l-53 -150h-48l156 446v27l92 22zM300 189l-77 227h-8l-78 -227h163zM135 580q-22 0 -37.5 16t-15.5 38q0 23 15.5 39t37.5 16t37.5 -16t15.5 -39t-15.5 -38.5t-37.5 -15.5zM325 580q-23 0 -38.5 16t-15.5 38q0 23 15.5 39t38.5 16q22 0 37.5 -16
t15.5 -39q0 -22 -15.5 -38t-37.5 -16z" />
    <glyph glyph-name="aring.smallcap" horiz-adv-x="460" 
d="M438 0h-74l-51 150h-190l-53 -150h-48l156 443q-58 28 -58 99q0 47 30 79t80 32t80 -32t30 -79q0 -69 -53 -97zM300 189l-77 227h-8l-78 -227h163zM230 466q31 0 50 23t19 53t-19 52.5t-50 22.5q-32 0 -51.5 -23t-19.5 -52q0 -30 20 -53t51 -23z" />
    <glyph glyph-name="aringacute.smallcap" horiz-adv-x="460" 
d="M438 0h-74l-51 150h-190l-53 -150h-48l156 443q-58 28 -58 99q0 47 30 79t80 32t80 -32t30 -79q0 -69 -53 -97zM300 189l-77 227h-8l-78 -227h163zM230 466q31 0 50 23t19 53t-19 52.5t-50 22.5q-32 0 -51.5 -23t-19.5 -52q0 -30 20 -53t51 -23zM237 688h-33l89 177h93z
" />
    <glyph glyph-name="amacron.smallcap" horiz-adv-x="460" 
d="M438 0h-74l-51 150h-190l-53 -150h-48l156 446v27l92 22zM300 189l-77 227h-8l-78 -227h163zM356 613h-252v43h252v-43z" />
    <glyph glyph-name="abreve.smallcap" horiz-adv-x="460" 
d="M438 0h-74l-51 150h-190l-53 -150h-48l156 446v27l92 22zM300 189l-77 227h-8l-78 -227h163zM336 718h34q-6 -77 -43.5 -115t-96.5 -38q-60 0 -97.5 37.5t-42.5 115.5h34q11 -53 35.5 -76t70.5 -23q45 0 70.5 23t35.5 76z" />
    <glyph glyph-name="aogonek.smallcap" horiz-adv-x="460" 
d="M488 -166l17 -24q-37 -55 -110 -55q-46 0 -73 27t-27 73q0 36 27 75t75 70h-33l-51 150h-190l-53 -150h-48l156 446v27l92 22l168 -495q-80 -64 -80 -132q0 -67 64 -67q37 0 66 33zM300 189l-77 227h-8l-78 -227h163z" />
    <glyph glyph-name="ae.smallcap" horiz-adv-x="702" 
d="M657 0h-322v150h-183l-89 -150h-53l291 482h356v-55q-61 15 -161 15h-89v-179h169v-39h-169v-184h89q100 0 161 15v-55zM335 188v254h-8l-152 -254h160z" />
    <glyph glyph-name="aeacute.smallcap" horiz-adv-x="702" 
d="M657 0h-322v150h-183l-89 -150h-53l291 482h356v-55q-61 15 -161 15h-89v-179h169v-39h-169v-184h89q100 0 161 15v-55zM335 188v254h-8l-152 -254h160zM471 554h-33l90 177h92z" />
    <glyph glyph-name="ccedilla.smallcap" horiz-adv-x="492" 
d="M189 -275v33q156 0 156 69q0 25 -24 38.5t-68 13.5q-38 0 -67 -5v23l84 88q-101 5 -165.5 75.5t-64.5 179.5t71.5 183t176.5 74q102 0 168 -54l-32 -50q-56 64 -137 64q-74 0 -122 -57t-48 -158q0 -98 50 -156.5t129 -58.5q74 0 124 44l22 -34q-54 -44 -129 -50l-55 -58
q67 3 109 -21t42 -67q0 -53 -53.5 -84.5t-166.5 -31.5z" />
    <glyph glyph-name="cacute.smallcap" horiz-adv-x="492" 
d="M420 71l22 -34q-63 -52 -159 -52q-106 0 -174.5 71.5t-68.5 183.5q0 109 71.5 183t176.5 74q102 0 168 -54l-32 -50q-56 64 -137 64q-74 0 -122 -57t-48 -158q0 -98 50 -156.5t129 -58.5q74 0 124 44zM285 554h-33l90 177h92z" />
    <glyph glyph-name="ccircumflex.smallcap" horiz-adv-x="492" 
d="M420 71l22 -34q-63 -52 -159 -52q-106 0 -174.5 71.5t-68.5 183.5q0 109 71.5 183t176.5 74q102 0 168 -54l-32 -50q-56 64 -137 64q-74 0 -122 -57t-48 -158q0 -98 50 -156.5t129 -58.5q74 0 124 44zM438 554h-38l-117 130h-8l-117 -130h-38l125 197h68z" />
    <glyph glyph-name="cdotaccent.smallcap" horiz-adv-x="492" 
d="M420 71l22 -34q-63 -52 -159 -52q-106 0 -174.5 71.5t-68.5 183.5q0 109 71.5 183t176.5 74q102 0 168 -54l-32 -50q-56 64 -137 64q-74 0 -122 -57t-48 -158q0 -98 50 -156.5t129 -58.5q74 0 124 44zM283 581q-22 0 -37.5 16t-15.5 38q0 23 15.5 39t37.5 16t37.5 -16
t15.5 -39t-15.5 -38.5t-37.5 -15.5z" />
    <glyph glyph-name="ccaron.smallcap" horiz-adv-x="494" 
d="M420 71l22 -34q-63 -52 -159 -52q-106 0 -174.5 71.5t-68.5 183.5q0 109 71.5 183t176.5 74q102 0 168 -54l-32 -50q-56 64 -137 64q-74 0 -122 -57t-48 -158q0 -98 50 -156.5t129 -58.5q74 0 124 44zM315 554h-68l-125 197h39l116 -130h8l117 130h38z" />
    <glyph glyph-name="dcaron.smallcap" horiz-adv-x="521" 
d="M243 -3l-167 4v480l169 4q104 2 170 -64t66 -176q0 -109 -69.5 -179.5t-168.5 -68.5zM148 39h98q67 0 112 50.5t45 146.5q0 98 -46.5 152.5t-112.5 54.5h-96v-404zM263 554h-68l-125 197h39l116 -130h8l117 130h38z" />
    <glyph glyph-name="eth.smallcap" horiz-adv-x="531" 
d="M253 -2l-167 3v222h-66v39h66v219l169 3q105 2 170.5 -63.5t65.5 -175.5q0 -109 -69.5 -179t-168.5 -68zM158 39h98q67 0 112 50.5t45 146.5q0 98 -46.5 152.5t-112.5 54.5h-96v-181h116v-39h-116v-184z" />
    <glyph glyph-name="dcroat.smallcap" horiz-adv-x="531" 
d="M253 -2l-167 3v222h-66v39h66v219l169 3q105 2 170.5 -63.5t65.5 -175.5q0 -109 -69.5 -179t-168.5 -68zM158 39h98q67 0 112 50.5t45 146.5q0 98 -46.5 152.5t-112.5 54.5h-96v-181h116v-39h-116v-184z" />
    <glyph glyph-name="egrave.smallcap" horiz-adv-x="443" 
d="M398 0h-322v482h322v-55q-63 15 -161 15h-89v-179h169v-39h-169v-184h89q98 0 161 15v-55zM281 554h-33l-149 177h92z" />
    <glyph glyph-name="eacute.smallcap" horiz-adv-x="443" 
d="M398 0h-322v482h322v-55q-63 15 -161 15h-89v-179h169v-39h-169v-184h89q98 0 161 15v-55zM238 554h-33l90 177h92z" />
    <glyph glyph-name="ecircumflex.smallcap" horiz-adv-x="443" 
d="M398 0h-322v482h322v-55q-63 15 -161 15h-89v-179h169v-39h-169v-184h89q98 0 161 15v-55zM397 554h-38l-117 130h-8l-117 -130h-38l125 197h68z" />
    <glyph glyph-name="edieresis.smallcap" horiz-adv-x="443" 
d="M398 0h-322v482h322v-55q-63 15 -161 15h-89v-179h169v-39h-169v-184h89q98 0 161 15v-55zM147 580q-22 0 -37.5 16t-15.5 38q0 23 15.5 39t37.5 16t37.5 -16t15.5 -39t-15.5 -38.5t-37.5 -15.5zM337 580q-23 0 -38.5 16t-15.5 38q0 23 15.5 39t38.5 16q22 0 37.5 -16
t15.5 -39q0 -22 -15.5 -38t-37.5 -16z" />
    <glyph glyph-name="emacron.smallcap" horiz-adv-x="443" 
d="M398 0h-322v482h322v-55q-63 15 -161 15h-89v-179h169v-39h-169v-184h89q98 0 161 15v-55zM360 613h-252v43h252v-43z" />
    <glyph glyph-name="ebreve.smallcap" horiz-adv-x="443" 
d="M398 0h-322v482h322v-55q-63 15 -161 15h-89v-179h169v-39h-169v-184h89q98 0 161 15v-55zM355 718h34q-6 -77 -43.5 -115t-96.5 -38t-97 37.5t-43 115.5h34q11 -53 35.5 -76t70.5 -23q45 0 70.5 23t35.5 76z" />
    <glyph glyph-name="edotaccent.smallcap" horiz-adv-x="443" 
d="M398 0h-322v482h322v-55q-63 15 -161 15h-89v-179h169v-39h-169v-184h89q98 0 161 15v-55zM244 581q-22 0 -37.5 16t-15.5 38q0 23 15.5 39t37.5 16t37.5 -16t15.5 -39t-15.5 -38.5t-37.5 -15.5z" />
    <glyph glyph-name="eogonek.smallcap" horiz-adv-x="443" 
d="M399 -167l17 -25q-38 -54 -109 -54q-47 0 -74 26.5t-27 73.5q0 36 27 75.5t74 70.5h-231v482h322v-55q-63 15 -161 15h-89v-179h169v-39h-169v-184h89q98 0 161 15v-55h-49q-39 -29 -59.5 -64.5t-20.5 -68.5q0 -67 64 -67q37 0 66 33z" />
    <glyph glyph-name="ecaron.smallcap" horiz-adv-x="443" 
d="M398 0h-322v482h322v-55q-63 15 -161 15h-89v-179h169v-39h-169v-184h89q98 0 161 15v-55zM273 554h-68l-125 197h39l116 -130h8l117 130h38z" />
    <glyph glyph-name="gcircumflex.smallcap" horiz-adv-x="501" 
d="M378 42v177h70v-187q-65 -47 -165 -47q-104 0 -173.5 72t-69.5 183q0 109 71.5 183t176.5 74q102 0 168 -54l-32 -50q-56 64 -136 64q-75 0 -122.5 -57t-47.5 -158q0 -98 50 -156.5t129 -58.5q43 0 81 15zM441 554h-38l-117 130h-8l-117 -130h-38l125 197h68z" />
    <glyph glyph-name="gbreve.smallcap" horiz-adv-x="501" 
d="M378 42v177h70v-187q-65 -47 -165 -47q-104 0 -173.5 72t-69.5 183q0 109 71.5 183t176.5 74q102 0 168 -54l-32 -50q-56 64 -136 64q-75 0 -122.5 -57t-47.5 -158q0 -98 50 -156.5t129 -58.5q43 0 81 15zM395 718h34q-6 -77 -43.5 -115t-96.5 -38t-97 37.5t-43 115.5h34
q11 -53 35.5 -76t70.5 -23q45 0 70.5 23t35.5 76z" />
    <glyph glyph-name="gdotaccent.smallcap" horiz-adv-x="501" 
d="M378 42v177h70v-187q-65 -47 -165 -47q-104 0 -173.5 72t-69.5 183q0 109 71.5 183t176.5 74q102 0 168 -54l-32 -50q-56 64 -136 64q-75 0 -122.5 -57t-47.5 -158q0 -98 50 -156.5t129 -58.5q43 0 81 15zM283 581q-22 0 -37.5 16t-15.5 38q0 23 15.5 39t37.5 16
t37.5 -16t15.5 -39t-15.5 -38.5t-37.5 -15.5z" />
    <glyph glyph-name="gcommaaccent.smallcap" horiz-adv-x="501" 
d="M378 42v177h70v-187q-65 -47 -165 -47q-104 0 -173.5 72t-69.5 183q0 109 71.5 183t176.5 74q102 0 168 -54l-32 -50q-56 64 -136 64q-75 0 -122.5 -57t-47.5 -158q0 -98 50 -156.5t129 -58.5q43 0 81 15zM238 -292l-11 27q68 34 68 87q0 52 -71 73q0 23 15.5 38t41.5 15
q32 0 55.5 -26t23.5 -61q0 -50 -34.5 -90t-87.5 -63z" />
    <glyph glyph-name="hcircumflex.smallcap" horiz-adv-x="525" 
d="M449 0h-72v225h-229v-225h-72v482h72v-217h229v217h72v-482zM421 554h-38l-117 130h-8l-117 -130h-38l125 197h68z" />
    <glyph glyph-name="hbar.smallcap" horiz-adv-x="557" 
d="M465 0h-72v202h-229v-202h-72v333h-80v39h80v110h72v-110h229v110h72v-110h80v-39h-80v-333zM393 242v91h-229v-91h229z" />
    <glyph glyph-name="igrave.smallcap" horiz-adv-x="224" 
d="M148 0h-72v482h72v-482zM128 554h-33l-149 177h92z" />
    <glyph glyph-name="iacute.smallcap" horiz-adv-x="224" 
d="M148 0h-72v482h72v-482zM129 554h-33l90 177h92z" />
    <glyph glyph-name="icircumflex.smallcap" horiz-adv-x="224" 
d="M148 0h-72v482h72v-482zM271 554h-38l-117 130h-8l-117 -130h-38l125 197h68z" />
    <glyph glyph-name="idieresis.smallcap" horiz-adv-x="224" 
d="M148 0h-72v482h72v-482zM17 580q-22 0 -37.5 16t-15.5 38q0 23 15.5 39t37.5 16t37.5 -16t15.5 -39t-15.5 -38.5t-37.5 -15.5zM207 580q-23 0 -38.5 16t-15.5 38q0 23 15.5 39t38.5 16q22 0 37.5 -16t15.5 -39q0 -22 -15.5 -38t-37.5 -16z" />
    <glyph glyph-name="imacron.smallcap" horiz-adv-x="224" 
d="M148 0h-72v482h72v-482zM238 613h-252v43h252v-43z" />
    <glyph glyph-name="ibreve.smallcap" horiz-adv-x="224" 
d="M148 0h-72v482h72v-482zM218 718h34q-6 -77 -43.5 -115t-96.5 -38q-60 0 -97.5 37.5t-42.5 115.5h34q11 -53 35.5 -76t70.5 -23q45 0 70.5 23t35.5 76z" />
    <glyph glyph-name="iogonek.smallcap" horiz-adv-x="224" 
d="M197 -167l17 -25q-38 -54 -109 -54q-47 0 -74 26.5t-27 73.5q0 37 28 76t76 70h-32v482h72v-482q-81 -63 -81 -133q0 -67 64 -67q37 0 66 33z" />
    <glyph glyph-name="idotaccent.smallcap" horiz-adv-x="224" 
d="M148 0h-72v482h72v-482zM112 581q-22 0 -37.5 16t-15.5 38q0 23 15.5 39t37.5 16t37.5 -16t15.5 -39t-15.5 -38.5t-37.5 -15.5z" />
    <glyph glyph-name="dotlessi.smallcap" horiz-adv-x="224" 
d="M148 0h-72v482h72v-482z" />
    <glyph glyph-name="jcircumflex.smallcap" horiz-adv-x="374" 
d="M226 113v369h72v-316q0 -92 -34.5 -136.5t-115.5 -44.5q-35 0 -70 17t-58 46l38 47q37 -70 95 -70q34 0 53.5 24t19.5 64zM416 554h-38l-117 130h-8l-117 -130h-38l125 197h68z" />
    <glyph glyph-name="jcircumflex.smallcap.alt" horiz-adv-x="224" 
d="M0 -185h-69l7 65q32 -25 66 -25q33 0 52.5 24t19.5 68v535h72v-480q0 -187 -148 -187zM271 554h-38l-117 130h-8l-117 -130h-38l125 197h68z" />
    <glyph glyph-name="dotlessj.smallcap" horiz-adv-x="374" 
d="M226 113v369h72v-316q0 -92 -34.5 -136.5t-115.5 -44.5q-35 0 -70 17t-58 46l38 47q37 -70 95 -70q34 0 53.5 24t19.5 64z" />
    <glyph glyph-name="kcommaaccent.smallcap" horiz-adv-x="473" 
d="M448 0h-86l-162 240l-52 -52v-188h-72v482h72v-236l237 236h61l-195 -192zM203 -292l-11 27q68 34 68 87q0 52 -71 73q0 23 15.5 38t41.5 15q32 0 55.5 -27t23.5 -62q0 -50 -34 -89t-88 -62z" />
    <glyph glyph-name="lacute.smallcap" horiz-adv-x="412" 
d="M387 0h-311v482h72v-442h77q99 0 162 15v-55zM129 554h-33l90 177h92z" />
    <glyph glyph-name="lcommaaccent.smallcap" horiz-adv-x="412" 
d="M387 0h-311v482h72v-442h77q99 0 162 15v-55zM186 -292l-12 27q69 34 69 87q0 52 -72 73q0 23 15.5 38t42.5 15q32 0 55.5 -27t23.5 -62q0 -50 -34 -89t-88 -62z" />
    <glyph glyph-name="lcaron.smallcap" horiz-adv-x="545" 
d="M387 0h-311v482h72v-442h77q99 0 162 15v-55zM390 230l-19 25q78 63 78 127q0 61 -74 86q0 26 17.5 42.5t48.5 16.5q33 0 58.5 -29t25.5 -69q0 -105 -135 -199z" />
    <glyph glyph-name="ldotaccent.smallcap" horiz-adv-x="496" 
d="M387 0h-311v482h72v-442h77q99 0 162 15v-55zM404 200q-25 0 -42 17.5t-17 41.5q0 25 17 42t42 17q24 0 41 -17t17 -42q0 -24 -17 -41.5t-41 -17.5z" />
    <glyph glyph-name="lslash.smallcap" horiz-adv-x="436" 
d="M411 0h-311v193l-80 -23v39l80 22v251h72v-230l90 25v-39l-90 -25v-173h77q99 0 162 15v-55z" />
    <glyph glyph-name="ntilde.smallcap" horiz-adv-x="548" 
d="M472 3l-84 -7l-261 407h-6v-403h-45v479l84 7l260 -408h7v404h45v-479zM417 701h35q-21 -118 -108 -118q-27 0 -54 17.5t-49 35t-38 17.5q-44 0 -61 -63h-35q21 118 107 118q28 0 55.5 -17.5t49.5 -35t38 -17.5q43 0 60 63z" />
    <glyph glyph-name="nacute.smallcap" horiz-adv-x="548" 
d="M472 3l-84 -7l-261 407h-6v-403h-45v479l84 7l260 -408h7v404h45v-479zM297 554h-33l90 177h92z" />
    <glyph glyph-name="ncommaaccent.smallcap" horiz-adv-x="548" 
d="M472 3l-84 -7l-261 407h-6v-403h-45v479l84 7l260 -408h7v404h45v-479zM212 -292l-11 27q68 34 68 87q0 52 -71 73q0 23 15.5 38t41.5 15q32 0 55.5 -27t23.5 -62q0 -50 -34 -89t-88 -62z" />
    <glyph glyph-name="ncaron.smallcap" horiz-adv-x="548" 
d="M472 3l-84 -7l-261 407h-6v-403h-45v479l84 7l260 -408h7v404h45v-479zM316 554h-68l-125 197h39l116 -130h8l117 130h38z" />
    <glyph glyph-name="ograve.smallcap" horiz-adv-x="570" 
d="M284 -15q-108 0 -176 70t-68 182q0 110 72 185t174 75q108 0 176 -70t68 -182q0 -110 -72 -185t-174 -75zM287 25q73 0 119 57.5t46 153.5q0 104 -48.5 162.5t-121.5 58.5q-71 0 -117.5 -54.5t-46.5 -156.5q0 -104 48.5 -162.5t120.5 -58.5zM319 554h-33l-149 177h92z
" />
    <glyph glyph-name="oacute.smallcap" horiz-adv-x="570" 
d="M284 -15q-108 0 -176 70t-68 182q0 110 72 185t174 75q108 0 176 -70t68 -182q0 -110 -72 -185t-174 -75zM287 25q73 0 119 57.5t46 153.5q0 104 -48.5 162.5t-121.5 58.5q-71 0 -117.5 -54.5t-46.5 -156.5q0 -104 48.5 -162.5t120.5 -58.5zM287 554h-33l90 177h92z" />
    <glyph glyph-name="ocircumflex.smallcap" horiz-adv-x="570" 
d="M284 -15q-108 0 -176 70t-68 182q0 110 72 185t174 75q108 0 176 -70t68 -182q0 -110 -72 -185t-174 -75zM287 25q73 0 119 57.5t46 153.5q0 104 -48.5 162.5t-121.5 58.5q-71 0 -117.5 -54.5t-46.5 -156.5q0 -104 48.5 -162.5t120.5 -58.5zM444 554h-38l-117 130h-8
l-117 -130h-38l125 197h68z" />
    <glyph glyph-name="otilde.smallcap" horiz-adv-x="570" 
d="M284 -15q-108 0 -176 70t-68 182q0 110 72 185t174 75q108 0 176 -70t68 -182q0 -110 -72 -185t-174 -75zM287 25q73 0 119 57.5t46 153.5q0 104 -48.5 162.5t-121.5 58.5q-71 0 -117.5 -54.5t-46.5 -156.5q0 -104 48.5 -162.5t120.5 -58.5zM423 701h35
q-21 -118 -108 -118q-27 0 -54 17.5t-49 35t-38 17.5q-44 0 -61 -63h-35q21 118 107 118q28 0 55.5 -17.5t49.5 -35t38 -17.5q43 0 60 63z" />
    <glyph glyph-name="odieresis.smallcap" horiz-adv-x="570" 
d="M284 -15q-108 0 -176 70t-68 182q0 110 72 185t174 75q108 0 176 -70t68 -182q0 -110 -72 -185t-174 -75zM287 25q73 0 119 57.5t46 153.5q0 104 -48.5 162.5t-121.5 58.5q-71 0 -117.5 -54.5t-46.5 -156.5q0 -104 48.5 -162.5t120.5 -58.5zM190 580q-22 0 -37.5 16
t-15.5 38q0 23 15.5 39t37.5 16t37.5 -16t15.5 -39t-15.5 -38.5t-37.5 -15.5zM380 580q-22 0 -38 16t-16 38q0 23 15.5 39t38.5 16q22 0 37.5 -16t15.5 -39q0 -22 -15.5 -38t-37.5 -16z" />
    <glyph glyph-name="omacron.smallcap" horiz-adv-x="570" 
d="M284 -15q-108 0 -176 70t-68 182q0 110 72 185t174 75q108 0 176 -70t68 -182q0 -110 -72 -185t-174 -75zM287 25q73 0 119 57.5t46 153.5q0 104 -48.5 162.5t-121.5 58.5q-71 0 -117.5 -54.5t-46.5 -156.5q0 -104 48.5 -162.5t120.5 -58.5zM411 613h-252v43h252v-43z
" />
    <glyph glyph-name="obreve.smallcap" horiz-adv-x="570" 
d="M284 -15q-108 0 -176 70t-68 182q0 110 72 185t174 75q108 0 176 -70t68 -182q0 -110 -72 -185t-174 -75zM287 25q73 0 119 57.5t46 153.5q0 104 -48.5 162.5t-121.5 58.5q-71 0 -117.5 -54.5t-46.5 -156.5q0 -104 48.5 -162.5t120.5 -58.5zM391 718h34
q-6 -77 -43.5 -115t-96.5 -38t-97 37.5t-43 115.5h34q11 -53 35.5 -76t70.5 -23q45 0 70.5 23t35.5 76z" />
    <glyph glyph-name="ohungarumlaut.smallcap" horiz-adv-x="570" 
d="M284 -15q-108 0 -176 70t-68 182q0 110 72 185t174 75q108 0 176 -70t68 -182q0 -110 -72 -185t-174 -75zM287 25q73 0 119 57.5t46 153.5q0 104 -48.5 162.5t-121.5 58.5q-71 0 -117.5 -54.5t-46.5 -156.5q0 -104 48.5 -162.5t120.5 -58.5zM239 554h-33l88 177h94z
M393 554h-34l89 177h94z" />
    <glyph glyph-name="oslash.smallcap" horiz-adv-x="570" 
d="M131 -59h-39l50 85q-102 70 -102 211q0 110 72 185t174 75q64 0 113 -25l39 69h39l-49 -85q102 -71 102 -211q0 -110 -72 -185t-174 -75q-66 0 -113 25zM171 78l202 349q-39 30 -91 30q-71 0 -117.5 -54.5t-46.5 -156.5q0 -105 53 -168zM398 404l-201 -349q39 -30 90 -30
q73 0 119 57.5t46 153.5q0 107 -54 168z" />
    <glyph glyph-name="oslashacute.smallcap" horiz-adv-x="570" 
d="M131 -59h-39l50 85q-102 70 -102 211q0 110 72 185t174 75q64 0 113 -25l39 69h39l-49 -85q102 -71 102 -211q0 -110 -72 -185t-174 -75q-66 0 -113 25zM171 78l202 349q-39 30 -91 30q-71 0 -117.5 -54.5t-46.5 -156.5q0 -105 53 -168zM398 404l-201 -349q39 -30 90 -30
q73 0 119 57.5t46 153.5q0 107 -54 168zM308 554h-33l90 177h92z" />
    <glyph glyph-name="oe.smallcap" horiz-adv-x="737" 
d="M692 0h-414q-106 0 -172 64t-66 173t69 177t172 68h411v-55q-63 15 -162 15h-88v-179h169v-39h-169v-184h88q99 0 162 15v-55zM370 40v402h-91q-68 0 -114 -50.5t-46 -145.5q0 -98 47 -152t115 -54h89z" />
    <glyph glyph-name="thorn.smallcap" horiz-adv-x="442" 
d="M148 0h-72v482h72v-82l60 2q92 3 144.5 -39.5t52.5 -106.5q0 -75 -59 -119t-143 -44q-28 0 -55 3v-96zM199 361h-51v-223q21 -5 58 -5q56 0 88.5 28.5t32.5 79.5q0 56 -33.5 88t-94.5 32z" />
    <glyph glyph-name="racute.smallcap" horiz-adv-x="459" 
d="M436 0h-85l-129 196l-74 3v-199h-72v481l139 3q90 2 140 -37t50 -98q0 -48 -29 -84.5t-81 -54.5zM201 443h-53v-200q27 -5 64 -5q54 0 84 26t30 74q0 105 -125 105zM217 554h-33l90 177h92z" />
    <glyph glyph-name="rcommaaccent.smallcap" horiz-adv-x="459" 
d="M436 0h-85l-129 196l-74 3v-199h-72v481l139 3q90 2 140 -37t50 -98q0 -48 -29 -84.5t-81 -54.5zM201 443h-53v-200q27 -5 64 -5q54 0 84 26t30 74q0 105 -125 105zM190 -292l-11 27q68 34 68 87q0 52 -71 73q0 23 15.5 38t41.5 15q32 0 55.5 -27t23.5 -62q0 -50 -34 -89
t-88 -62z" />
    <glyph glyph-name="rcaron.smallcap" horiz-adv-x="459" 
d="M436 0h-85l-129 196l-74 3v-199h-72v481l139 3q90 2 140 -37t50 -98q0 -48 -29 -84.5t-81 -54.5zM201 443h-53v-200q27 -5 64 -5q54 0 84 26t30 74q0 105 -125 105zM253 554h-68l-125 197h39l116 -130h8l117 130h38z" />
    <glyph glyph-name="sacute.smallcap" horiz-adv-x="439" 
d="M48 23l26 56q56 -54 130 -54q58 0 89.5 24t31.5 61q0 40 -30.5 63t-98.5 44q-74 23 -111 57t-37 89q0 56 46.5 94.5t128.5 39.5q95 0 157 -39l-25 -56q-55 55 -136 55q-48 0 -76.5 -21.5t-28.5 -54.5q0 -39 28.5 -59t93.5 -42q78 -26 116.5 -59t38.5 -92
q0 -62 -51.5 -103t-139.5 -41q-82 0 -152 38zM222 554h-33l90 177h92z" />
    <glyph glyph-name="scircumflex.smallcap" horiz-adv-x="439" 
d="M48 23l26 56q56 -54 130 -54q58 0 89.5 24t31.5 61q0 40 -30.5 63t-98.5 44q-74 23 -111 57t-37 89q0 56 46.5 94.5t128.5 39.5q95 0 157 -39l-25 -56q-55 55 -136 55q-48 0 -76.5 -21.5t-28.5 -54.5q0 -39 28.5 -59t93.5 -42q78 -26 116.5 -59t38.5 -92
q0 -62 -51.5 -103t-139.5 -41q-82 0 -152 38zM378 554h-38l-117 130h-8l-117 -130h-38l125 197h68z" />
    <glyph glyph-name="scedilla.smallcap" horiz-adv-x="439" 
d="M115 -275v33q156 0 156 69q0 25 -24 38.5t-68 13.5q-38 0 -67 -5v23l85 88q-81 2 -149 38l26 56q56 -54 130 -54q58 0 89.5 24t31.5 61q0 40 -30.5 63t-98.5 44q-74 23 -111 57t-37 89q0 56 46.5 94.5t128.5 39.5q95 0 157 -39l-25 -56q-55 55 -136 55q-48 0 -76.5 -21.5
t-28.5 -54.5q0 -39 28.5 -59t93.5 -42q78 -26 116.5 -59t38.5 -92q0 -54 -40 -93t-111 -48l-56 -59q67 3 109 -21t42 -67q0 -53 -53.5 -84.5t-166.5 -31.5z" />
    <glyph glyph-name="scommaaccent.smallcap" horiz-adv-x="439" 
d="M157 -292l-12 27q68 34 68 87q0 52 -71 73q0 23 15.5 38t42.5 15q32 0 55 -27t23 -62q0 -50 -34 -89t-87 -62zM48 23l26 56q56 -54 130 -54q58 0 89.5 24t31.5 61q0 40 -30.5 63t-98.5 44q-74 23 -111 57t-37 89q0 56 46.5 94.5t128.5 39.5q95 0 157 -39l-25 -56
q-55 55 -136 55q-48 0 -76.5 -21.5t-28.5 -54.5q0 -39 28.5 -59t93.5 -42q78 -26 116.5 -59t38.5 -92q0 -62 -51.5 -103t-139.5 -41q-82 0 -152 38z" />
    <glyph glyph-name="scaron.smallcap" horiz-adv-x="439" 
d="M48 23l26 56q56 -54 130 -54q58 0 89.5 24t31.5 61q0 40 -30.5 63t-98.5 44q-74 23 -111 57t-37 89q0 56 46.5 94.5t128.5 39.5q95 0 157 -39l-25 -56q-55 55 -136 55q-48 0 -76.5 -21.5t-28.5 -54.5q0 -39 28.5 -59t93.5 -42q78 -26 116.5 -59t38.5 -92
q0 -62 -51.5 -103t-139.5 -41q-82 0 -152 38zM253 554h-68l-125 197h39l116 -130h8l117 130h38z" />
    <glyph glyph-name="tcommaaccent.smallcap" horiz-adv-x="480" 
d="M276 0h-72v442h-18q-95 0 -158 -15v55h424v-55q-63 15 -159 15h-17v-442zM188 -292l-12 27q68 34 68 87q0 52 -71 73q0 23 15.5 38t42.5 15q32 0 55 -27t23 -62q0 -50 -34 -89t-87 -62z" />
    <glyph glyph-name="tcaron.smallcap" horiz-adv-x="480" 
d="M276 0h-72v442h-18q-95 0 -158 -15v55h424v-55q-63 15 -159 15h-17v-442zM274 554h-68l-125 197h39l116 -130h8l117 130h38z" />
    <glyph glyph-name="ugrave.smallcap" horiz-adv-x="514" 
d="M397 156v326h45v-326q0 -72 -54 -121.5t-131 -49.5t-131 49.5t-54 121.5v326h72v-326q0 -51 37 -86t90 -35q52 0 89 35t37 86zM303 554h-33l-149 177h92z" />
    <glyph glyph-name="uacute.smallcap" horiz-adv-x="514" 
d="M397 156v326h45v-326q0 -72 -54 -121.5t-131 -49.5t-131 49.5t-54 121.5v326h72v-326q0 -51 37 -86t90 -35q52 0 89 35t37 86zM269 554h-33l90 177h92z" />
    <glyph glyph-name="ucircumflex.smallcap" horiz-adv-x="514" 
d="M397 156v326h45v-326q0 -72 -54 -121.5t-131 -49.5t-131 49.5t-54 121.5v326h72v-326q0 -51 37 -86t90 -35q52 0 89 35t37 86zM420 554h-38l-117 130h-8l-117 -130h-38l125 197h68z" />
    <glyph glyph-name="udieresis.smallcap" horiz-adv-x="514" 
d="M397 156v326h45v-326q0 -72 -54 -121.5t-131 -49.5t-131 49.5t-54 121.5v326h72v-326q0 -51 37 -86t90 -35q52 0 89 35t37 86zM163 580q-22 0 -37.5 16t-15.5 38q0 23 15.5 39t37.5 16t37.5 -16t15.5 -39t-15.5 -38.5t-37.5 -15.5zM353 580q-23 0 -38.5 16t-15.5 38
q0 23 15.5 39t38.5 16q22 0 37.5 -16t15.5 -39q0 -22 -15.5 -38t-37.5 -16z" />
    <glyph glyph-name="umacron.smallcap" horiz-adv-x="514" 
d="M397 156v326h45v-326q0 -72 -54 -121.5t-131 -49.5t-131 49.5t-54 121.5v326h72v-326q0 -51 37 -86t90 -35q52 0 89 35t37 86zM386 613h-252v43h252v-43z" />
    <glyph glyph-name="ubreve.smallcap" horiz-adv-x="514" 
d="M397 156v326h45v-326q0 -72 -54 -121.5t-131 -49.5t-131 49.5t-54 121.5v326h72v-326q0 -51 37 -86t90 -35q52 0 89 35t37 86zM374 718h34q-6 -77 -43.5 -115t-96.5 -38q-60 0 -97.5 37.5t-42.5 115.5h34q11 -53 35.5 -76t70.5 -23q45 0 70.5 23t35.5 76z" />
    <glyph glyph-name="uring.smallcap" horiz-adv-x="514" 
d="M397 156v326h45v-326q0 -72 -54 -121.5t-131 -49.5t-131 49.5t-54 121.5v326h72v-326q0 -51 37 -86t90 -35q52 0 89 35t37 86zM270 542q-50 0 -80 32t-30 79t30 79t80 32t80 -32t30 -79t-30 -79t-80 -32zM270 578q31 0 50.5 22.5t19.5 52.5t-19.5 52.5t-50.5 22.5
q-32 0 -51.5 -23t-19.5 -52t19.5 -52t51.5 -23z" />
    <glyph glyph-name="uhungarumlaut.smallcap" horiz-adv-x="514" 
d="M397 156v326h45v-326q0 -72 -54 -121.5t-131 -49.5t-131 49.5t-54 121.5v326h72v-326q0 -51 37 -86t90 -35q52 0 89 35t37 86zM200 554h-33l88 177h94zM354 554h-34l89 177h94z" />
    <glyph glyph-name="uogonek.smallcap" horiz-adv-x="514" 
d="M391 -167l17 -25q-38 -54 -110 -54q-46 0 -73 26.5t-27 73.5q0 32 21.5 68t60.5 65q-8 -2 -23 -2q-77 0 -131 49.5t-54 121.5v326h72v-326q0 -51 37 -86t90 -35q52 0 89 35t37 86v326h45v-326q0 -46 -23 -84t-62 -61q-46 -30 -71 -69t-25 -75q0 -67 64 -67q37 0 66 33z
" />
    <glyph glyph-name="wcircumflex.smallcap" horiz-adv-x="716" 
d="M523 -4h-67l-96 301h-5l-96 -301h-66l-167 486h75l135 -401h8l92 294l-34 107h73l124 -401h9l134 401h48zM517 554h-38l-117 130h-8l-117 -130h-38l125 197h68z" />
    <glyph glyph-name="wgrave.smallcap" horiz-adv-x="716" 
d="M523 -4h-67l-96 301h-5l-96 -301h-66l-167 486h75l135 -401h8l92 294l-34 107h73l124 -401h9l134 401h48zM351 554h-33l-149 177h92z" />
    <glyph glyph-name="wacute.smallcap" horiz-adv-x="716" 
d="M523 -4h-67l-96 301h-5l-96 -301h-66l-167 486h75l135 -401h8l92 294l-34 107h73l124 -401h9l134 401h48zM345 554h-33l90 177h92z" />
    <glyph glyph-name="wdieresis.smallcap" horiz-adv-x="716" 
d="M523 -4h-67l-96 301h-5l-96 -301h-66l-167 486h75l135 -401h8l92 294l-34 107h73l124 -401h9l134 401h48zM253 580q-22 0 -37.5 16t-15.5 38q0 23 15.5 39t37.5 16t37.5 -16t15.5 -39t-15.5 -38.5t-37.5 -15.5zM443 580q-23 0 -38.5 16t-15.5 38q0 23 15.5 39t38.5 16
q22 0 37.5 -16t15.5 -39q0 -22 -15.5 -38t-37.5 -16z" />
    <glyph glyph-name="yacute.smallcap" horiz-adv-x="458" 
d="M265 0h-72v193l-167 289h80l135 -241h4l135 241h52l-167 -289v-193zM237 554h-33l90 177h92z" />
    <glyph glyph-name="ycircumflex.smallcap" horiz-adv-x="458" 
d="M265 0h-72v193l-167 289h80l135 -241h4l135 241h52l-167 -289v-193zM392 554h-38l-117 130h-8l-117 -130h-38l125 197h68z" />
    <glyph glyph-name="ydieresis.smallcap" horiz-adv-x="458" 
d="M265 0h-72v193l-167 289h80l135 -241h4l135 241h52l-167 -289v-193zM139 580q-22 0 -37.5 16t-15.5 38q0 23 15.5 39t37.5 16t37.5 -16t15.5 -39t-15.5 -38.5t-37.5 -15.5zM329 580q-23 0 -38.5 16t-15.5 38q0 23 15.5 39t38.5 16q22 0 37.5 -16t15.5 -39
q0 -22 -15.5 -38t-37.5 -16z" />
    <glyph glyph-name="zacute.smallcap" horiz-adv-x="454" 
d="M418 0h-382v41l299 401h-132q-105 0 -162 -15v55h377v-39l-299 -403h139q103 0 160 15v-55zM215 554h-33l90 177h92z" />
    <glyph glyph-name="zdotaccent.smallcap" horiz-adv-x="454" 
d="M418 0h-382v41l299 401h-132q-105 0 -162 -15v55h377v-39l-299 -403h139q103 0 160 15v-55zM225 581q-22 0 -37.5 16t-15.5 38q0 23 15.5 39t37.5 16t37.5 -16t15.5 -39t-15.5 -38.5t-37.5 -15.5z" />
    <glyph glyph-name="zcaron.smallcap" horiz-adv-x="454" 
d="M418 0h-382v41l299 401h-132q-105 0 -162 -15v55h377v-39l-299 -403h139q103 0 160 15v-55zM264 554h-68l-125 197h39l116 -130h8l117 130h38z" />
    <glyph glyph-name="solidus" horiz-adv-x="207" 
d="M-140 -116h-47l535 741h47z" />
    <glyph glyph-name="plusinferior" horiz-adv-x="342" 
d="M189 -78h-34v107h-107v35h107v106h34v-106h106v-35h-106v-107z" />
    <glyph glyph-name="minusinferior" horiz-adv-x="342" 
d="M295 29h-247v35h247v-35z" />
    <glyph glyph-name="zero.lnum" 
d="M246 -15q-94 0 -154.5 86.5t-60.5 234.5q0 145 60.5 239.5t161.5 94.5q95 0 155.5 -87t60.5 -234q0 -145 -60.5 -239.5t-162.5 -94.5zM255 26q58 0 92.5 73t34.5 204q0 141 -35.5 218.5t-102.5 77.5q-56 0 -91 -74t-35 -203q0 -141 35.5 -218.5t101.5 -77.5z" />
    <glyph glyph-name="one.lnum" 
d="M308 0h-82v554h-121v35l203 47v-636z" />
    <glyph glyph-name="two.lnum" 
d="M442 0h-374l-7 56q160 152 227.5 241.5t67.5 154.5q0 63 -34.5 95t-97.5 32q-80 0 -155 -75l-30 35q101 101 226 101q85 0 131.5 -46.5t46.5 -118.5q0 -81 -65.5 -165t-229.5 -227v-8h294v-75z" />
    <glyph glyph-name="three.lnum" 
d="M49 42l36 60q20 -37 57.5 -56.5t75.5 -19.5q66 0 109 38t43 99q0 64 -36.5 96.5t-102.5 32.5q-46 0 -88 -20l-16 39q100 40 151 87t51 92q0 44 -27 67.5t-77 23.5q-66 0 -148 -70l-28 35q104 94 214 94q64 0 108.5 -33t44.5 -89q0 -100 -148 -172v-5q30 3 32 3
q65 0 107 -42.5t42 -110.5q0 -87 -63 -146.5t-173 -59.5q-97 0 -164 57z" />
    <glyph glyph-name="four.lnum" 
d="M394 0h-81v156h-275l-8 54q46 62 97 132t113 155.5t96 132.5h58v-404h80v-70h-80v-156zM313 226v294h-4l-214 -294h218z" />
    <glyph glyph-name="five.lnum" 
d="M49 42l35 60q54 -76 137 -76q62 0 102.5 37.5t40.5 89.5q0 77 -62.5 123t-212.5 63l67 286h282v-75h-258l-32 -140q285 -42 285 -225q0 -86 -57 -143t-152 -57q-108 0 -175 57z" />
    <glyph glyph-name="six.lnum" 
d="M134 328l2 -3q70 56 144 56q78 0 128.5 -55t50.5 -132q0 -95 -62 -152t-143 -57q-99 0 -156 68t-57 170q0 161 111.5 275.5t276.5 152.5l9 -36q-129 -42 -200.5 -111.5t-103.5 -175.5zM130 275q-11 -17 -11 -69q0 -68 37.5 -124t100.5 -56q54 0 89 41.5t35 97.5
q0 68 -36.5 112t-96.5 44q-30 0 -65 -13.5t-53 -32.5z" />
    <glyph glyph-name="seven.lnum" 
d="M180 -6h-60l280 556h-358v75h417l6 -41z" />
    <glyph glyph-name="eight.lnum" 
d="M327 335v-6q127 -65 127 -169q0 -74 -56.5 -124.5t-153.5 -50.5q-84 0 -141.5 47.5t-57.5 116.5q0 100 130 158v5q-115 62 -115 161q0 69 54.5 118t143.5 49q80 0 129.5 -44.5t49.5 -110.5q0 -49 -27 -84.5t-83 -65.5zM289 349q71 49 71 127q0 52 -32 87.5t-86 35.5
q-50 0 -79.5 -29.5t-29.5 -75.5q0 -44 36 -77t120 -68zM213 293q-90 -58 -90 -141q0 -56 36.5 -91t97.5 -35q59 0 92 31t33 82q0 49 -37.5 82.5t-131.5 71.5z" />
    <glyph glyph-name="nine.lnum" 
d="M71 -26l-9 36q129 42 200.5 111.5t103.5 175.5l-2 3q-70 -56 -144 -56q-78 0 -128.5 55t-50.5 132q0 95 62 152t143 57q99 0 156 -68t57 -170q0 -161 -111.5 -275.5t-276.5 -152.5zM370 350q11 17 11 69q0 68 -37.5 124t-100.5 56q-54 0 -89 -41.5t-35 -97.5
q0 -68 36.5 -112t96.5 -44q30 0 65 13.5t53 32.5z" />
    <glyph glyph-name="dollar.lnum" 
d="M163 -96h-39l27 118q-59 10 -90 27l9 30t10 30l14 -10q30 -21 68 -33l52 224q-79 29 -116 66t-37 93q0 65 51.5 110.5t142.5 45.5q19 0 33 -2l21 94h40q-18 -73 -23 -98q61 -10 95 -26q-14 -47 -19 -61l-16 11q-32 23 -71 33l-47 -206q93 -32 132.5 -69.5t39.5 -98.5
q0 -71 -57.5 -118.5t-154.5 -47.5q-25 0 -38 1zM232 364l46 199q-7 1 -26 1q-55 0 -89 -26.5t-34 -65.5q0 -38 23.5 -62.5t79.5 -45.5zM250 277l-51 -219q18 -3 37 -3q62 0 98 31t36 74q0 40 -24.5 65t-95.5 52z" />
    <glyph glyph-name="cent.lnum" 
d="M199 -119h-38l40 165q-64 23 -102 79.5t-38 134.5q0 103 63 170t167 67q15 0 22 -1l38 153h38l-39 -158q57 -11 99 -46l-33 -52q-41 43 -77 55l-89 -361q24 -9 54 -9q59 0 107 39l22 -36q-62 -49 -152 -49q-25 0 -44 4zM216 103l86 352q-3 1 -12 1q-69 0 -110 -52
t-41 -138q0 -114 77 -163z" />
    <glyph glyph-name="sterling.lnum" 
d="M425 0h-341v82q81 53 81 162q0 28 -5 55h-94v39h84q-2 5 -8 22.5t-8.5 26t-6.5 23.5t-5.5 28.5t-1.5 28.5q0 80 47 126.5t120 46.5q86 0 145 -48l-35 -54q-31 62 -103 62q-46 0 -71 -30t-25 -86q0 -28 6 -52.5t16.5 -53t14.5 -40.5h129v-39h-121q2 -20 2 -31
q0 -58 -25 -103.5t-84 -90.5h289v-74z" />
    <glyph glyph-name="yen.lnum" 
d="M442 132h-154v-132h-75v132h-154v39h154v91h-154v39h139l-164 324h83l152 -300l148 300h49l-163 -324h139v-39h-154v-91h154v-39z" />
    <glyph glyph-name="Euro.lnum" 
d="M431 80l24 -31q-35 -33 -69.5 -48.5t-84.5 -15.5q-92 0 -150 68t-77 181h-74v38h69q-1 14 -1 40q0 33 2 48h-70v39h75q22 108 79.5 174.5t140.5 66.5q104 0 173 -66l-38 -51q-51 77 -127 77q-56 0 -93 -53.5t-51 -147.5h219v-39h-224q-2 -30 -2 -48q0 -14 2 -40h224v-38
h-220q12 -96 52 -152t105 -56q61 0 116 54z" />
    <glyph glyph-name="degree.lnum" 
d="M250 338q-68 0 -109 43.5t-41 106.5q0 64 41 108t109 44t109 -44t41 -108q0 -63 -41 -106.5t-109 -43.5zM250 383q44 0 71 30.5t27 74.5q0 46 -26.5 76.5t-71.5 30.5t-71.5 -30.5t-26.5 -76.5q0 -44 26.5 -74.5t71.5 -30.5z" />
    <glyph glyph-name="plus.lnum" 
d="M272 24h-44v190h-178v44h178v189h44v-189h178v-44h-178v-190z" />
    <glyph glyph-name="minus.lnum" 
d="M450 213h-400v45h400v-45z" />
    <glyph glyph-name="plusminus.lnum" 
d="M450 249h-178v-153h-44v153h-178v44h178v165h44v-165h178v-44zM450 0h-400v46h400v-46z" />
    <glyph glyph-name="logicalnot.lnum" 
d="M436 123h-47v163h-347v46h394v-209z" />
    <glyph glyph-name="equal.lnum" 
d="M448 296h-396v45h396v-45zM448 128h-396v45h396v-45z" />
    <glyph glyph-name="notequal.lnum" 
d="M448 128h-197l-42 -151h-45l42 151h-154v45h167l35 123h-202v45h215l40 141h45l-40 -141h136v-45h-149l-34 -123h183v-45z" />
    <glyph glyph-name="approxequal.lnum" 
d="M390 366h47q-21 -105 -102 -105q-30 0 -87.5 33t-81.5 33q-42 0 -56 -58h-46q8 46 34 75t68 29q33 0 91 -33t78 -33q40 0 55 59zM390 202h47q-21 -105 -102 -105q-30 0 -87.5 33t-81.5 33q-42 0 -56 -58h-46q8 46 34 75t68 29q33 0 91 -33t78 -33q40 0 55 59z" />
    <glyph glyph-name="multiply.lnum" 
d="M451 71l-33 -32l-168 169l-168 -169l-32 32l169 168l-169 168l32 33l168 -169l168 169l33 -33l-170 -168z" />
    <glyph glyph-name="divide.lnum" 
d="M448 213h-396v45h396v-45zM250 335q-18 0 -30.5 12.5t-12.5 30.5t12.5 30.5t30.5 12.5q17 0 30 -12.5t13 -30.5t-13 -30.5t-30 -12.5zM250 50q-18 0 -30.5 13t-12.5 30q0 18 12.5 30.5t30.5 12.5q17 0 30 -12.5t13 -30.5q0 -17 -13 -30t-30 -13z" />
    <glyph glyph-name="less.lnum" 
d="M440 33l-400 187v30l400 187v-50l-324 -149v-6l324 -149v-50z" />
    <glyph glyph-name="greater.lnum" 
d="M460 220l-400 -187v50l324 149v6l-324 149v50l400 -187v-30z" />
    <glyph glyph-name="lessequal.lnum" 
d="M439 89l-384 169v34l384 169v-50l-314 -136l314 -136v-50zM439 0h-384v46h384v-46z" />
    <glyph glyph-name="greaterequal.lnum" 
d="M445 258l-384 -169v50l314 136l-314 136v50l384 -169v-34zM445 0h-384v46h384v-46z" />
    <glyph glyph-name="bar.lnum" horiz-adv-x="250" 
d="M145 -157h-39v877h39v-877z" />
    <glyph glyph-name="brokenbar.lnum" horiz-adv-x="250" 
d="M145 305h-39v335h39v-335zM145 -137h-39v335h39v-335z" />
    <glyph glyph-name="bullet.lnum" 
d="M250 126q-76 0 -130.5 54t-54.5 131t54.5 131t130.5 54t130.5 -54t54.5 -131t-54.5 -131t-130.5 -54z" />
    <glyph glyph-name="asciitilde.lnum" 
d="M397 368h35q-22 -118 -108 -118q-36 0 -88.5 35t-69.5 35q-46 0 -63 -62h-35q22 118 107 118q36 0 89.5 -35.5t69.5 -35.5q45 0 63 63z" />
    <glyph glyph-name="quotesingle.lnum" horiz-adv-x="250" 
d="M74 403h-34l110 243l73 -25z" />
    <glyph glyph-name="quotedbl.lnum" 
d="M113 403h-34l110 243l73 -25zM292 403h-34l110 243l73 -25z" />
    <glyph glyph-name="parenleft.lnum" horiz-adv-x="360" 
d="M330 -130l-22 -36q-121 72 -192 196.5t-71 271.5q0 146 71 270.5t192 196.5l22 -36q-109 -67 -172 -182t-63 -249t62.5 -249t172.5 -183z" />
    <glyph glyph-name="parenright.lnum" horiz-adv-x="360" 
d="M52 -166l-22 36q109 68 171.5 183t62.5 249t-62.5 249t-171.5 182l22 36q121 -72 192 -196.5t71 -270.5q0 -147 -71 -271.5t-192 -196.5z" />
    <glyph glyph-name="bracketleft.lnum" horiz-adv-x="341" 
d="M311 -135h-231v911h231v-42h-181v-827h181v-42z" />
    <glyph glyph-name="bracketright.lnum" horiz-adv-x="341" 
d="M261 -135h-231v42h181v827h-181v42h231v-911z" />
    <glyph glyph-name="asterisk.lnum" 
d="M313 324l-21 -6l-41 47l2 91l-15 4l-52 -70l-62 -15l-14 19l34 56l85 23v17l-85 26l-35 54l13 18l64 -13l52 -75l14 5l2 92l39 46l22 -7l7 -62l-56 -74l10 -13l88 29l55 -26v-22l-55 -26l-88 30l-10 -13l54 -73z" />
    <glyph glyph-name="braceleft.lnum" horiz-adv-x="323" 
d="M283 -97v-39q-90 5 -138 44.5t-48 106.5q0 45 28 105t28 93q0 38 -37 57t-91 22v54q128 8 128 79q0 32 -28 93t-28 106q0 67 48 106.5t138 44.5v-39q-57 -6 -87.5 -31.5t-30.5 -62.5q0 -32 27.5 -91t27.5 -104q0 -48 -41 -85t-87 -39v-9q45 -3 86.5 -39.5t41.5 -83.5
q0 -44 -27.5 -102t-27.5 -90q0 -37 30.5 -64t87.5 -32z" />
    <glyph glyph-name="braceright.lnum" horiz-adv-x="323" 
d="M40 -136v39q56 5 87 32.5t31 63.5q0 32 -27.5 90t-27.5 102q0 48 41 84t87 39v9q-46 2 -87 39t-41 85q0 45 27.5 104t27.5 91q0 37 -30.5 62.5t-87.5 31.5v39q90 -5 138 -44.5t48 -106.5q0 -45 -28 -106t-28 -93q0 -71 128 -79v-54q-128 -8 -128 -79q0 -33 28 -93
t28 -105q0 -67 -48 -106.5t-138 -44.5z" />
    <glyph glyph-name="section.lnum" 
d="M87 -76l27 57q52 -60 124 -60q45 0 71 22.5t26 58.5t-27 63t-96 62q-83 41 -114.5 76t-31.5 84q0 79 74 119q-36 40 -36 96q0 62 44 100t119 38q85 0 146 -43l-27 -57q-52 60 -125 60q-44 0 -70 -22.5t-26 -58.5t27 -63.5t96 -61.5q83 -41 114.5 -76t31.5 -84
q0 -77 -75 -119q37 -40 37 -96q0 -62 -44.5 -100t-119.5 -38q-87 0 -145 43zM338 135q37 26 37 68q0 41 -27.5 69t-100.5 62q-55 25 -86 52q-37 -29 -37 -68q0 -41 27.5 -68.5t101.5 -62.5q53 -24 85 -52z" />
    <glyph glyph-name="paragraph.lnum" 
d="M419 -32h-51v314q-46 -13 -85 -13q-108 0 -165 50t-57 128q0 86 55.5 132t154.5 46h148v-657z" />
    <glyph glyph-name="period.lnum" horiz-adv-x="250" 
d="M127 -14q-24 0 -41.5 17.5t-17.5 41.5t17.5 41.5t41.5 17.5t41.5 -17.5t17.5 -41.5t-17.5 -41.5t-41.5 -17.5z" />
    <glyph glyph-name="comma.lnum" horiz-adv-x="250" 
d="M69 -188l-19 25q78 61 78 125q0 60 -74 86q0 25 17.5 41.5t48.5 16.5q33 0 59 -28.5t26 -68.5q0 -102 -136 -197z" />
    <glyph glyph-name="colon.lnum" horiz-adv-x="250" 
d="M125 -14q-24 0 -41.5 17.5t-17.5 41.5t17.5 41.5t41.5 17.5t41.5 -17.5t17.5 -41.5t-17.5 -41.5t-41.5 -17.5zM125 328q-24 0 -41.5 17.5t-17.5 41.5q0 25 17.5 42t41.5 17t41.5 -17t17.5 -42q0 -24 -17.5 -41.5t-41.5 -17.5z" />
    <glyph glyph-name="semicolon.lnum" horiz-adv-x="250" 
d="M126 328q-24 0 -41.5 17.5t-17.5 41.5q0 25 17.5 42t41.5 17t41.5 -17t17.5 -42q0 -24 -17.5 -41.5t-41.5 -17.5zM73 -188l-19 25q78 61 78 125q0 60 -74 86q0 25 17.5 41.5t48.5 16.5q33 0 59 -28.5t26 -68.5q0 -102 -136 -197z" />
    <glyph glyph-name="periodcentered.lnum" horiz-adv-x="250" 
d="M125 256q-24 0 -41.5 17.5t-17.5 42.5q0 24 17.5 41.5t41.5 17.5t41.5 -17.5t17.5 -41.5q0 -25 -17.5 -42.5t-41.5 -17.5z" />
    <glyph glyph-name="hyphen.lnum" horiz-adv-x="328" 
d="M273 293h-218v48h218v-48z" />
    <glyph glyph-name="endash.lnum" 
d="M441 293h-382v48h382v-48z" />
    <glyph glyph-name="tribol_north.orn" horiz-adv-x="750" 
d="M662 45h-574l288 539zM502 137l-127 261l-127 -261h254z" />
    <glyph glyph-name="tribol_east.orn" horiz-adv-x="750" 
d="M684 312l-539 -286v574zM498 313l-261 127v-254z" />
    <glyph glyph-name="tribol_south.orn" horiz-adv-x="750" 
d="M376 45l-288 539h574zM375 231l127 261h-254z" />
    <glyph glyph-name="tribol_west.orn" horiz-adv-x="750" 
d="M604 26l-539 286l539 288v-574zM512 186v254l-261 -127z" />
    <glyph glyph-name="trisol_north.orn" horiz-adv-x="750" 
d="M662 45h-574l288 539z" />
    <glyph glyph-name="trisol_east.orn" horiz-adv-x="750" 
d="M684 312l-539 -286v574z" />
    <glyph glyph-name="trisol_south.orn" horiz-adv-x="750" 
d="M376 45l-288 539h574z" />
    <glyph glyph-name="trisol_west.orn" horiz-adv-x="750" 
d="M604 26l-539 286l539 288v-574z" />
    <glyph glyph-name="arrow_north.orn" horiz-adv-x="750" 
d="M408 -12h-67l5 539l-236 -251l-49 43l310 319h7l311 -319l-49 -43l-237 251z" />
    <glyph glyph-name="arrow_east.orn" horiz-adv-x="750" 
d="M703 308l-319 -310l-43 48l251 237l-539 -5v67l539 -5l-251 237l43 49l319 -311v-7z" />
    <glyph glyph-name="arrow_south.orn" horiz-adv-x="750" 
d="M377 -13h-6l-311 319l48 43l237 -251l-5 539h67l-4 -539l236 251l49 -43z" />
    <glyph glyph-name="arrow_west.orn" horiz-adv-x="750" 
d="M697 278l-539 5l251 -237l-43 -48l-319 310v7l319 311l43 -49l-251 -237l539 5v-67z" />
    <glyph glyph-name="sqrreg_2.orn" 
d="M459 0h-418v417h418v-417zM406 53v313h-313v-313h313z" />
    <glyph glyph-name="sqrbol_2.orn" 
d="M459 0h-418v417h418v-417zM368 91v236h-236v-236h236z" />
    <glyph glyph-name="sqrshd_2.orn" 
d="M459 0h-418v417h418v-417zM414 336v37h-37zM414 243v64l-65 66h-65zM414 151v64l-158 158h-64zM414 59v64l-250 250h-64zM400 46l-314 313v-65l250 -248h64zM307 46l-221 220v-64l157 -156h64zM214 46l-128 127v-64l64 -63h64zM122 46l-36 36v-36h36z" />
    <glyph glyph-name="sqrsol_2.orn" 
d="M459 0h-418v417h418v-417z" />
    <glyph glyph-name="sqrreg_1.orn" horiz-adv-x="750" 
d="M688 0h-626v626h626v-626zM633 55v516h-516v-516h516z" />
    <glyph glyph-name="sqrbol_1.orn" horiz-adv-x="750" 
d="M688 0h-626v626h626v-626zM573 115v396h-396v-396h396z" />
    <glyph glyph-name="sqrshd_1.orn" horiz-adv-x="750" 
d="M688 0h-626v626h626v-626zM633 493v78h-78zM633 351v116l-104 104h-116zM633 209v116l-246 246h-116zM633 68v116l-387 387h-116zM621 55l-504 504v-116l388 -388h116zM479 55l-362 362v-116l246 -246h116zM337 55l-220 220v-116l104 -104h116zM197 55l-80 80v-80h80z
" />
    <glyph glyph-name="sqrsol_1.orn" horiz-adv-x="750" 
d="M688 0h-626v626h626v-626z" />
    <glyph glyph-name="crcreg_2.orn" 
d="M250 -10q-92 0 -155.5 63.5t-63.5 155.5t63.5 155t155.5 63t155.5 -63t63.5 -155t-63.5 -155.5t-155.5 -63.5zM250 41q70 0 118 49t48 119t-48 119t-118 49t-118 -49t-48 -119t48 -119t118 -49z" />
    <glyph glyph-name="crcbol_2.orn" 
d="M250 -10q-92 0 -155.5 63.5t-63.5 155.5t63.5 155t155.5 63t155.5 -63t63.5 -155t-63.5 -155.5t-155.5 -63.5zM250 81q54 0 90 37t36 91q0 53 -36.5 90.5t-89.5 37.5t-89.5 -37.5t-36.5 -90.5q0 -54 36 -91t90 -37z" />
    <glyph glyph-name="crcshd_2.orn" 
d="M250 -10q-92 0 -155.5 63.5t-63.5 155.5t63.5 155t155.5 63t155.5 -63t63.5 -155t-63.5 -155.5t-155.5 -63.5zM275 387l151 -151q-7 58 -50 101q-45 43 -101 50zM428 205l-184 184q-32 -2 -55 -11l228 -229q9 24 11 56zM410 128l-241 242q-18 -7 -38 -27l253 -254
q17 17 26 39zM370 75l-254 254q-17 -17 -26 -40l242 -241q19 8 38 27zM311 39l-229 229q-8 -24 -10 -55l184 -184q31 0 55 10zM225 30l-151 152q7 -60 53 -104q42 -41 98 -48z" />
    <glyph glyph-name="crcsol_2.orn" 
d="M250 -10q-92 0 -155.5 63.5t-63.5 155.5t63.5 155t155.5 63t155.5 -63t63.5 -155t-63.5 -155.5t-155.5 -63.5z" />
    <glyph glyph-name="crcreg_1.orn" horiz-adv-x="750" 
d="M703 313q0 -138 -95 -233t-233 -95t-233 95t-95 233t95 233t233 95t233 -95t95 -233zM375 37q116 0 194.5 80.5t78.5 195.5t-78.5 195.5t-194.5 80.5t-194.5 -80.5t-78.5 -195.5t78.5 -195.5t194.5 -80.5z" />
    <glyph glyph-name="crcbol_1.orn" horiz-adv-x="750" 
d="M703 313q0 -138 -95 -233t-233 -95t-233 95t-95 233t95 233t233 95t233 -95t95 -233zM375 97q90 0 151.5 63t61.5 153t-61.5 153t-151.5 63t-151.5 -63t-61.5 -153t61.5 -153t151.5 -63z" />
    <glyph glyph-name="crcshd_1.orn" horiz-adv-x="750" 
d="M703 313q0 -138 -95 -233t-233 -95t-233 95t-95 233t95 234t233 96t233 -96t95 -234zM396 588l251 -251q-8 102 -78.5 173t-172.5 78zM648 310l-279 279q-53 -2 -97 -19l60 -60t115 -115.5t130 -130.5l52 -52q17 45 19 98zM187 514l389 -389q28 29 46 69l-92 92
q-91 92 -183 184l-92 92q-38 -18 -68 -48zM564 112l-390 390q-27 -28 -46 -70l368 -368q38 18 68 48zM478 56l-358 358q-16 -45 -18 -98l279 -279q49 0 97 19zM354 38l-251 251q8 -102 78.5 -173t172.5 -78z" />
    <glyph glyph-name="crcsol_1.orn" horiz-adv-x="750" 
d="M703 313q0 -138 -95 -233t-233 -95t-233 95t-95 233t95 233t233 95t233 -95t95 -233z" />
    <glyph glyph-name="NULL" horiz-adv-x="0" 
 />
    </font>
</defs>
</svg>
